<?xml version="1.0" encoding="utf-8"?>
<!-- Generator: Adobe Illustrator 24.3.0, SVG Export Plug-In . SVG Version: 6.00 Build 0)  -->
<svg version="1.1" id="Layer_1" xmlns="http://www.w3.org/2000/svg" xmlns:xlink="http://www.w3.org/1999/xlink" x="0px" y="0px"
	 viewBox="0 0 635 670.7" style="enable-background:new 0 0 635 670.7;" xml:space="preserve">
<style type="text/css">
	.st0{clip-path:url(#SVGID_4_);}
	.st1{fill:#CE6D46;}
	.st2{fill:#489AC1;}
	.st3{clip-path:url(#SVGID_4_);fill:#489AC1;}
</style>
<g>
	
		<image style="overflow:visible;opacity:0.75;" width="542" height="604" xlink:href="AA86A9BF0A4281A.png"  transform="matrix(1 0 0 1 22.8764 53.7317)">
	</image>
	<g>
		<g>
			<defs>
				<path id="SVGID_1_" d="M495.8,624.1H128.6c-39.6,0-72.1-32.4-72.1-72.1V122.8c0-39.6,32.4-72.1,72.1-72.1h367.2
					c39.6,0,72.1,32.4,72.1,72.1V552C567.8,591.7,535.4,624.1,495.8,624.1z"/>
			</defs>
			<clipPath id="SVGID_2_">
				<use xlink:href="#SVGID_1_"  style="overflow:visible;"/>
			</clipPath>
		</g>
		<g>
			<defs>
				<path id="SVGID_3_" d="M495.8,624.1H128.6c-39.6,0-72.1-32.4-72.1-72.1V122.8c0-39.6,32.4-72.1,72.1-72.1h367.2
					c39.6,0,72.1,32.4,72.1,72.1V552C567.8,591.7,535.4,624.1,495.8,624.1z"/>
			</defs>
			<clipPath id="SVGID_4_">
				<use xlink:href="#SVGID_3_"  style="overflow:visible;"/>
			</clipPath>
			<g class="st0">
				
					<image style="overflow:visible;" width="1028" height="920" xlink:href="AA86A9BF0A4281B.png"  transform="matrix(0.5005 0 0 0.5 54.8764 49.7317)">
				</image>
				<path class="st1" d="M569.3,620.7H54.9c0.1-67.8,0.1-135.6,0.2-203.4c82.5,20.9,149.7,32,196.1,38.4
					c49.1,6.7,88.9,10,148.3,24.3c46.9,11.2,85,24.5,110.6,34.3l59.2,20.2V620.7z"/>
				<path class="st2" d="M55,625.1h514.4c0-88.4,0-176.9,0-265.3c-21.7,14-56.3,34.1-101.5,51.1c-83.4,31.3-138.7,27.7-247,45.1
					c-39.4,6.3-96.8,17.2-165.9,36.5V625.1z"/>
			</g>
			<path class="st3" d="M343.6,600.1"/>
		</g>
		<g>
			<defs>
				<path id="SVGID_5_" d="M495.8,624.1H128.6c-39.6,0-72.1-32.4-72.1-72.1V122.8c0-39.6,32.4-72.1,72.1-72.1h367.2
					c39.6,0,72.1,32.4,72.1,72.1V552C567.8,591.7,535.4,624.1,495.8,624.1z"/>
			</defs>
			<clipPath id="SVGID_6_">
				<use xlink:href="#SVGID_5_"  style="overflow:visible;"/>
			</clipPath>
		</g>
	</g>
</g>
</svg>
