<?xml version="1.0" encoding="utf-8"?>
<!-- Generator: Adobe Illustrator 24.2.3, SVG Export Plug-In . SVG Version: 6.00 Build 0)  -->
<svg version="1.1" xmlns="http://www.w3.org/2000/svg" xmlns:xlink="http://www.w3.org/1999/xlink" x="0px" y="0px"
	 viewBox="0 0 521.6 922" style="enable-background:new 0 0 521.6 922;" xml:space="preserve">
<style type="text/css">
	.st0{fill:none;stroke:#020202;stroke-width:0.25;stroke-miterlimit:10;}
	.st1{fill:none;stroke:#000000;stroke-width:0.6158;stroke-miterlimit:10;}
	.st2{fill:none;stroke:#000000;stroke-width:0.25;stroke-miterlimit:10;}
	.st3{fill:#C6D8D2;stroke:#020202;stroke-width:0.445;stroke-miterlimit:10;}
	.st4{fill:#B0CBCA;stroke:#020202;stroke-width:0.445;stroke-miterlimit:10;}
	.st5{fill:#192A2D;stroke:#020202;stroke-width:0.445;stroke-miterlimit:10;}
	.st6{fill:#69909A;stroke:#020202;stroke-width:0.445;stroke-miterlimit:10;}
	.st7{fill:#496B7B;stroke:#020202;stroke-width:0.445;stroke-miterlimit:10;}
	.st8{fill:none;stroke:#020202;stroke-width:0.2586;stroke-miterlimit:10;}
	.st9{fill:none;stroke:#020202;stroke-width:0.704;stroke-miterlimit:10;}
	.st10{fill:none;stroke:#020202;stroke-width:0.7745;stroke-miterlimit:10;}
	.st11{fill:none;stroke:#020202;stroke-width:1.651;stroke-miterlimit:10;}
	.st12{fill:none;stroke:#020202;stroke-width:1.9095;stroke-miterlimit:10;}
	.st13{opacity:0.8;fill:#FFFFFF;}
	.st14{opacity:0.66;}
	.st15{fill:#202020;}
	.st16{fill:#FFFFFF;}
	.st17{fill:none;stroke:#FFFFFF;stroke-width:25;stroke-miterlimit:10;}
	.st18{fill:none;stroke:#000000;stroke-width:1.7644;stroke-miterlimit:10;}
	.st19{fill:none;stroke:#FF3900;stroke-width:0.4411;stroke-miterlimit:10;}
	.st20{fill:none;stroke:#5DD0FF;stroke-width:0.8822;stroke-miterlimit:10;}
</style>
<g id="Layer_1">
</g>
<g id="Layer_2">
	<g>
		<path class="st17" d="M107.9,338.9c-1.6,26.3,1.4,52.9,9,78.1c7.3,24.2,19.9,48.5,41.9,61.2c17.9,10.3,39.4,11.5,60,12
			c30.8,0.9,61.7,1,92.5,0.4c16.7-0.3,34.4-1.1,48.4-10.3c11.1-7.3,18.4-19,24.4-30.8c23.3-46.3,30.1-100.7,18.8-151.2"/>
		<path class="st17" d="M377.2,470c-24.4,38.5-18.4,93.6,13.6,126"/>
		<path class="st17" d="M98.6,582.4c-23.5-4.9-43.3,23.8-38,47.3c5.3,23.4,26.6,39.8,48.3,50.2c35.8,17.1,75.6,23.5,115,28.7
			c33.7,4.4,69.3,7.9,100.5-5.5c30.9-13.3,52.9-41.5,69.4-70.8c5.4-9.7,10.6-20.1,10.7-31.2c0.2-11.1-6-23.1-16.7-26.1"/>
		<path class="st17" d="M310.3,228.2c18.2-22.7,59-20.6,74.8,3.8c-21.8-17.3-49.6-27-77.4-27.1c-5.3,0-11.1,0.5-14.9,4.2
			c-8.8,8.5,0.6,23.8-3.3,35.4c22.4-1.3,44.9,0.4,66.9,5.1c-7.7-0.7-15.3-1.3-23-2c-3.3,4.1-10.1,4.9-14.2,1.6
			c5.5-7.1,17.9-7.3,23.6-0.3c4.1,5.1,5.6,13.2,11.8,15c2.1,0.6,4.3,0.3,6.4,0c9.7-1.3,19.5-2.7,29.2-4c-4.4-0.5-8.8-1-13.2-1.5
			c3.2,5.3,6.4,10.5,9.6,15.8c-7.9-15.5-28.3-19.2-45.6-18.8s-36.3,2.7-50.7-7.1c27.6-8.4,58.6-4.8,83.6,9.7
			c-3.8-13.2-16.6-22.1-30-25.3c-13.3-3.1-27.3-1.5-40.9,0.2c-5.2,0.6-11.3,1.8-13.7,6.5c-1.2,2.4-1.2,5.2-1.1,7.8
			c0.2,11.8,0.5,23.5,0.7,35.3c13.3,4.8,19.6,22.9,12.3,34.9c-7.3,12-26.3,14.7-36.7,5.1c11,2.2,23.1-4.1,27.6-14.3
			c-11.6-2.4-23.1,6.2-28.2,16.8c-5,10.7-5.1,22.9-5.1,34.7c-12.9-1.1-26.3-2.1-38.4,2.6c-12,4.7-22.1,17.2-19.7,29.9
			c0.9,4.7,34.6,1.9,38.5,1.3c5.8-0.8,11.5-2.9,17.2-3.5c6.6-0.7,13.6,0,20.3-0.1c1.5,0,3-0.1,4.2-1c1-0.8,1.7-2.1,2.7-2.9
			c0.8,1.9,2.2,4.9,4.6,5.2c1.3,0.2,2.6-0.5,3.7-1.2c6.8-4.1,17.8-4.4,25.4-5.4c0.2,9.2-14.9,11.3-21.6,11.6
			c-33.3,1.3-66.6,2.6-99.8,3.9c0.8-4.1-1.5-8.6-5.3-10.4c9.1-17.4,31.9-21,51.4-22.7c31.1-2.6,66.2-3.9,89.1,17.2
			c-23.9,19.1-56.3,22.4-86.7,24.9c-22.8,1.9-50.7,1.3-62.1-18.5c3.7,20.5,28.7,28.8,49.5,30c35.3,2,73.5-6.4,97.1-32.6
			c-18.3-26.6-53.9-35.5-86.2-34.9c-11.3,0.2-23,1.4-32.8,7c-12.7,7.1-20.7,20.2-28.1,32.7c-12.4-17.9-1.7-42.5,11.3-59.9
			c13-17.5,29.1-36.1,26.8-57.7c-20.7,2.3-41.7,3-62.5,2.3c21.6,8.2,48.6-2.4,59-23.1c-14.5-0.6-29-1.3-43.5-2
			c2.9-5.6,13.7-1,11.7,5c-5.1,1.8-12.7,0.6-13.2-4.8c-0.5-6.6,9.4-7.5,15.8-5.7c10.2,2.8,20.4,5.7,30.7,8.5
			c-25.3,7.6-52,10.9-78.4,9.6c3.1-16.5,22-25.5,38.8-25.6s33.1,6,49.8,7.4c12.9-62.4-92.3-41.4-111.4-3.4
			c-16.3,32.5-19.1,73.9-17.1,109.6c0.8,13.8,7.4,99.9,22.1,104.2c-21.2-6.1-40.2,17.1-43.4,38.9c-1.9,13.4-0.3,27.8,7.2,39
			c7.5,11.2,21.7,18.5,34.9,15.4c20.8-4.9,28.8-32.7,20.2-52.3c-6.3-14.3-22.1-26.1-37-21.5c-14.9,4.6-18.2,30.6-3.1,34.7
			c11.7,3.2,22.8-9.4,23.2-21.6c0.4-12.2-6.1-23.3-11.9-34c-39.2-73.5-46.9-163.1-20.9-242.2c8.1-24.6,19.5-48.5,37-67.6
			c24.6-26.7,59.8-42,95.5-48.7c22.1-4.1,45.1-5.3,66.9,0c43.7,10.6,77.9,46.2,98,86.4c20,40.2,28,85.3,35.7,129.5
			c-17.7-57.8-35.4-115.6-53.1-173.4c-5.1-16.7-10.6-34-22.6-46.6c-26-27.4-70.7-22.3-106.8-11.1c-26.7,8.3-52.8,18.8-77.8,31.3
			c-12.7,6.3-25.2,13.3-35.5,23c-13.3,12.6-22.1,29.1-29,46c-34.3,83.1-27.6,177-16.3,266.2c-44.2-96.8-37.2-215.4,18.2-306.3
			c33.8-55.4,96-107.4,165.1-96.7c41.1,6.4,75.7,34,104.2,64.2c46.8,49.7,83.7,111.1,93.4,178.6c9.7,67.6-11,141.4-62.7,186.1
			c37,4.2,69.5-30.2,76.4-66.7c6.9-36.6-5.2-73.9-18.4-108.6c-18.8-49.4-40.3-97.8-64.3-144.9c40.8,90.8,48,196.3,19.9,291.8
			c-2.8-30.9,15.1-59.2,25.4-88.4c14.1-39.6,14.4-83.8,1-123.6"/>
		<path class="st17" d="M242.4,322.7c0-2.6-2.2-4.9-4.7-5.8c-2.5-0.9-5.2-0.8-7.8-0.7c-0.9,0-1.9,0.1-2.6,0.6
			c-2.1,1.6,0,5.1,2.5,5.9c2.5,0.7,5.4,0.2,7.7,1.5"/>
		<path class="st17" d="M109.7,575.8c6.2,0.5,12.4-0.4,18.2-2.7c-5.4,1.6-10.4,4.3-14.7,7.8c3,5.6,4.5,11.9,4.4,18.3
			c-4.7,1.9-9.8,3-14.9,3.1c7.9,0.3,15.8-0.4,23.6-2c-7.4,1.9-14.9,3.9-22.3,5.8c4.4,5.5,10.4,9.7,17.1,11.9
			c0.6-5.1,2.4-10,5.3-14.2c-6.8,7.9-12.7,16.5-17.6,25.7c3.1-2.9,0.5-9.4-3.8-9.3c7.3-0.3,14.7,2.3,20.1,7.2
			c0.5-3.8,0.9-7.6,1.4-11.4c-4,5.7-7.9,11.5-11.9,17.2c-1.9,2.8-6.2,5.7-8,2.8c3.5,5,8.4,9,13.9,11.5c2.4-4.6,4.8-9.2,7.2-13.8
			c-1.9,5.7-4.5,11.2-7.7,16.4c-2,3.3-6.9,6.7-9.1,3.5c7.1,0.7,14.2,1.2,21.3,1.7c-4.5,0.5-9,1-13.5,1.6c-1.9,0.2-4,0.5-5.3,1.9
			c-3.8,4.1,3,10.1,2.4,15.6c6.9-2,13.2-5.7,18.3-10.8c-1.5,4.3-3.1,8.8-6.4,12s-8.8,4.7-12.5,2c-1.4,6.2-1.2,12.8,0.7,18.8
			c4-8.4,11.9-14.8,21-16.8c-0.2,5.4,0.4,10.7,1.6,15.9c-4.6,4.3-10.7,8-17,7.2c-6.3-0.8-11.8-8-8.8-13.6
			c6.5,9.8,13.4,19.3,20.9,28.4c1.6-6.3,3.2-12.6,4.8-18.9c-8.6,11.1-14,24.5-15.6,38.4c3.4-3.3,9-3.3,13.2-1.2
			c4.2,2.1,7.4,5.8,10.5,9.3c0.7-10.8-2.3-21.9-8.6-30.8c6,12.2,11.9,24.3,17.9,36.5c-10.9,4.3-24.2,1.7-32.7-6.3
			c1.4,2.9,4.2,5.2,7.4,6c-6.6,2-13.1,4.1-19.7,6.1c8.9,0.6,12.3,11.6,13.5,20.4c-1.2-12.8-0.3-25.8,2.5-38.3
			c4.4,6.8,10,12.8,16.5,17.6c-1.2,7.2-0.2,14.7,2.6,21.4c8.1-0.7,16.2-1.4,24.3-2c-6.8-6.5-12.1-14.5-15.5-23.2
			c9.8,5,18.2,12.5,24.4,21.6c-1.2,0.4-2.6,0.9-2.8,2.2c-0.2,1.2,2.2,1.9,2.1,0.7"/>
		<path class="st17" d="M383.8,577.5c-1.4,7.9,2.4,16.6,9.2,20.8c-1.5,3.9-8.5,3.2-9.2-1c6.3,0.7,11.9,5.8,13.2,12
			c0.2,1,0.3,2.2-0.5,3c-0.7,0.7-1.8,0.7-2.7,0.6c-3.6-0.2-7.2-0.4-10.8-0.6c5.7,2.7,11.6,5.7,15.3,10.8c3.7,5.1,4.1,13.2-0.7,17.2
			c-8-4.7-13.7-13.2-15.1-22.5c-0.4,7.9-0.8,15.9-1.2,23.8c7-3.1,16.4,2.1,17.4,9.7c0-4.5-0.1-9-0.1-13.5c1.2,4.4,2.4,9,1.6,13.5
			c-0.7,4.5-3.9,9-8.4,9.8c-3.3,0.6-7.1-0.7-9.6,1.5c7.1-0.6,14.3,1,20.4,4.7c-5.1,0.9-10.3,1.7-15.3,0.9c-5.1-0.9-10.1-3.9-12-8.7
			c-0.2,8.2,0.4,16.5,2,24.6c9-0.4,17.8-3.7,24.8-9.4c0,7.3-4.7,14.4-11.4,17.4s-15.1,1.7-20.5-3.2c4.4,8.3,13.8,13.5,23.2,12.8
			c-5.2,4.2-13.8,3.1-17.7-2.4c0.1,4.7,0.3,9.4,0.4,14.1c4.4-2.5,9.3-4.2,14.3-5.1c-0.8,3.6-1.5,7.3-2.3,10.9
			c-7.6-1.1-15.4-0.9-22.9,0.8c1.8,3,3.5,6,5.3,9c0.7,1.2,1.6,2.5,3,2.6c1,0.1,1.9-0.5,2.7-1.1c2.5-1.8,5.1-3.6,7.6-5.5
			c-3.6,2.8-8.7,3.6-13,1.9c1.4,7.3-5.4,14.9-12.8,14.4c6.9-0.3,13.9-0.6,20.8-0.9c0.2,6.2,1.3,12.4,3.1,18.3
			c-7.4,2.8-15.2,4.9-23,6.2c-0.5-8.7-0.3-17.5,0.6-26.1c0.9,9.9,1.2,19.9,0.8,29.9c-4.7,0.3-9.4-1.2-13.1-4.1
			c1.8,3.8-3.7,6.7-7.9,7.5s-9.5,4.4-7,7.9c8.6-2,17.6-2.3,26.3-0.9c-1.4-3.9-2.8-7.9-4.3-11.8c1.5,4.9,5.2,9,9.9,11.1
			c-1.6-4.2,3.9-7.9,8.4-7.8c4.5,0.1,9.1,1.9,13.4,0.4c0.3,2.2,0.6,4.3,0.9,6.5c-6-1.3-11.7-4.1-16.3-8c3.6-2.2,6.9-4.9,9.6-8.1
			c3.8,4.4,7.6,8.8,11.4,13.1c3.1-1.2,5-4.8,4.2-7.9c-2.4-0.8-4.7,2.2-4.2,4.6c0.4,2.5,2.4,4.4,4.3,6"/>
		<path class="st17" d="M137.7,207.7c18-20.1,37.2-39.3,57.3-57.3c7.9-7.1,16.2-14.2,25.8-18.8c19.2-9.2,41.5-7.7,62.7-6.1
			c-5.3-12.1-17-21.1-30-23.1c17.1,11.6,34.2,23.3,51.3,34.9c31.6,21.6,64.6,44.5,82,78.6c10.3,20.1,14.4,42.8,18.4,65"/>
		<path class="st17" d="M187.1,806.3c-4.5-3.7-11-5-16.5-3.1c-5.7-4.7-8.5-12.5-7.2-19.7c-7.7,13.8-14,28.4-18.6,43.5
			c14.5,0,29,0.1,43.5,0.1c-2.4-7.6,2.2-16.6,9.7-19.2c-5.9,15.3-7.1,32.3-3.6,48.3c-6.8-2.3-12.9-6.6-17.2-12.3
			c16.6-6.5,32.7-14.2,48.2-23.1c-3.3-1.6-7.2-2.2-10.9-1.6c-0.8-2.3-0.5-5,0.9-7c8.3,5.5,16.7,11.1,25,16.6
			c-4.5,7.5-14.3,11.5-22.8,9.3c-3.7-7.5,5.7-15.1,14-16.2c8.3-1.1,17.8,0,23.9-5.7c1.1,5.8,2.3,11.5,3.4,17.3
			c-7.7-0.4-14.8,6.8-14.4,14.5c15.8,1.7,31.8,1.3,47.5-1.2c-7.8-7-11.2-18.7-8.2-28.8c-8.4,10.6-16.7,21.2-25.1,31.8
			c14.6-3.7,29.8-5.4,44.9-4.8c0.3-11.9,0.5-23.8,0.8-35.7c6.5,1.7,12.9,3.4,19.4,5.1c-2.6,7-6.5,13.5-11.4,19.1
			c4.3,4.3,8.9,8.7,14.8,10.3c5.9,1.6,13.3-0.8,15.1-6.6c0.9-2.9,0.3-6.1-0.4-9.1c-1.9-8.8-3.9-17.6-5.8-26.3
			c8.3,0.3,15.3-5.7,23.2-8c7.9-2.4,19.5,2.7,17.2,10.7c-10.9,3.4-22.8,3.3-33.7-0.3c-1.4-9,4.5-18.5,13.2-21.2s19,2,22.7,10.2
			c6.4-5.5,10.8-13.1,12.6-21.4c-8.6,11.6-17.6,23.6-30.3,30.7c-12.7,7-30.1,7.7-40.4-2.5c9-9.5,26.2-5.7,34.1,4.7
			s8.3,24.7,6.1,37.6c-7.5-6.8-13.5-15.3-17.3-24.6c-11.7,24.4-42.3,31.7-68.9,36.1c-4.8,0.8-10.1,1.6-14.4-0.8
			c-10.7-5.8-5.8-22.8-12.2-33.1c-1.7,18.3-10.3,36-23.5,48.7c-4.9-12.6-8.9-25.5-12-38.7c-9.4,15.3-32.5,19.9-47,9.3
			c17.1-8.2,32.9-19.1,46.7-32.2c-11.8-7.9-31.7,6.6-40.6-4.5c-1.6-2-2.4-4.5-4.2-6.3c-7.9-7.8-18.1,3.8-26.4,1.6
			c-10.4-2.8-9.6-20-20.5-16.4c8.7-22.9,35.5,17,8.7,11.8C137.8,803,180.7,831.1,187.1,806.3z"/>
	</g>
	<g>
		<path class="st18" d="M114.1,338.9c-1.6,26.3,1.4,52.9,9,78.1c7.3,24.2,19.9,48.5,41.9,61.2c17.9,10.3,39.4,11.5,60,12
			c30.8,0.9,61.7,1,92.5,0.4c16.7-0.3,34.4-1.1,48.4-10.3c11.1-7.3,18.4-19,24.4-30.8c23.3-46.3,30.1-100.7,18.8-151.2"/>
		<path class="st18" d="M383.4,470c-24.4,38.5-18.4,93.6,13.6,126"/>
		<path class="st18" d="M104.8,582.5c-23.5-4.9-43.3,23.8-38,47.3c5.3,23.4,26.6,39.8,48.3,50.2c35.8,17.1,75.6,23.5,115,28.7
			c33.7,4.4,69.3,7.9,100.5-5.5c30.9-13.3,52.9-41.5,69.4-70.8c5.4-9.7,10.6-20.1,10.7-31.2c0.2-11.1-6-23.1-16.7-26.1"/>
		<path class="st18" d="M316.5,228.3c18.2-22.7,59-20.6,74.8,3.8c-21.8-17.3-49.6-27-77.4-27.1c-5.3,0-11.1,0.5-14.9,4.2
			c-8.8,8.5,0.6,23.8-3.3,35.4c22.4-1.3,44.9,0.4,66.9,5.1c-7.7-0.7-15.3-1.3-23-2c-3.3,4.1-10.1,4.9-14.2,1.6
			c5.5-7.1,17.9-7.3,23.6-0.3c4.1,5.1,5.6,13.2,11.8,15c2.1,0.6,4.3,0.3,6.4,0c9.7-1.3,19.5-2.7,29.2-4c-4.4-0.5-8.8-1-13.2-1.5
			c3.2,5.3,6.4,10.5,9.6,15.8c-7.9-15.5-28.3-19.2-45.6-18.8s-36.3,2.7-50.7-7.1c27.6-8.4,58.6-4.8,83.6,9.7
			c-3.8-13.2-16.6-22.1-30-25.3c-13.3-3.1-27.3-1.5-40.9,0.2c-5.2,0.6-11.3,1.8-13.7,6.5c-1.2,2.4-1.2,5.2-1.1,7.8
			c0.2,11.8,0.5,23.5,0.7,35.3c13.3,4.8,19.6,22.9,12.3,34.9c-7.3,12-26.3,14.7-36.7,5.1c11,2.2,23.1-4.1,27.6-14.3
			c-11.6-2.4-23.1,6.2-28.2,16.8c-5,10.7-5.1,22.9-5.1,34.7c-12.9-1.1-26.3-2.1-38.4,2.6c-12,4.7-22.1,17.2-19.7,29.9
			c0.9,4.7,34.6,1.9,38.5,1.3c5.8-0.8,11.5-2.9,17.2-3.5c6.6-0.7,13.6,0,20.3-0.1c1.5,0,3-0.1,4.2-1c1-0.8,1.7-2.1,2.7-2.9
			c0.8,1.9,2.2,4.9,4.6,5.2c1.3,0.2,2.6-0.5,3.7-1.2c6.8-4.1,17.8-4.4,25.4-5.4c0.2,9.2-14.9,11.3-21.6,11.6
			c-33.3,1.3-66.6,2.6-99.8,3.9c0.8-4.1-1.5-8.6-5.3-10.4c9.1-17.4,31.9-21,51.4-22.7c31.1-2.6,66.2-3.9,89.1,17.2
			c-23.9,19.1-56.3,22.4-86.7,24.9c-22.8,1.9-50.7,1.3-62.1-18.5c3.7,20.5,28.7,28.8,49.5,30c35.3,2,73.5-6.4,97.1-32.6
			c-18.3-26.6-53.9-35.5-86.2-34.9c-11.3,0.2-23,1.4-32.8,7c-12.7,7.1-20.7,20.2-28.1,32.7c-12.4-17.9-1.7-42.5,11.3-59.9
			c13-17.5,29.1-36.1,26.8-57.7c-20.7,2.3-41.7,3-62.5,2.3c21.6,8.2,48.6-2.4,59-23.1c-14.5-0.6-29-1.3-43.5-2
			c2.9-5.6,13.7-1,11.7,5c-5.1,1.8-12.7,0.6-13.2-4.8c-0.5-6.6,9.4-7.5,15.8-5.7c10.2,2.8,20.4,5.7,30.7,8.5
			c-25.3,7.6-52,10.9-78.4,9.6c3.1-16.5,22-25.5,38.8-25.6s33.1,6,49.8,7.4c12.9-62.4-92.3-41.4-111.4-3.4
			c-16.3,32.5-19.1,73.9-17.1,109.6c0.8,13.8,7.4,99.9,22.1,104.2c-21.2-6.1-40.2,17.1-43.4,38.9c-1.9,13.4-0.3,27.8,7.2,39
			c7.5,11.2,21.7,18.5,34.9,15.4c20.8-4.9,28.8-32.7,20.2-52.3c-6.3-14.3-22.1-26.1-37-21.5c-14.9,4.6-18.2,30.6-3.1,34.7
			c11.7,3.2,22.8-9.4,23.2-21.6c0.4-12.2-6.1-23.3-11.9-34c-39.2-73.5-46.9-163.1-20.9-242.2c8.1-24.6,19.5-48.5,37-67.6
			c24.6-26.7,59.8-42,95.5-48.7c22.1-4.1,45.1-5.3,66.9,0c43.7,10.6,77.9,46.2,98,86.4c20,40.2,28,85.3,35.7,129.5
			c-17.7-57.8-35.4-115.6-53.1-173.4c-5.1-16.7-10.6-34-22.6-46.6c-26-27.4-70.7-22.3-106.8-11.1c-26.7,8.3-52.8,18.8-77.8,31.3
			c-12.7,6.3-25.2,13.3-35.5,23c-13.3,12.6-22.1,29.1-29,46c-34.3,83.1-27.6,177-16.3,266.2c-44.2-96.8-37.2-215.4,18.2-306.3
			c33.8-55.4,96-107.4,165.1-96.7c41.1,6.4,75.7,34,104.2,64.2c46.8,49.7,83.7,111.1,93.4,178.6c9.7,67.6-11,141.4-62.7,186.1
			c37,4.2,69.5-30.2,76.4-66.7c6.9-36.6-5.2-73.9-18.4-108.6c-18.8-49.4-40.3-97.8-64.3-144.9c40.8,90.8,48,196.3,19.9,291.8
			c-2.8-30.9,15.1-59.2,25.4-88.4c14.1-39.6,14.4-83.8,1-123.6"/>
		<path class="st18" d="M248.6,322.8c0-2.6-2.2-4.9-4.7-5.8c-2.5-0.9-5.2-0.8-7.8-0.7c-0.9,0-1.9,0.1-2.6,0.6
			c-2.1,1.6,0,5.1,2.5,5.9c2.5,0.7,5.4,0.2,7.7,1.5"/>
		<path class="st18" d="M115.9,575.9c6.2,0.5,12.4-0.4,18.2-2.7c-5.4,1.6-10.4,4.3-14.7,7.8c3,5.6,4.5,11.9,4.4,18.3
			c-4.7,1.9-9.8,3-14.9,3.1c7.9,0.3,15.8-0.4,23.6-2c-7.4,1.9-14.9,3.9-22.3,5.8c4.4,5.5,10.4,9.7,17.1,11.9
			c0.6-5.1,2.4-10,5.3-14.2c-6.8,7.9-12.7,16.5-17.6,25.7c3.1-2.9,0.5-9.4-3.8-9.3c7.3-0.3,14.7,2.3,20.1,7.2
			c0.5-3.8,0.9-7.6,1.4-11.4c-4,5.7-7.9,11.5-11.9,17.2c-1.9,2.8-6.2,5.7-8,2.8c3.5,5,8.4,9,13.9,11.5c2.4-4.6,4.8-9.2,7.2-13.8
			c-1.9,5.7-4.5,11.2-7.7,16.4c-2,3.3-6.9,6.7-9.1,3.5c7.1,0.7,14.2,1.2,21.3,1.7c-4.5,0.5-9,1-13.5,1.6c-1.9,0.2-4,0.5-5.3,1.9
			c-3.8,4.1,3,10.1,2.4,15.6c6.9-2,13.2-5.7,18.3-10.8c-1.5,4.3-3.1,8.8-6.4,12c-3.3,3.2-8.8,4.7-12.5,2c-1.4,6.2-1.2,12.8,0.7,18.8
			c4-8.4,11.9-14.8,21-16.8c-0.2,5.4,0.4,10.7,1.6,15.9c-4.6,4.3-10.7,8-17,7.2c-6.3-0.8-11.8-8-8.8-13.6
			c6.5,9.8,13.4,19.3,20.9,28.4c1.6-6.3,3.2-12.6,4.8-18.9c-8.6,11.1-14,24.5-15.6,38.4c3.4-3.3,9-3.3,13.2-1.2s7.4,5.8,10.5,9.3
			c0.7-10.8-2.3-21.9-8.6-30.8c6,12.2,11.9,24.3,17.9,36.5c-10.9,4.3-24.2,1.7-32.7-6.3c1.4,2.9,4.2,5.2,7.4,6
			c-6.6,2-13.1,4.1-19.7,6.1c8.9,0.6,12.3,11.6,13.5,20.4c-1.2-12.8-0.3-25.8,2.5-38.3c4.4,6.8,10,12.8,16.5,17.6
			c-1.2,7.2-0.2,14.7,2.6,21.4c8.1-0.7,16.2-1.4,24.3-2c-6.8-6.5-12.1-14.5-15.5-23.2c9.8,5,18.2,12.5,24.4,21.6
			c-1.2,0.4-2.6,0.9-2.8,2.2s2.2,1.9,2.1,0.7"/>
		<path class="st18" d="M390.1,577.5c-1.4,7.9,2.4,16.6,9.2,20.8c-1.5,3.9-8.5,3.2-9.2-1c6.3,0.7,11.9,5.8,13.2,12
			c0.2,1,0.3,2.2-0.5,3c-0.7,0.7-1.8,0.7-2.7,0.6c-3.6-0.2-7.2-0.4-10.8-0.6c5.7,2.7,11.6,5.7,15.3,10.8c3.7,5.1,4.1,13.2-0.7,17.2
			c-8-4.7-13.7-13.2-15.1-22.5c-0.4,7.9-0.8,15.9-1.2,23.8c7-3.1,16.4,2.1,17.4,9.7c0-4.5-0.1-9-0.1-13.5c1.2,4.4,2.4,9,1.6,13.5
			c-0.7,4.5-3.9,9-8.4,9.8c-3.3,0.6-7.1-0.7-9.6,1.5c7.1-0.6,14.3,1,20.4,4.7c-5.1,0.9-10.3,1.7-15.3,0.9c-5.1-0.9-10.1-3.9-12-8.7
			c-0.2,8.2,0.4,16.5,2,24.6c9-0.4,17.8-3.7,24.8-9.4c0,7.3-4.7,14.4-11.4,17.4c-6.7,3-15.1,1.7-20.5-3.2
			c4.4,8.3,13.8,13.5,23.2,12.8c-5.2,4.2-13.8,3.1-17.7-2.4c0.1,4.7,0.3,9.4,0.4,14.1c4.4-2.5,9.3-4.2,14.3-5.1
			c-0.8,3.6-1.5,7.3-2.3,10.9c-7.6-1.1-15.4-0.9-22.9,0.8c1.8,3,3.5,6,5.3,9c0.7,1.2,1.6,2.5,3,2.6c1,0.1,1.9-0.5,2.7-1.1
			c2.5-1.8,5.1-3.6,7.6-5.5c-3.6,2.8-8.7,3.6-13,1.9c1.4,7.3-5.4,14.9-12.8,14.4c6.9-0.3,13.9-0.6,20.8-0.9
			c0.2,6.2,1.3,12.4,3.1,18.3c-7.4,2.8-15.2,4.9-23,6.2c-0.5-8.7-0.3-17.5,0.6-26.1c0.9,9.9,1.2,19.9,0.8,29.9
			c-4.7,0.3-9.4-1.2-13.1-4.1c1.8,3.8-3.7,6.7-7.9,7.5s-9.5,4.4-7,7.9c8.6-2,17.6-2.3,26.3-0.9c-1.4-3.9-2.8-7.9-4.3-11.8
			c1.5,4.9,5.2,9,9.9,11.1c-1.6-4.2,3.9-7.9,8.4-7.8c4.5,0.1,9.1,1.9,13.4,0.4c0.3,2.2,0.6,4.3,0.9,6.5c-6-1.3-11.7-4.1-16.3-8
			c3.6-2.2,6.9-4.9,9.6-8.1c3.8,4.4,7.6,8.8,11.4,13.1c3.1-1.2,5-4.8,4.2-7.9c-2.4-0.8-4.7,2.2-4.2,4.6s2.4,4.4,4.3,6"/>
		<path class="st18" d="M143.9,207.8c18-20.1,37.2-39.3,57.3-57.3c7.9-7.1,16.2-14.2,25.8-18.8c19.2-9.2,41.5-7.7,62.7-6.1
			c-5.3-12.1-17-21.1-30-23.1c17.1,11.6,34.2,23.3,51.3,34.9c31.6,21.6,64.6,44.5,82,78.6c10.3,20.1,14.4,42.8,18.4,65"/>
		<path class="st18" d="M193.4,806.3c-4.5-3.7-11-5-16.5-3.1c-5.7-4.7-8.5-12.5-7.2-19.7c-7.7,13.8-14,28.4-18.6,43.5
			c14.5,0,29,0.1,43.5,0.1c-2.4-7.6,2.2-16.6,9.7-19.2c-5.9,15.3-7.1,32.3-3.6,48.3c-6.8-2.3-12.9-6.6-17.2-12.3
			c16.6-6.5,32.7-14.2,48.2-23.1c-3.3-1.6-7.2-2.2-10.9-1.6c-0.8-2.3-0.5-5,0.9-7c8.3,5.5,16.7,11.1,25,16.6
			c-4.5,7.5-14.3,11.5-22.8,9.3c-3.7-7.5,5.7-15.1,14-16.2c8.3-1.1,17.8,0,23.9-5.7c1.1,5.8,2.3,11.5,3.4,17.3
			c-7.7-0.4-14.8,6.8-14.4,14.5c15.8,1.7,31.8,1.3,47.5-1.2c-7.8-7-11.2-18.7-8.2-28.8c-8.4,10.6-16.7,21.2-25.1,31.8
			c14.6-3.7,29.8-5.4,44.9-4.8c0.3-11.9,0.5-23.8,0.8-35.7c6.5,1.7,12.9,3.4,19.4,5.1c-2.6,7-6.5,13.5-11.4,19.1
			c4.3,4.3,8.9,8.7,14.8,10.3c5.9,1.6,13.3-0.8,15.1-6.6c0.9-2.9,0.3-6.1-0.4-9.1c-1.9-8.8-3.9-17.6-5.8-26.3
			c8.3,0.3,15.3-5.7,23.2-8s19.5,2.7,17.2,10.7c-10.9,3.4-22.8,3.3-33.7-0.3c-1.4-9,4.5-18.5,13.2-21.2c8.7-2.6,19,2,22.7,10.2
			c6.4-5.5,10.8-13.1,12.6-21.4c-8.6,11.6-17.6,23.6-30.3,30.7c-12.7,7-30.1,7.7-40.4-2.5c9-9.5,26.2-5.7,34.1,4.7
			c7.9,10.4,8.3,24.7,6.1,37.6c-7.5-6.8-13.5-15.3-17.3-24.6c-11.7,24.4-42.3,31.7-68.9,36.1c-4.8,0.8-10.1,1.6-14.4-0.8
			c-10.7-5.8-5.8-22.8-12.2-33.1c-1.7,18.3-10.3,36-23.5,48.7c-4.9-12.6-8.9-25.5-12-38.7c-9.4,15.3-32.5,19.9-47,9.3
			c17.1-8.2,32.9-19.1,46.7-32.2c-11.8-7.9-31.7,6.6-40.6-4.5c-1.6-2-2.4-4.5-4.2-6.3c-7.9-7.8-18.1,3.8-26.4,1.6
			c-10.4-2.8-9.6-20-20.5-16.4c8.7-22.9,35.5,17,8.7,11.8C144,803.1,186.9,831.1,193.4,806.3z"/>
	</g>
	<g>
		<path class="st19" d="M103.2,339.3c-1.6,26.3,1.4,52.9,9,78.1c7.3,24.2,19.9,48.5,41.9,61.2c17.9,10.3,39.4,11.5,60,12
			c30.8,0.9,61.7,1,92.5,0.4c16.7-0.3,34.4-1.1,48.4-10.3c11.1-7.3,18.4-19,24.4-30.8c23.3-46.3,30.1-100.7,18.8-151.2"/>
		<path class="st19" d="M372.4,470.4c-24.4,38.5-18.4,93.6,13.6,126"/>
		<path class="st19" d="M93.8,582.9c-23.5-4.9-43.3,23.8-38,47.3c5.3,23.4,26.6,39.8,48.3,50.2c35.8,17.1,75.6,23.5,115,28.7
			c33.7,4.4,69.3,7.9,100.5-5.5c30.9-13.3,52.9-41.5,69.4-70.8c5.4-9.7,10.6-20.1,10.7-31.2c0.2-11.1-6-23.1-16.7-26.1"/>
		<path class="st19" d="M305.5,228.6c18.2-22.7,59-20.6,74.8,3.8c-21.8-17.3-49.6-27-77.4-27.1c-5.3,0-11.1,0.5-14.9,4.2
			c-8.8,8.5,0.6,23.8-3.3,35.4c22.4-1.3,44.9,0.4,66.9,5.1c-7.7-0.7-15.3-1.3-23-2c-3.3,4.1-10.1,4.9-14.2,1.6
			c5.5-7.1,17.9-7.3,23.6-0.3c4.1,5.1,5.6,13.2,11.8,15c2.1,0.6,4.3,0.3,6.4,0c9.7-1.3,19.5-2.7,29.2-4c-4.4-0.5-8.8-1-13.2-1.5
			c3.2,5.3,6.4,10.5,9.6,15.8c-7.9-15.5-28.3-19.2-45.6-18.8s-36.3,2.7-50.7-7.1c27.6-8.4,58.6-4.8,83.6,9.7
			c-3.8-13.2-16.6-22.1-30-25.3c-13.3-3.1-27.3-1.5-40.9,0.2c-5.2,0.6-11.3,1.8-13.7,6.5c-1.2,2.4-1.2,5.2-1.1,7.8
			c0.2,11.8,0.5,23.5,0.7,35.3c13.3,4.8,19.6,22.9,12.3,34.9c-7.3,12-26.3,14.7-36.7,5.1c11,2.2,23.1-4.1,27.6-14.3
			c-11.6-2.4-23.1,6.2-28.2,16.8c-5,10.7-5.1,22.9-5.1,34.7c-12.9-1.1-26.3-2.1-38.4,2.6c-12,4.7-22.1,17.2-19.7,29.9
			c0.9,4.7,34.6,1.9,38.5,1.3c5.8-0.8,11.5-2.9,17.2-3.5c6.6-0.7,13.6,0,20.3-0.1c1.5,0,3-0.1,4.2-1c1-0.8,1.7-2.1,2.7-2.9
			c0.8,1.9,2.2,4.9,4.6,5.2c1.3,0.2,2.6-0.5,3.7-1.2c6.8-4.1,17.8-4.4,25.4-5.4c0.2,9.2-14.9,11.3-21.6,11.6
			c-33.3,1.3-66.6,2.6-99.8,3.9c0.8-4.1-1.5-8.6-5.3-10.4c9.1-17.4,31.9-21,51.4-22.7c31.1-2.6,66.2-3.9,89.1,17.2
			c-23.9,19.1-56.3,22.4-86.7,24.9c-22.8,1.9-50.7,1.3-62.1-18.5c3.7,20.5,28.7,28.8,49.5,30c35.3,2,73.5-6.4,97.1-32.6
			c-18.3-26.6-53.9-35.5-86.2-34.9c-11.3,0.2-23,1.4-32.8,7c-12.7,7.1-20.7,20.2-28.1,32.7c-12.4-17.9-1.7-42.5,11.3-59.9
			c13-17.5,29.1-36.1,26.8-57.7c-20.7,2.3-41.7,3-62.5,2.3c21.6,8.2,48.6-2.4,59-23.1c-14.5-0.6-29-1.3-43.5-2
			c2.9-5.6,13.7-1,11.7,5c-5.1,1.8-12.7,0.6-13.2-4.8c-0.5-6.6,9.4-7.5,15.8-5.7c10.2,2.8,20.4,5.7,30.7,8.5
			c-25.3,7.6-52,10.9-78.4,9.6c3.1-16.5,22-25.5,38.8-25.6c16.8-0.1,33.1,6,49.8,7.4c12.9-62.4-92.3-41.4-111.4-3.4
			c-16.3,32.5-19.1,73.9-17.1,109.6c0.8,13.8,7.4,99.9,22.1,104.2c-21.2-6.1-40.2,17.1-43.4,38.9c-1.9,13.4-0.3,27.8,7.2,39
			c7.5,11.2,21.7,18.5,34.9,15.4c20.8-4.9,28.8-32.7,20.2-52.3c-6.3-14.3-22.1-26.1-37-21.5c-14.9,4.6-18.2,30.6-3.1,34.7
			c11.7,3.2,22.8-9.4,23.2-21.6c0.4-12.2-6.1-23.3-11.9-34c-39.2-73.5-46.9-163.1-20.9-242.2c8.1-24.6,19.5-48.5,37-67.6
			c24.6-26.7,59.8-42,95.5-48.7c22.1-4.1,45.1-5.3,66.9,0c43.7,10.6,77.9,46.2,98,86.4c20,40.2,28,85.3,35.7,129.5
			c-17.7-57.8-35.4-115.6-53.1-173.4c-5.1-16.7-10.6-34-22.6-46.6c-26-27.4-70.7-22.3-106.8-11.1c-26.7,8.3-52.8,18.8-77.8,31.3
			c-12.7,6.3-25.2,13.3-35.5,23c-13.3,12.6-22.1,29.1-29,46c-34.3,83.1-27.6,177-16.3,266.2C33.8,352.5,40.9,233.9,96.3,143
			c33.8-55.4,96-107.4,165.1-96.7c41.1,6.4,75.7,34,104.2,64.2c46.8,49.7,83.7,111.1,93.4,178.6c9.7,67.6-11,141.4-62.7,186.1
			c37,4.2,69.5-30.2,76.4-66.7c6.9-36.6-5.2-73.9-18.4-108.6c-18.8-49.4-40.3-97.8-64.3-144.9c40.8,90.8,48,196.3,19.9,291.8
			c-2.8-30.9,15.1-59.2,25.4-88.4c14.1-39.6,14.4-83.8,1-123.6"/>
		<path class="st19" d="M237.6,323.2c0-2.6-2.2-4.9-4.7-5.8s-5.2-0.8-7.8-0.7c-0.9,0-1.9,0.1-2.6,0.6c-2.1,1.6,0,5.1,2.5,5.9
			c2.5,0.7,5.4,0.2,7.7,1.5"/>
		<path class="st19" d="M104.9,576.2c6.2,0.5,12.4-0.4,18.2-2.7c-5.4,1.6-10.4,4.3-14.7,7.8c3,5.6,4.5,11.9,4.4,18.3
			c-4.7,1.9-9.8,3-14.9,3.1c7.9,0.3,15.8-0.4,23.6-2c-7.4,1.9-14.9,3.9-22.3,5.8c4.4,5.5,10.4,9.7,17.1,11.9
			c0.6-5.1,2.4-10,5.3-14.2c-6.8,7.9-12.7,16.5-17.6,25.7c3.1-2.9,0.5-9.4-3.8-9.3c7.3-0.3,14.7,2.3,20.1,7.2
			c0.5-3.8,0.9-7.6,1.4-11.4c-4,5.7-7.9,11.5-11.9,17.2c-1.9,2.8-6.2,5.7-8,2.8c3.5,5,8.4,9,13.9,11.5c2.4-4.6,4.8-9.2,7.2-13.8
			c-1.9,5.7-4.5,11.2-7.7,16.4c-2,3.3-6.9,6.7-9.1,3.5c7.1,0.7,14.2,1.2,21.3,1.7c-4.5,0.5-9,1-13.5,1.6c-1.9,0.2-4,0.5-5.3,1.9
			c-3.8,4.1,3,10.1,2.4,15.6c6.9-2,13.2-5.7,18.3-10.8c-1.5,4.3-3.1,8.8-6.4,12s-8.8,4.7-12.5,2c-1.4,6.2-1.2,12.8,0.7,18.8
			c4-8.4,11.9-14.8,21-16.8c-0.2,5.4,0.4,10.7,1.6,15.9c-4.6,4.3-10.7,8-17,7.2c-6.3-0.8-11.8-8-8.8-13.6
			c6.5,9.8,13.4,19.3,20.9,28.4c1.6-6.3,3.2-12.6,4.8-18.9c-8.6,11.1-14,24.5-15.6,38.4c3.4-3.3,9-3.3,13.2-1.2
			c4.2,2.1,7.4,5.8,10.5,9.3c0.7-10.8-2.3-21.9-8.6-30.8c6,12.2,11.9,24.3,17.9,36.5c-10.9,4.3-24.2,1.7-32.7-6.3
			c1.4,2.9,4.2,5.2,7.4,6c-6.6,2-13.1,4.1-19.7,6.1c8.9,0.6,12.3,11.6,13.5,20.4c-1.2-12.8-0.3-25.8,2.5-38.3
			c4.4,6.8,10,12.8,16.5,17.6c-1.2,7.2-0.2,14.7,2.6,21.4c8.1-0.7,16.2-1.4,24.3-2c-6.8-6.5-12.1-14.5-15.5-23.2
			c9.8,5,18.2,12.5,24.4,21.6c-1.2,0.4-2.6,0.9-2.8,2.2s2.2,1.9,2.1,0.7"/>
		<path class="st19" d="M379.1,577.9c-1.4,7.9,2.4,16.6,9.2,20.8c-1.5,3.9-8.5,3.2-9.2-1c6.3,0.7,11.9,5.8,13.2,12
			c0.2,1,0.3,2.2-0.5,3c-0.7,0.7-1.8,0.7-2.7,0.6c-3.6-0.2-7.2-0.4-10.8-0.6c5.7,2.7,11.6,5.7,15.3,10.8c3.7,5.1,4.1,13.2-0.7,17.2
			c-8-4.7-13.7-13.2-15.1-22.5c-0.4,7.9-0.8,15.9-1.2,23.8c7-3.1,16.4,2.1,17.4,9.7c0-4.5-0.1-9-0.1-13.5c1.2,4.4,2.4,9,1.6,13.5
			c-0.7,4.5-3.9,9-8.4,9.8c-3.3,0.6-7.1-0.7-9.6,1.5c7.1-0.6,14.3,1,20.4,4.7c-5.1,0.9-10.3,1.7-15.3,0.9c-5.1-0.9-10.1-3.9-12-8.7
			c-0.2,8.2,0.4,16.5,2,24.6c9-0.4,17.8-3.7,24.8-9.4c0,7.3-4.7,14.4-11.4,17.4c-6.7,3-15.1,1.7-20.5-3.2
			c4.4,8.3,13.8,13.5,23.2,12.8c-5.2,4.2-13.8,3.1-17.7-2.4c0.1,4.7,0.3,9.4,0.4,14.1c4.4-2.5,9.3-4.2,14.3-5.1
			c-0.8,3.6-1.5,7.3-2.3,10.9c-7.6-1.1-15.4-0.9-22.9,0.8c1.8,3,3.5,6,5.3,9c0.7,1.2,1.6,2.5,3,2.6c1,0.1,1.9-0.5,2.7-1.1
			c2.5-1.8,5.1-3.6,7.6-5.5c-3.6,2.8-8.7,3.6-13,1.9c1.4,7.3-5.4,14.9-12.8,14.4c6.9-0.3,13.9-0.6,20.8-0.9
			c0.2,6.2,1.3,12.4,3.1,18.3c-7.4,2.8-15.2,4.9-23,6.2c-0.5-8.7-0.3-17.5,0.6-26.1c0.9,9.9,1.2,19.9,0.8,29.9
			c-4.7,0.3-9.4-1.2-13.1-4.1c1.8,3.8-3.7,6.7-7.9,7.5s-9.5,4.4-7,7.9c8.6-2,17.6-2.3,26.3-0.9c-1.4-3.9-2.8-7.9-4.3-11.8
			c1.5,4.9,5.2,9,9.9,11.1c-1.6-4.2,3.9-7.9,8.4-7.8c4.5,0.1,9.1,1.9,13.4,0.4c0.3,2.2,0.6,4.3,0.9,6.5c-6-1.3-11.7-4.1-16.3-8
			c3.6-2.2,6.9-4.9,9.6-8.1c3.8,4.4,7.6,8.8,11.4,13.1c3.1-1.2,5-4.8,4.2-7.9c-2.4-0.8-4.7,2.2-4.2,4.6s2.4,4.4,4.3,6"/>
		<path class="st19" d="M132.9,208.1c18-20.1,37.2-39.3,57.3-57.3c7.9-7.1,16.2-14.2,25.8-18.8c19.2-9.2,41.5-7.7,62.7-6.1
			c-5.3-12.1-17-21.1-30-23.1c17.1,11.6,34.2,23.3,51.3,34.9c31.6,21.6,64.6,44.5,82,78.6c10.3,20.1,14.4,42.8,18.4,65"/>
		<path class="st19" d="M182.4,806.7c-4.5-3.7-11-5-16.5-3.1c-5.7-4.7-8.5-12.5-7.2-19.7c-7.7,13.8-14,28.4-18.6,43.5
			c14.5,0,29,0.1,43.5,0.1c-2.4-7.6,2.2-16.6,9.7-19.2c-5.9,15.3-7.1,32.3-3.6,48.3c-6.8-2.3-12.9-6.6-17.2-12.3
			c16.6-6.5,32.7-14.2,48.2-23.1c-3.3-1.6-7.2-2.2-10.9-1.6c-0.8-2.3-0.5-5,0.9-7c8.3,5.5,16.7,11.1,25,16.6
			c-4.5,7.5-14.3,11.5-22.8,9.3c-3.7-7.5,5.7-15.1,14-16.2c8.3-1.1,17.8,0,23.9-5.7c1.1,5.8,2.3,11.5,3.4,17.3
			c-7.7-0.4-14.8,6.8-14.4,14.5c15.8,1.7,31.8,1.3,47.5-1.2c-7.8-7-11.2-18.7-8.2-28.8c-8.4,10.6-16.7,21.2-25.1,31.8
			c14.6-3.7,29.8-5.4,44.9-4.8c0.3-11.9,0.5-23.8,0.8-35.7c6.5,1.7,12.9,3.4,19.4,5.1c-2.6,7-6.5,13.5-11.4,19.1
			c4.3,4.3,8.9,8.7,14.8,10.3c5.9,1.6,13.3-0.8,15.1-6.6c0.9-2.9,0.3-6.1-0.4-9.1c-1.9-8.8-3.9-17.6-5.8-26.3
			c8.3,0.3,15.3-5.7,23.2-8c7.9-2.4,19.5,2.7,17.2,10.7c-10.9,3.4-22.8,3.3-33.7-0.3c-1.4-9,4.5-18.5,13.2-21.2
			c8.7-2.6,19,2,22.7,10.2c6.4-5.5,10.8-13.1,12.6-21.4c-8.6,11.6-17.6,23.6-30.3,30.7c-12.7,7-30.1,7.7-40.4-2.5
			c9-9.5,26.2-5.7,34.1,4.7c7.9,10.4,8.3,24.7,6.1,37.6c-7.5-6.8-13.5-15.3-17.3-24.6c-11.7,24.4-42.3,31.7-68.9,36.1
			c-4.8,0.8-10.1,1.6-14.4-0.8c-10.7-5.8-5.8-22.8-12.2-33.1c-1.7,18.3-10.3,36-23.5,48.7c-4.9-12.6-8.9-25.5-12-38.7
			c-9.4,15.3-32.5,19.9-47,9.3c17.1-8.2,32.9-19.1,46.7-32.2c-11.8-7.9-31.7,6.6-40.6-4.5c-1.6-2-2.4-4.5-4.2-6.3
			c-7.9-7.8-18.1,3.8-26.4,1.6c-10.4-2.8-9.6-20-20.5-16.4c8.7-22.9,35.5,17,8.7,11.8C133.1,803.5,175.9,831.5,182.4,806.7z"/>
	</g>
	<g>
		<path class="st20" d="M108.4,335.8c-1.6,26.3,1.4,52.9,9,78.1c7.3,24.2,19.9,48.5,41.9,61.2c17.9,10.3,39.4,11.5,60,12
			c30.8,0.9,61.7,1,92.5,0.4c16.7-0.3,34.4-1.1,48.4-10.3c11.1-7.3,18.4-19,24.4-30.8c23.3-46.3,30.1-100.7,18.8-151.2"/>
		<path class="st20" d="M377.6,466.9c-24.4,38.5-18.4,93.6,13.6,126"/>
		<path class="st20" d="M99,579.4c-23.5-4.9-43.3,23.8-38,47.3c5.3,23.4,26.6,39.8,48.3,50.2c35.8,17.1,75.6,23.5,115,28.7
			c33.7,4.4,69.3,7.9,100.5-5.5c30.9-13.3,52.9-41.5,69.4-70.8c5.4-9.7,10.6-20.1,10.7-31.2c0.2-11.1-6-23.1-16.7-26.1"/>
		<path class="st20" d="M310.7,225.2c18.2-22.7,59-20.6,74.8,3.8c-21.8-17.3-49.6-27-77.4-27.1c-5.3,0-11.1,0.5-14.9,4.2
			c-8.8,8.5,0.6,23.8-3.3,35.4c22.4-1.3,44.9,0.4,66.9,5.1c-7.7-0.7-15.3-1.3-23-2c-3.3,4.1-10.1,4.9-14.2,1.6
			c5.5-7.1,17.9-7.3,23.6-0.3c4.1,5.1,5.6,13.2,11.8,15c2.1,0.6,4.3,0.3,6.4,0c9.7-1.3,19.5-2.7,29.2-4c-4.4-0.5-8.8-1-13.2-1.5
			c3.2,5.3,6.4,10.5,9.6,15.8c-7.9-15.5-28.3-19.2-45.6-18.8s-36.3,2.7-50.7-7.1c27.6-8.4,58.6-4.8,83.6,9.7
			c-3.8-13.2-16.6-22.1-30-25.3c-13.3-3.1-27.3-1.5-40.9,0.2c-5.2,0.6-11.3,1.8-13.7,6.5c-1.2,2.4-1.2,5.2-1.1,7.8
			c0.2,11.8,0.5,23.5,0.7,35.3c13.3,4.8,19.6,22.9,12.3,34.9s-26.3,14.7-36.7,5.1c11,2.2,23.1-4.1,27.6-14.3
			c-11.6-2.4-23.1,6.2-28.2,16.8c-5,10.7-5.1,22.9-5.1,34.7c-12.9-1.1-26.3-2.1-38.4,2.6c-12,4.7-22.1,17.2-19.7,29.9
			c0.9,4.7,34.6,1.9,38.5,1.3c5.8-0.8,11.5-2.9,17.2-3.5c6.6-0.7,13.6,0,20.3-0.1c1.5,0,3-0.1,4.2-1c1-0.8,1.7-2.1,2.7-2.9
			c0.8,1.9,2.2,4.9,4.6,5.2c1.3,0.2,2.6-0.5,3.7-1.2c6.8-4.1,17.8-4.4,25.4-5.4c0.2,9.2-14.9,11.3-21.6,11.6
			c-33.3,1.3-66.6,2.6-99.8,3.9c0.8-4.1-1.5-8.6-5.3-10.4c9.1-17.4,31.9-21,51.4-22.7c31.1-2.6,66.2-3.9,89.1,17.2
			c-23.9,19.1-56.3,22.4-86.7,24.9c-22.8,1.9-50.7,1.3-62.1-18.5c3.7,20.5,28.7,28.8,49.5,30c35.3,2,73.5-6.4,97.1-32.6
			c-18.3-26.6-53.9-35.5-86.2-34.9c-11.3,0.2-23,1.4-32.8,7c-12.7,7.1-20.7,20.2-28.1,32.7c-12.4-17.9-1.7-42.5,11.3-59.9
			c13-17.5,29.1-36.1,26.8-57.7c-20.7,2.3-41.7,3-62.5,2.3c21.6,8.2,48.6-2.4,59-23.1c-14.5-0.6-29-1.3-43.5-2
			c2.9-5.6,13.7-1,11.7,5c-5.1,1.8-12.7,0.6-13.2-4.8c-0.5-6.6,9.4-7.5,15.8-5.7c10.2,2.8,20.4,5.7,30.7,8.5
			c-25.3,7.6-52,10.9-78.4,9.6c3.1-16.5,22-25.5,38.8-25.6s33.1,6,49.8,7.4c12.9-62.4-92.3-41.4-111.4-3.4
			c-16.3,32.5-19.1,73.9-17.1,109.6c0.8,13.8,7.4,99.9,22.1,104.2c-21.2-6.1-40.2,17.1-43.4,38.9c-1.9,13.4-0.3,27.8,7.2,39
			c7.5,11.2,21.7,18.5,34.9,15.4c20.8-4.9,28.8-32.7,20.2-52.3c-6.3-14.3-22.1-26.1-37-21.5c-14.9,4.6-18.2,30.6-3.1,34.7
			c11.7,3.2,22.8-9.4,23.2-21.6c0.4-12.2-6.1-23.3-11.9-34c-39.2-73.5-46.9-163.1-20.9-242.2c8.1-24.6,19.5-48.5,37-67.6
			c24.6-26.7,59.8-42,95.5-48.7c22.1-4.1,45.1-5.3,66.9,0c43.7,10.6,77.9,46.2,98,86.4c20,40.2,28,85.3,35.7,129.5
			C406.7,252.6,389,194.8,371.3,137c-5.1-16.7-10.6-34-22.6-46.6C322.7,63,278,68.1,241.9,79.3c-26.7,8.3-52.8,18.8-77.8,31.3
			c-12.7,6.3-25.2,13.3-35.5,23c-13.3,12.6-22.1,29.1-29,46c-34.3,83.1-27.6,177-16.3,266.2C39.1,349,46.1,230.5,101.5,139.6
			c33.8-55.4,96-107.4,165.1-96.7c41.1,6.4,75.7,34,104.2,64.2c46.8,49.7,83.7,111.1,93.4,178.6c9.7,67.6-11,141.4-62.7,186.1
			c37,4.2,69.5-30.2,76.4-66.7c6.9-36.6-5.2-73.9-18.4-108.6c-18.8-49.4-40.3-97.8-64.3-144.9c40.8,90.8,48,196.3,19.9,291.8
			c-2.8-30.9,15.1-59.2,25.4-88.4c14.1-39.6,14.4-83.8,1-123.6"/>
		<path class="st20" d="M242.8,319.7c0-2.6-2.2-4.9-4.7-5.8c-2.5-0.9-5.2-0.8-7.8-0.7c-0.9,0-1.9,0.1-2.6,0.6
			c-2.1,1.6,0,5.1,2.5,5.9s5.4,0.2,7.7,1.5"/>
		<path class="st20" d="M110.1,572.8c6.2,0.5,12.4-0.4,18.2-2.7c-5.4,1.6-10.4,4.3-14.7,7.8c3,5.6,4.5,11.9,4.4,18.3
			c-4.7,1.9-9.8,3-14.9,3.1c7.9,0.3,15.8-0.4,23.6-2c-7.4,1.9-14.9,3.9-22.3,5.8c4.4,5.5,10.4,9.7,17.1,11.9
			c0.6-5.1,2.4-10,5.3-14.2c-6.8,7.9-12.7,16.5-17.6,25.7c3.1-2.9,0.5-9.4-3.8-9.3c7.3-0.3,14.7,2.3,20.1,7.2
			c0.5-3.8,0.9-7.6,1.4-11.4c-4,5.7-7.9,11.5-11.9,17.2c-1.9,2.8-6.2,5.7-8,2.8c3.5,5,8.4,9,13.9,11.5c2.4-4.6,4.8-9.2,7.2-13.8
			c-1.9,5.7-4.5,11.2-7.7,16.4c-2,3.3-6.9,6.7-9.1,3.5c7.1,0.7,14.2,1.2,21.3,1.7c-4.5,0.5-9,1-13.5,1.6c-1.9,0.2-4,0.5-5.3,1.9
			c-3.8,4.1,3,10.1,2.4,15.6c6.9-2,13.2-5.7,18.3-10.8c-1.5,4.3-3.1,8.8-6.4,12c-3.3,3.2-8.8,4.7-12.5,2c-1.4,6.2-1.2,12.8,0.7,18.8
			c4-8.4,11.9-14.8,21-16.8c-0.2,5.4,0.4,10.7,1.6,15.9c-4.6,4.3-10.7,8-17,7.2c-6.3-0.8-11.8-8-8.8-13.6
			c6.5,9.8,13.4,19.3,20.9,28.4c1.6-6.3,3.2-12.6,4.8-18.9c-8.6,11.1-14,24.5-15.6,38.4c3.4-3.3,9-3.3,13.2-1.2s7.4,5.8,10.5,9.3
			c0.7-10.8-2.3-21.9-8.6-30.8c6,12.2,11.9,24.3,17.9,36.5c-10.9,4.3-24.2,1.7-32.7-6.3c1.4,2.9,4.2,5.2,7.4,6
			c-6.6,2-13.1,4.1-19.7,6.1c8.9,0.6,12.3,11.6,13.5,20.4c-1.2-12.8-0.3-25.8,2.5-38.3c4.4,6.8,10,12.8,16.5,17.6
			c-1.2,7.2-0.2,14.7,2.6,21.4c8.1-0.7,16.2-1.4,24.3-2c-6.8-6.5-12.1-14.5-15.5-23.2c9.8,5,18.2,12.5,24.4,21.6
			c-1.2,0.4-2.6,0.9-2.8,2.2s2.2,1.9,2.1,0.7"/>
		<path class="st20" d="M384.3,574.4c-1.4,7.9,2.4,16.6,9.2,20.8c-1.5,3.9-8.5,3.2-9.2-1c6.3,0.7,11.9,5.8,13.2,12
			c0.2,1,0.3,2.2-0.5,3c-0.7,0.7-1.8,0.7-2.7,0.6c-3.6-0.2-7.2-0.4-10.8-0.6c5.7,2.7,11.6,5.7,15.3,10.8c3.7,5.1,4.1,13.2-0.7,17.2
			c-8-4.7-13.7-13.2-15.1-22.5c-0.4,7.9-0.8,15.9-1.2,23.8c7-3.1,16.4,2.1,17.4,9.7c0-4.5-0.1-9-0.1-13.5c1.2,4.4,2.4,9,1.6,13.5
			c-0.7,4.5-3.9,9-8.4,9.8c-3.3,0.6-7.1-0.7-9.6,1.5c7.1-0.6,14.3,1,20.4,4.7c-5.1,0.9-10.3,1.7-15.3,0.9c-5.1-0.9-10.1-3.9-12-8.7
			c-0.2,8.2,0.4,16.5,2,24.6c9-0.4,17.8-3.7,24.8-9.4c0,7.3-4.7,14.4-11.4,17.4c-6.7,3-15.1,1.7-20.5-3.2
			c4.4,8.3,13.8,13.5,23.2,12.8c-5.2,4.2-13.8,3.1-17.7-2.4c0.1,4.7,0.3,9.4,0.4,14.1c4.4-2.5,9.3-4.2,14.3-5.1
			c-0.8,3.6-1.5,7.3-2.3,10.9c-7.6-1.1-15.4-0.9-22.9,0.8c1.8,3,3.5,6,5.3,9c0.7,1.2,1.6,2.5,3,2.6c1,0.1,1.9-0.5,2.7-1.1
			c2.5-1.8,5.1-3.6,7.6-5.5c-3.6,2.8-8.7,3.6-13,1.9c1.4,7.3-5.4,14.9-12.8,14.4c6.9-0.3,13.9-0.6,20.8-0.9
			c0.2,6.2,1.3,12.4,3.1,18.3c-7.4,2.8-15.2,4.9-23,6.2c-0.5-8.7-0.3-17.5,0.6-26.1c0.9,9.9,1.2,19.9,0.8,29.9
			c-4.7,0.3-9.4-1.2-13.1-4.1c1.8,3.8-3.7,6.7-7.9,7.5c-4.1,0.8-9.5,4.4-7,7.9c8.6-2,17.6-2.3,26.3-0.9c-1.4-3.9-2.8-7.9-4.3-11.8
			c1.5,4.9,5.2,9,9.9,11.1c-1.6-4.2,3.9-7.9,8.4-7.8c4.5,0.1,9.1,1.9,13.4,0.4c0.3,2.2,0.6,4.3,0.9,6.5c-6-1.3-11.7-4.1-16.3-8
			c3.6-2.2,6.9-4.9,9.6-8.1c3.8,4.4,7.6,8.8,11.4,13.1c3.1-1.2,5-4.8,4.2-7.9c-2.4-0.8-4.7,2.2-4.2,4.6s2.4,4.4,4.3,6"/>
		<path class="st20" d="M138.1,204.7c18-20.1,37.2-39.3,57.3-57.3c7.9-7.1,16.2-14.2,25.8-18.8c19.2-9.2,41.5-7.7,62.7-6.1
			c-5.3-12.1-17-21.1-30-23.1c17.1,11.6,34.2,23.3,51.3,34.9c31.6,21.6,64.6,44.5,82,78.6c10.3,20.1,14.4,42.8,18.4,65"/>
		<path class="st20" d="M187.6,803.2c-4.5-3.7-11-5-16.5-3.1c-5.7-4.7-8.5-12.5-7.2-19.7c-7.7,13.8-14,28.4-18.6,43.5
			c14.5,0,29,0.1,43.5,0.1c-2.4-7.6,2.2-16.6,9.7-19.2c-5.9,15.3-7.1,32.3-3.6,48.3c-6.8-2.3-12.9-6.6-17.2-12.3
			c16.6-6.5,32.7-14.2,48.2-23.1c-3.3-1.6-7.2-2.2-10.9-1.6c-0.8-2.3-0.5-5,0.9-7c8.3,5.5,16.7,11.1,25,16.6
			c-4.5,7.5-14.3,11.5-22.8,9.3c-3.7-7.5,5.7-15.1,14-16.2c8.3-1.1,17.8,0,23.9-5.7c1.1,5.8,2.3,11.5,3.4,17.3
			c-7.7-0.4-14.8,6.8-14.4,14.5c15.8,1.7,31.8,1.3,47.5-1.2c-7.8-7-11.2-18.7-8.2-28.8c-8.4,10.6-16.7,21.2-25.1,31.8
			c14.6-3.7,29.8-5.4,44.9-4.8c0.3-11.9,0.5-23.8,0.8-35.7c6.5,1.7,12.9,3.4,19.4,5.1c-2.6,7-6.5,13.5-11.4,19.1
			c4.3,4.3,8.9,8.7,14.8,10.3c5.9,1.6,13.3-0.8,15.1-6.6c0.9-2.9,0.3-6.1-0.4-9.1c-1.9-8.8-3.9-17.6-5.8-26.3
			c8.3,0.3,15.3-5.7,23.2-8c7.9-2.4,19.5,2.7,17.2,10.7c-10.9,3.4-22.8,3.3-33.7-0.3c-1.4-9,4.5-18.5,13.2-21.2
			c8.7-2.6,19,2,22.7,10.2c6.4-5.5,10.8-13.1,12.6-21.4c-8.6,11.6-17.6,23.6-30.3,30.7c-12.7,7-30.1,7.7-40.4-2.5
			c9-9.5,26.2-5.7,34.1,4.7c7.9,10.4,8.3,24.7,6.1,37.6c-7.5-6.8-13.5-15.3-17.3-24.6c-11.7,24.4-42.3,31.7-68.9,36.1
			c-4.8,0.8-10.1,1.6-14.4-0.8c-10.7-5.8-5.8-22.8-12.2-33.1c-1.7,18.3-10.3,36-23.5,48.7c-4.9-12.6-8.9-25.5-12-38.7
			c-9.4,15.3-32.5,19.9-47,9.3c17.1-8.2,32.9-19.1,46.7-32.2c-11.8-7.9-31.7,6.6-40.6-4.5c-1.6-2-2.4-4.5-4.2-6.3
			c-7.9-7.8-18.1,3.8-26.4,1.6c-10.4-2.8-9.6-20-20.5-16.4c8.7-22.9,35.5,17,8.7,11.8C138.3,800,181.1,828,187.6,803.2z"/>
	</g>
</g>
</svg>
