<?xml version="1.0" encoding="utf-8"?>
<!-- Generator: Adobe Illustrator 24.2.3, SVG Export Plug-In . SVG Version: 6.00 Build 0)  -->
<svg version="1.1" id="Layer_1" xmlns="http://www.w3.org/2000/svg" xmlns:xlink="http://www.w3.org/1999/xlink" x="0px" y="0px"
	 viewBox="0 0 400 344.9" style="enable-background:new 0 0 400 344.9;" xml:space="preserve">
<style type="text/css">
	.st0{fill:#367899;}
</style>
<path class="st0" d="M399.5,194.1c0-0.8-0.2-1.4-0.5-1.4c-0.2,0-0.4,0.3-0.5,0.8c-0.1,0-0.2,0-0.3,0.1l0,0c0-0.1,0-0.1,0-0.2l0,0
	c0.1,0,0.2-0.2,0.3-0.5c0.1-0.3,0-0.6-0.1-0.7c-0.1,0-0.3,0.2-0.4,0.5c0,0.1,0,0.2,0,0.2h-0.1c-0.1,0-0.2,0.2-0.2,0.4
	c-0.1,0-0.3,0.1-0.3,0.3c-0.1-0.1-0.2-0.2-0.3-0.2c0,0,0,0-0.1,0c0,0,0,0-0.1,0s-0.3,0.2-0.3,0.4c0,0.1,0,0.2,0.1,0.3l0,0h-0.1
	c0,0,0-0.1-0.1-0.1c0-0.3-0.2-0.6-0.3-0.6c-0.1,0-0.2,0.3-0.1,0.7c0.1,0.1,0.1,0.2,0.2,0.3c0,0.1-0.1,0.2-0.1,0.3h-0.1
	c0-0.1-0.1-0.3-0.1-0.4c0.1-0.4,0-0.7-0.1-0.8s-0.3,0.3-0.4,0.8l-0.1-0.1c-0.1-0.1-0.3,0.2-0.3,0.5v0.1l0,0c0-0.1,0-0.2-0.1-0.2
	c0-0.1-0.1-0.3-0.2-0.4c-0.1-0.1-0.3,0.2-0.2,0.6c0,0.1,0.1,0.1,0.2,0.2c-0.1,0-0.2,0-0.2,0.1V195c0-0.1-0.1-0.3-0.3-0.3
	c-0.1-0.1-0.3,0.2-0.2,0.5l0,0c-0.2,0.1-0.3,0.1-0.5,0.1c0-0.2-0.2-0.3-0.3-0.3c-0.1,0-0.1,0-0.1,0.1c0-0.1-0.1-0.1-0.1-0.1
	c-0.1,0-0.2,0.2-0.3,0.5c-0.1,0-0.1,0-0.2-0.1l-0.1-0.1c-0.1-0.1-0.2-0.2-0.5-0.3c-0.4-0.1-0.2,0-0.3-0.4c-0.3-0.1-0.5-0.2-0.6-0.1
	c0-0.3-0.4-0.6-0.6-0.5l0,0c0,0,0,0-0.1,0.1l0,0c-0.1,0.1-0.3,0.4,0.1,0.4v0.1c-0.2,0-0.3-0.1-0.5-0.1c0,0,0.1,0,0.1-0.3
	s0-0.6-0.2-0.6c-0.1,0-0.2,0.1-0.3,0.4c-0.1,0-0.1,0-0.2,0.1c0-0.4-0.1-0.7-0.2-0.7s-0.3,0.4-0.3,0.9c0,0.1,0,0.1,0,0.2h-0.1
	c0-0.1,0-0.3,0-0.4c-0.1-0.5-0.2-0.8-0.4-0.8c-0.1,0-0.2,0.4-0.1,0.9c0,0.1,0,0.2,0.1,0.3c-0.2,0-0.4,0.1-0.6,0.1
	c-0.1,0-0.2-0.1-0.4,0l0,0c-0.1,0-0.1,0-0.2,0c0,0,0,0.1-0.1,0.1c0-0.1,0-0.2-0.1-0.2c-0.1-0.1-0.4,0.3-0.4,0.7c0,0,0,0,0,0.1v-0.1
	c-0.1-0.4-0.2-0.7-0.4-0.7c-0.1,0-0.2,0.4-0.1,0.9l0,0c-0.1,0-0.2,0-0.4-0.1c0-0.1,0-0.2,0-0.2c0-0.1-0.1-0.2-0.3-0.2
	c0.1-0.4,0-0.6,0-0.6c-0.1,0-0.3,0.4-0.5,0.9l0,0c0-0.4-0.1-0.8-0.2-0.8c-0.1,0.1-0.4,0.4-0.2,0.7c-0.1,0-0.2,0-0.4,0
	c0-0.3-0.1-0.6-0.2-0.6s-0.2,0.2-0.3,0.6c-0.2,0-0.3,0-0.5,0c-0.1-0.1-0.1-0.2-0.2-0.2s-0.2,0.1-0.2,0.2c-0.1,0-0.1,0-0.2,0
	c-0.1-0.3-0.2-0.5-0.3-0.5c-0.1,0-0.2,0.2-0.2,0.5h-0.1c0,0,0,0-0.1,0c-0.1-0.1-0.2-0.1-0.3-0.1c0,0,0,0,0,0.1c-0.2,0-0.5,0-0.7,0.1
	c-0.1-0.1-0.1-0.1-0.2-0.1s-0.1,0.1-0.1,0.2h-0.1c0-0.1,0.1-0.2,0.1-0.3c0-0.3-0.1-0.5-0.2-0.5s-0.3,0.2-0.3,0.5c0,0.1,0,0.3,0,0.4
	c-0.4,0.1-0.8,0.1-1.2,0.2c-0.1-0.2-0.2-0.4-0.2-0.4c-0.1,0-0.1,0.2-0.2,0.5c0,0,0,0-0.1,0c0-0.1-0.1-0.2-0.1-0.2h-0.1
	c0-0.1-0.1-0.1-0.1-0.2c-0.1,0-0.3,0.2-0.3,0.5l0,0c0-0.3-0.1-0.5-0.2-0.5s-0.2,0.1-0.2,0.3c0-0.1-0.1-0.1-0.1-0.1s-0.1,0-0.1,0.1
	c0-0.1,0-0.2-0.1-0.2c-0.1-0.1-0.3,0.3-0.5,0.7c0,0.1,0,0.2,0,0.2s0,0-0.1,0c0-0.1,0-0.1,0-0.2c0-0.4-0.2-0.8-0.3-0.8
	c-0.1,0-0.2,0.4-0.2,0.9c0,0.1,0,0.2,0,0.3c0,0-0.1,0-0.1,0.1c0-0.1,0-0.2,0-0.3c0.1-0.4,0-0.8-0.1-0.8s-0.3,0.2-0.4,0.6
	c-0.1,0-0.2,0.2-0.2,0.4c0,0.1,0,0.2,0.1,0.3h-0.1c0,0,0,0,0-0.1c0-0.3-0.1-0.6-0.2-0.6l0,0c0-0.1-0.1-0.1-0.1-0.1
	c-0.1,0-0.2,0.2-0.2,0.4l0,0h-0.1c0-0.1-0.1-0.1-0.1-0.1c-0.1,0-0.3,0.2-0.3,0.5l0,0c0-0.1-0.1-0.2-0.1-0.3c-0.1,0-0.1,0-0.2,0.1
	c0-0.2-0.1-0.3-0.1-0.4c-0.1,0-0.2,0.1-0.3,0.2c-0.1,0-0.3,0.2-0.3,0.6c0,0,0,0,0,0.1c-0.1-0.2-0.3-0.4-0.4-0.3c0,0-0.1,0.1-0.1,0.2
	l0,0l0,0c0-0.2-0.1-0.4-0.2-0.5c-0.1,0-0.2,0.1-0.2,0.3c0-0.1-0.1-0.1-0.1-0.1c-0.1,0-0.1,0-0.2,0.2c0-0.1-0.1-0.2-0.2-0.2
	s-0.2,0.1-0.2,0.2c0-0.1-0.1-0.2-0.2-0.2s-0.2,0.2-0.3,0.5c-0.1,0-0.1,0-0.2,0l0.1-0.1c0-0.1-0.1-0.2-0.2-0.2s-0.1,0-0.2,0
	c0-0.2-0.1-0.3-0.2-0.3s-0.2,0.1-0.2,0.3c0-0.3-0.1-0.5-0.2-0.5s-0.2,0.3-0.2,0.7l-0.1-0.1c-0.1,0-0.1,0.1-0.2,0.1
	c0-0.3-0.1-0.6-0.2-0.6c0,0-0.1,0-0.1,0.1c0-0.1-0.1-0.1-0.1-0.1c-0.1,0-0.2,0.2-0.2,0.4c-0.1-0.2-0.1-0.3-0.2-0.3s-0.2,0.2-0.2,0.5
	c0,0,0,0.1-0.1,0.1c-0.2,0-0.5,0-0.7,0.1c0-0.4,0-0.8-0.1-0.8s-0.3,0.3-0.4,0.9l0,0c0,0,0,0-0.1,0c0-0.3-0.1-0.6-0.2-0.6
	s-0.3,0.3-0.3,0.7l0,0c-0.1,0-0.2,0-0.2,0c0-0.4-0.1-0.6-0.2-0.6s-0.2,0.2-0.2,0.5c0-0.1-0.1-0.1-0.1-0.1s0,0-0.1,0
	c0-0.2-0.1-0.3-0.2-0.3s-0.2,0.2-0.3,0.4c0-0.2-0.1-0.4-0.2-0.4s-0.1,0.1-0.2,0.2l-0.1-0.1c-0.1,0-0.1,0.1-0.2,0.3l0,0
	c-0.1,0-0.2,0.1-0.2,0.4c-0.1,0-0.1,0-0.2,0c-0.1-0.2-0.2-0.3-0.3-0.3c-0.1,0-0.1,0.1-0.1,0.2c-0.1-0.1-0.2-0.2-0.3-0.2
	c-0.1,0-0.1,0.1-0.1,0.1c0-0.2-0.1-0.4-0.3-0.4c-0.1,0-0.3,0.2-0.3,0.4c0,0.1,0,0.2,0.1,0.3c-0.1,0-0.2,0-0.3,0c0-0.4,0-0.7-0.1-0.7
	c0,0-0.1,0-0.1,0.1c-0.1-0.2-0.1-0.3-0.1-0.2c0.1-0.1-0.2,0.4-0.2,0.9c-0.2,0-0.3,0-0.5,0c0-0.1-0.1-0.1-0.1-0.2
	c0-0.3-0.1-0.5-0.2-0.5s-0.2,0.2-0.3,0.6c-0.1-0.1-0.2-0.2-0.2-0.2c-0.1,0-0.1,0.2-0.1,0.4c-0.1,0-0.1,0-0.2,0
	c0-0.1-0.1-0.1-0.1-0.1c-0.1,0-0.1,0-0.2,0.1l0,0c-0.1-0.4-0.3-0.7-0.4-0.7s-0.2,0.3-0.1,0.7c-0.2,0-0.3,0-0.5,0
	c0-0.4-0.1-0.7-0.2-0.7s-0.1,0.1-0.1,0.2c-0.1-0.2-0.1-0.3-0.2-0.3s-0.2,0.4-0.2,0.8c0,0,0,0-0.1,0c-0.1-0.6-0.2-1.1-0.3-1
	c-0.1,0-0.2,0.4-0.2,1l0,0c-0.1-0.4-0.2-0.7-0.3-0.7c-0.1,0-0.2,0.3-0.2,0.7l0,0c-0.1-0.5-0.2-0.8-0.3-0.8l0,0c0-0.6-0.1-1-0.2-1
	s-0.3,0.6-0.3,1.4c0,0.1,0,0.2,0.1,0.3c0,0,0,0-0.1,0c0-0.2-0.1-0.4-0.2-0.4c0,0-0.1,0.1-0.2,0.3c-0.1-0.3-0.2-0.5-0.3-0.4
	c0,0-0.1,0-0.1,0.1c0-0.2-0.1-0.3-0.2-0.3s-0.2,0.4-0.3,0.9c-0.1-0.6-0.2-1.1-0.4-1.1c-0.1,0-0.2,0.4-0.1,1c0,0.2,0,0.4,0,0.6
	c-0.1,0-0.2,0.1-0.2,0.1c-0.1-0.4-0.2-0.7-0.3-0.7c-0.1,0-0.2,0.4-0.1,1c0,0,0,0-0.1,0c-0.1-0.6-0.2-1.1-0.3-1.1
	c-0.1,0-0.1,0.1-0.1,0.4c0-0.1-0.1-0.1-0.1-0.1c-0.1,0-0.3,0.6-0.3,1.4c0,0,0,0,0,0.1l-0.1,0.1c0-0.2,0-0.4-0.1-0.6
	c0-0.4-0.1-0.7-0.1-0.8c-0.1-0.2-0.1-0.3-0.2-0.3s-0.2,0.4-0.2,1c0,0.2,0,0.4-0.1,0.5c0,0.2,0,0.4,0.1,0.6c-0.1,0.1-0.2,0.2-0.3,0.3
	c0,0,0,0,0-0.1s0-0.2,0-0.3s0-0.2,0-0.3c0.1-0.5,0.1-0.9,0-1c-0.1,0-0.3,0.2-0.4,0.5c0-0.1-0.1-0.1-0.1-0.2c-0.1,0-0.2,0.1-0.2,0.4
	l0,0c-0.1,0-0.2,0.1-0.3,0.4c0-0.2-0.1-0.4-0.1-0.4c-0.1,0-0.2,0.1-0.3,0.4c-0.1,0-0.5,0.4-0.6,1v0.1c0-0.2-0.1-0.4-0.2-0.4
	s-0.1,0.1-0.2,0.4c0,0.1-0.1,0.1-0.1,0.2c0-0.1,0-0.2-0.1-0.2s-0.3,0.3-0.4,0.7c0-0.2-0.1-0.4-0.2-0.5c-0.1,0-0.3,0.4-0.3,0.9
	c0,0.1,0,0.2,0.1,0.3c-0.1,0.1-0.2,0.2-0.2,0.3c0-0.1,0-0.3,0-0.5c0-0.5,0-1-0.1-1.1c-0.1,0-0.2,0.1-0.2,0.4c-0.1,0-0.3,0.3-0.4,0.8
	c0-0.2,0-0.3-0.1-0.3s-0.2,0.2-0.4,0.6l0,0h-0.1c0.1-0.4,0.1-0.7,0-0.8c0,0-0.1,0-0.1,0.1c0-0.1-0.1-0.1-0.1-0.1
	c-0.1,0-0.1,0.1-0.2,0.4c0-0.2-0.1-0.4-0.2-0.4s-0.2,0.2-0.3,0.6c0-0.1-0.1-0.2-0.1-0.2c-0.1,0-0.2,0.2-0.3,0.5c0,0,0,0-0.1,0
	s-0.3,0.3-0.3,0.8v0.1l-0.1,0.1c0,0,0,0-0.1,0c0.1-0.5,0.1-1,0-1s-0.4,0.4-0.5,1c0,0.1,0,0.3,0,0.4l0,0v-0.1c0-0.4-0.1-0.8-0.3-0.8
	c0,0-0.1,0-0.1,0.1c0-0.1-0.1-0.1-0.1-0.1c-0.1,0-0.3,0.4-0.3,0.9c0,0.1,0,0.1,0,0.2c0,0-0.1,0-0.2,0c0-0.5,0-0.9-0.1-0.9
	c-0.1-0.1-0.3,0.4-0.4,1.1h-0.1c0-0.2,0-0.3-0.1-0.3c-0.1-0.1-0.3,0.2-0.4,0.6l0,0c0-0.2-0.1-0.3-0.2-0.4c0,0-0.1,0-0.1,0.1
	c0-0.1-0.1-0.2-0.1-0.2c-0.1,0-0.2,0.1-0.3,0.4c0-0.1,0-0.1-0.1-0.1c-0.1-0.1-0.3,0.1-0.4,0.5c0-0.1,0-0.1-0.1-0.1
	c-0.1-0.1-0.3,0.2-0.5,0.6c0-0.1-0.1-0.1-0.1-0.1c-0.1,0-0.2,0.1-0.3,0.4c0,0,0,0,0-0.1c0.2-0.6,0.2-1.1,0.1-1.2
	c-0.1-0.1-0.3,0.3-0.5,0.8c-0.1,0-0.4,0.2-0.5,0.7c0,0,0,0.1-0.1,0.1c0-0.2-0.1-0.4-0.2-0.5c-0.1,0-0.3,0.2-0.3,0.5
	c0,0.2,0,0.3,0,0.4c-0.1,0-0.1,0-0.2,0s-0.1,0-0.2,0c0-0.1,0-0.2,0-0.4c0.3-0.5,0.4-1.1,0.3-1.2c-0.1-0.1-0.4,0.3-0.7,0.9l0,0
	c-0.1,0-0.3,0.2-0.3,0.6c-0.1,0-0.2,0-0.3,0c0-0.1,0.1-0.2,0.1-0.3c0-0.3-0.1-0.5-0.2-0.5s-0.3,0.2-0.3,0.5c0,0.1,0,0.2,0,0.2
	c-0.1,0-0.2,0-0.2,0c0.1-0.4,0.1-0.8-0.1-0.9c-0.1,0-0.3,0.3-0.4,0.7v-0.1c0-0.4-0.2-0.7-0.3-0.7c-0.1,0-0.2,0.3-0.2,0.8v0.1l0,0
	c0-0.2-0.1-0.4-0.2-0.4c0,0,0,0-0.1,0c-0.1-0.4-0.3-0.7-0.4-0.6c-0.1,0.1-0.2,0.4,0,0.8c0,0.1,0,0.1,0,0.1c-0.2,0-0.4,0-0.7-0.1
	c0-0.5,0-1-0.2-1c-0.1,0-0.2,0.3-0.3,0.8c0-0.1-0.1-0.1-0.2-0.1h-0.1c0-0.1,0-0.1,0-0.2c-0.1-0.3-0.2-0.6-0.4-0.6
	c-0.1,0-0.2,0.3-0.1,0.6c0,0.1,0,0.2,0.1,0.3c-0.2,0-0.3,0-0.5,0c-0.1-0.4-0.3-0.7-0.4-0.6c0-0.2-0.1-0.3-0.1-0.4
	c-0.1-0.1-0.3,0.3-0.4,0.8c0-0.1-0.1-0.2-0.2-0.2s-0.3,0.1-0.3,0.2l0,0c-0.1,0-0.2,0-0.3,0c0.1-0.7,0.1-1.3-0.1-1.3
	c-0.1,0-0.3,0.5-0.5,1.3c-0.1,0-0.1,0-0.2,0v-0.1c0-0.5,0-1-0.2-1c0-0.1-0.1-0.2-0.1-0.3c-0.1,0-0.3,0.5-0.3,1.1
	c0,0.1,0,0.2,0.1,0.3c-0.1,0-0.1,0-0.2,0c0-0.4,0-0.7-0.2-0.7l0,0c0-0.1,0-0.1-0.1-0.1c-0.1-0.1-0.3,0.3-0.4,0.8c-0.1,0-0.2,0-0.2,0
	c0-0.4,0-0.7-0.2-0.8h-0.1c0-0.2-0.1-0.3-0.2-0.3l-0.1,0.1c0-0.1-0.1-0.2-0.1-0.3c-0.1,0-0.1,0.1-0.2,0.3c0-0.2,0-0.3-0.1-0.3
	c0,0-0.1,0-0.2,0.1l-0.1-0.1c-0.1,0-0.1,0.2-0.2,0.4c-0.1,0.1-0.1,0.3-0.2,0.5v0.1c0,0,0,0-0.1,0c0-0.4-0.1-0.7-0.2-0.7
	s-0.1,0.1-0.2,0.2c-0.1-0.2-0.2-0.4-0.3-0.3c-0.1,0-0.1,0.3-0.1,0.7c0,0,0,0-0.1-0.1c-0.1,0-0.1,0-0.2,0.1c0.1-0.5,0-0.8-0.1-0.8
	s-0.2,0.1-0.2,0.3c0-0.2,0-0.4-0.1-0.4s-0.2,0.1-0.2,0.3c0-0.2-0.1-0.4-0.1-0.4c-0.1,0-0.3,0.5-0.4,1.1l0,0c0-0.6-0.2-1-0.3-1
	c-0.1,0-0.2,0.4-0.2,1h-0.1c0.1-0.5,0.2-0.9,0-1c-0.1-0.1-0.3,0.3-0.5,0.9c0,0,0,0-0.1,0s-0.1,0.1-0.1,0.1c-0.1,0-0.2,0-0.3,0
	c0-0.1-0.1-0.2-0.1-0.2c-0.1,0-0.1,0.1-0.2,0.2c-0.1,0-0.1,0-0.2,0c0.1-0.5,0-0.9-0.1-1c-0.1,0-0.3,0.4-0.4,1h-0.1
	c0-0.2,0-0.4-0.1-0.5c-0.1,0-0.2,0.2-0.4,0.5l0,0c0-0.4,0-0.7-0.1-0.7c0,0-0.1,0-0.2,0.2c0,0,0,0-0.1,0s-0.3,0.1-0.3,0.3
	c0,0.1,0,0.2,0.1,0.2l0,0c-0.1,0-0.2,0-0.4,0c0.2-0.6,0.3-1.3,0.2-1.3c-0.1,0-0.3,0.2-0.4,0.6l0,0c-0.1,0-0.1,0.1-0.2,0.3
	c0-0.2,0-0.4-0.1-0.4s-0.2,0.1-0.3,0.4l0,0c-0.1,0-0.2,0.1-0.3,0.4c0-0.3-0.1-0.5-0.2-0.5s-0.1,0.1-0.2,0.3c0-0.4-0.1-0.7-0.2-0.7
	s-0.3,0.4-0.3,1c0,0,0,0,0,0.1h-0.1c0-0.2,0-0.4-0.1-0.6l0,0c0.1-0.4,0-0.7-0.1-0.8c-0.1,0-0.3,0.2-0.3,0.6c0-0.2-0.1-0.3-0.1-0.3
	c-0.1,0-0.3,0.3-0.4,0.7c0-0.4,0-0.7-0.1-0.7s-0.2,0.1-0.2,0.4c0-0.4,0-0.7-0.1-0.7s-0.1,0.1-0.2,0.3l0,0c0,0,0,0-0.1,0
	c0-0.1,0-0.1-0.1-0.2c-0.1,0-0.3,0.2-0.5,0.7c0-0.3-0.1-0.4-0.1-0.4c-0.1,0-0.1,0.1-0.2,0.2c0,0,0-0.1-0.1-0.1s-0.1,0.1-0.2,0.2
	c0-0.3-0.1-0.6-0.2-0.6c0,0-0.1,0-0.1,0.1c0.1-0.5,0.1-0.9,0-0.9s-0.3,0.4-0.5,1.1c0,0-0.1,0-0.1,0.1c0-0.4,0-0.8-0.1-0.8
	c0,0-0.1,0-0.1,0.1c0-0.1,0-0.2-0.1-0.2l0,0c0-0.1-0.1-0.2-0.1-0.2c-0.1,0-0.2,0.2-0.3,0.5c-0.1,0.1-0.2,0.3-0.2,0.7c0,0,0,0-0.1,0
	c0-0.6,0-1-0.1-1s-0.2,0.3-0.3,0.9v0.1c-0.1,0-0.1,0-0.2,0c0-0.3-0.1-0.5-0.1-0.5c-0.1,0-0.2,0.2-0.2,0.4c-0.1,0-0.2,0-0.2,0l0,0
	l0,0l0,0c0.1-0.6,0-1-0.1-1s-0.2,0.1-0.2,0.4c0-0.4,0-0.6-0.1-0.6s-0.2,0.4-0.4,1c0,0-0.1,0.1-0.1,0.2c0-0.3-0.1-0.5-0.1-0.5
	c-0.1,0-0.1,0.1-0.2,0.3c0,0,0-0.1-0.1-0.1s-0.3,0.5-0.4,1.3c0,0,0-0.1-0.1-0.1s-0.2,0.2-0.2,0.4c0-0.1-0.1-0.2-0.1-0.2
	c-0.1,0-0.2,0.3-0.2,0.7c-0.2,0.2-0.3,0.3-0.5,0.5l0,0c0.1-0.7,0-1.3-0.1-1.3s-0.3,0.5-0.4,1.2c0,0.2,0,0.4,0,0.6l-0.1,0.1v-0.1
	c0.1-0.9,0-1.7-0.1-1.7s-0.2,0.3-0.3,0.8c0-0.1-0.1-0.2-0.1-0.2c-0.1,0-0.2,0.3-0.3,0.9c0-0.6-0.1-1.1-0.2-1.1s-0.2,0.4-0.3,0.9
	c0-0.1,0-0.1-0.1-0.1s-0.3,0.7-0.4,1.7c0-0.4,0-0.7-0.1-0.7s-0.2,0.3-0.3,0.8c-0.1,0.1-0.2,0.2-0.2,0.4c0,0,0-0.1-0.1-0.1
	c0,0-0.1,0-0.1,0.1c0-0.3,0-0.5-0.1-0.5s-0.3,0.5-0.4,1.3c0,0.2,0,0.4,0,0.6c-0.1,0.1-0.2,0.1-0.3,0.2c0-0.3,0.1-0.6,0.1-0.9
	c0.1-0.9,0.3-1.6,0.2-1.7c-0.1-0.1-0.6,0.6-0.7,1.6c0,0.1,0,0.2,0,0.3c0-0.2-0.1-0.3-0.1-0.3c-0.1-0.1-0.3,0.3-0.4,0.8l-0.1-0.1
	c0,0-0.1,0.1-0.1,0.2c0-0.1-0.1-0.1-0.1-0.2c-0.1,0-0.2,0.4-0.3,0.9c0-0.2-0.1-0.3-0.2-0.3s-0.2,0.4-0.3,0.9c0-0.4-0.1-0.7-0.2-0.7
	s-0.1,0.1-0.2,0.3l0,0c-0.1,0-0.2,0.3-0.3,0.7l-0.1-0.1c-0.1,0-0.1,0-0.2,0.1c0,0,0-0.1-0.1-0.1s-0.2,0.2-0.3,0.6l-0.1,0.1
	c0-0.6-0.1-1-0.2-1s-0.3,0.6-0.3,1.3c0,0-0.1,0-0.1,0.1c0-0.5-0.1-0.9-0.2-0.9s-0.2,0.3-0.2,0.7c0-0.1-0.1-0.2-0.1-0.2
	c-0.1,0-0.3,0.3-0.3,0.8v0.1c0-0.1-0.1-0.1-0.2-0.1s-0.3,0.1-0.3,0.2c0,0.1,0,0.1,0,0.2c-0.2,0.1-0.3,0.2-0.5,0.3v-0.1
	c0,0,0,0,0.1,0s0.3-0.3,0.3-0.6s-0.1-0.6-0.2-0.6s-0.3,0.2-0.3,0.6c0,0.1,0,0.1,0,0.2l0,0c-0.1,0-0.2,0.2-0.3,0.5c0,0-0.1,0-0.1,0.1
	c0.1-0.4,0-0.7-0.1-0.8c-0.1,0-0.1,0.1-0.2,0.2v-0.1c0,0-0.1,0-0.1,0.1c0-0.3-0.1-0.5-0.2-0.6c-0.1,0-0.2,0.3-0.3,0.7
	c0-0.3-0.1-0.6-0.2-0.6s-0.3,0.5-0.3,1.3c0,0.4,0,0.7,0.1,1c-0.1,0.1-0.2,0.1-0.3,0.2c-0.1-1,0-1.8-0.1-1.8c0,0-0.1,0-0.1,0.1
	c0-0.1-0.1-0.2-0.1-0.2c-0.1,0-0.2,0.7-0.2,1.6c0,0.2,0,0.4,0,0.6l0,0c0-0.2,0-0.4,0-0.6c0.1-0.8-0.1-1.6-0.2-1.5
	c0,0-0.1,0.1-0.1,0.2c-0.1,0.1-0.2,0.4-0.2,0.8c0-0.2-0.1-0.3-0.2-0.3c0,0-0.1,0.1-0.1,0.2c0-0.1-0.1-0.1-0.1-0.1
	c-0.1,0-0.2,0.2-0.3,0.6c0-0.2-0.1-0.4-0.2-0.4s-0.2,0.2-0.2,0.5c0-0.4-0.1-0.7-0.2-0.7s-0.2,0.3-0.2,0.7c0,0,0-0.1-0.1-0.1
	s-0.3,0.4-0.4,0.9c0,0-0.1,0.1-0.1,0.2c0-0.1,0-0.2-0.1-0.2s-0.2,0.2-0.4,0.6c-0.1,0.1-0.2,0.4-0.2,0.6c-0.1,0-0.1,0.1-0.2,0.3
	c0-0.3-0.1-0.5-0.2-0.5s-0.2,0.3-0.3,0.8c0-0.2-0.1-0.3-0.2-0.4c-0.1,0-0.1,0.1-0.2,0.3c0-0.2,0-0.3-0.1-0.5c0-0.5,0-0.9-0.1-0.9
	s-0.1,0.2-0.2,0.4l0,0c-0.1,0-0.1,0.2-0.2,0.4c0-0.3,0-0.4-0.1-0.5c-0.1,0-0.4,0.6-0.5,1.4l0,0c0,0-0.1,0.1-0.1,0.2
	c0-0.1-0.1-0.1-0.1-0.1c-0.1,0-0.2,0.2-0.2,0.4c0,0,0-0.1-0.1-0.1s-0.1,0.1-0.2,0.2l0,0c-0.1,0-0.1,0.1-0.2,0.2
	c0-0.3-0.1-0.5-0.2-0.5s-0.3,0.5-0.3,1c-0.1,0.1-0.1,0.2-0.1,0.4l0,0l0,0c0-0.3-0.1-0.5-0.2-0.6c-0.1,0-0.2,0.1-0.2,0.4l-0.1-0.1
	c-0.1,0-0.2,0.3-0.3,0.7c0,0,0,0-0.1,0s-0.2,0.1-0.2,0.4c0-0.1-0.1-0.2-0.1-0.2c-0.1,0-0.1,0.1-0.2,0.2c-0.1,0-0.2,0.1-0.2,0.3
	c0-0.1-0.1-0.2-0.1-0.2s-0.1,0-0.1,0.1c0-0.1-0.1-0.2-0.1-0.2c-0.1,0-0.2,0.2-0.3,0.4c0-0.1-0.1-0.1-0.1-0.1c-0.1,0-0.3,0.5-0.4,1
	c0,0.3,0,0.5,0,0.7c0,0-0.1,0-0.1,0.1c0-0.1,0-0.1,0-0.2c0-0.5,0-0.9-0.2-1c-0.1,0-0.2,0.3-0.3,0.7c0,0,0,0-0.1,0h-0.1
	c-0.1-0.3-0.1-0.4-0.2-0.4s-0.2,0.4-0.2,0.9c0,0.3,0,0.5,0,0.7c-0.1,0-0.1,0.1-0.2,0.1l0,0c0-0.5,0-0.8-0.2-0.9
	c-0.1,0-0.2,0.1-0.2,0.3c0-0.2-0.1-0.3-0.2-0.3s-0.3,0.3-0.3,0.7h-0.1c-0.1,0-0.2,0.3-0.2,0.6c0,0.1,0,0.2,0.1,0.3
	c-0.1,0-0.1,0.1-0.2,0.1c0-0.2,0-0.4,0-0.6c0.1-0.8,0.1-1.5,0-1.5s-0.1,0.1-0.2,0.3c0-0.3,0-0.4-0.1-0.4s-0.4,0.8-0.6,1.9
	c0,0.1,0,0.2,0,0.3c0,0,0,0-0.1,0c0-0.5,0-0.9-0.1-0.9s-0.1,0.1-0.2,0.4c0-0.1-0.1-0.2-0.1-0.2c-0.1,0-0.3,0.5-0.4,1.2
	c0,0.1,0,0.2,0,0.2l0,0c0-0.1,0-0.2-0.1-0.2c0-0.2,0-0.4-0.1-0.4l0,0c0-0.1,0-0.1-0.1-0.1s-0.3,0.4-0.5,1c0-0.2-0.1-0.3-0.1-0.3
	c-0.1,0-0.1,0.1-0.2,0.2c0-0.1,0-0.1-0.1-0.1s-0.1,0.1-0.2,0.2c0-0.1,0-0.2-0.1-0.2s-0.3,0.4-0.4,1c-0.1,0-0.3,0.4-0.4,0.9l0,0
	c0-0.5-0.1-0.9-0.2-0.9s-0.3,0.5-0.3,1.1v0.1l0,0c0-0.2,0-0.3-0.1-0.4c-0.1,0-0.2,0.1-0.3,0.3c0-0.1,0-0.2-0.1-0.2s-0.3,0.4-0.4,0.9
	l0,0c0-0.3,0-0.6-0.1-0.6s-0.3,0.3-0.5,0.9c0,0-0.1,0.1-0.1,0.2c0-0.2,0-0.3-0.1-0.3s-0.4,0.6-0.5,1.5c0,0.1,0,0.1,0,0.2l-0.1,0.1
	v-0.1c0-0.5,0-0.9-0.1-1c0,0,0,0-0.1,0c0-0.2,0-0.3-0.1-0.3s-0.3,0.3-0.4,0.7l0,0c-0.1,0-0.2,0.2-0.3,0.4l0,0
	c-0.1,0-0.2,0.2-0.3,0.4l0,0c0-0.3,0-0.6-0.1-0.6s-0.3,0.3-0.4,0.9l0,0c-0.1,0-0.3,0.3-0.3,0.6c0,0,0,0-0.1-0.1
	c-0.1,0-0.3,0.3-0.3,0.7c0-0.1-0.1-0.2-0.1-0.2c-0.1,0-0.2,0.2-0.3,0.5c0,0,0-0.1-0.1-0.1s-0.2,0.1-0.3,0.3c0,0,0-0.1-0.1-0.1
	c0,0,0,0-0.1,0c0-0.2,0-0.4-0.1-0.4s-0.3,0.4-0.4,0.9c0-0.1-0.1-0.2-0.1-0.2c-0.1,0-0.3,0.3-0.3,0.8c0,0.1,0,0.1,0,0.2
	c0,0,0,0-0.1,0s-0.1,0.1-0.2,0.2c0-0.1-0.1-0.1-0.1-0.1c-0.1,0-0.1,0.1-0.2,0.2c0,0,0-0.1-0.1-0.1s-0.3,0.5-0.4,1.2c0,0,0,0,0,0.1
	l0,0c-0.1,0-0.3,0.4-0.3,0.9c0,0.1,0,0.2,0,0.3c0-0.1-0.1-0.1-0.1-0.1c-0.1,0-0.2,0.3-0.3,0.7c0-0.5,0-0.9-0.1-0.9s-0.2,0.3-0.3,0.7
	v-0.1c-0.1,0-0.3,0.3-0.4,0.7c0-0.2-0.1-0.4-0.2-0.4s-0.1,0.1-0.2,0.2c-0.1-0.3-0.2-0.6-0.3-0.6c-0.1,0-0.1,0.2-0.2,0.5
	c0-0.3-0.1-0.6-0.2-0.6s-0.2,0.2-0.2,0.4c0-0.2-0.1-0.4-0.2-0.4l0,0c0-0.1-0.1-0.2-0.1-0.2c-0.1,0-0.1,0.2-0.2,0.4
	c0-0.3-0.1-0.5-0.2-0.5c0,0-0.1,0-0.1,0.1c0-0.2-0.1-0.4-0.2-0.4s-0.2,0.3-0.3,0.6c0-0.1-0.1-0.2-0.1-0.2s-0.1,0-0.1,0.1v-0.1
	c0.1-0.4,0.1-0.8,0-0.8c-0.1-0.1-0.4,0.4-0.6,1.1c0-0.1,0-0.1,0-0.2c0-0.6,0-1.2-0.2-1.2c-0.1,0-0.2,0.2-0.3,0.5
	c0-0.5-0.1-0.9-0.2-0.9s-0.2,0.3-0.2,0.8c0-0.1-0.1-0.2-0.1-0.2c-0.1,0-0.2,0.2-0.3,0.6c0-0.6-0.1-1-0.2-1s-0.1,0.2-0.2,0.4
	l-0.1-0.1c0,0,0,0-0.1,0c0,0,0-0.1-0.1-0.1c0,0,0,0-0.1,0c0-0.2-0.1-0.3-0.1-0.3c-0.1,0-0.1,0.1-0.2,0.3c0-0.1-0.1-0.1-0.1-0.1
	c-0.1,0-0.1,0.1-0.2,0.3c0-0.1,0-0.1-0.1-0.1c0-0.5-0.1-0.9-0.2-0.9s-0.2,0.3-0.3,0.8c-0.1,0.1-0.1,0.3-0.2,0.5
	c-0.1-0.2-0.2-0.3-0.3-0.3c-0.1,0-0.1,0.1-0.1,0.1c0-0.1-0.1-0.2-0.1-0.2l0,0c0-0.3-0.1-0.6-0.2-0.6s-0.2,0.2-0.3,0.5L263,235
	c-0.1,0-0.1,0.1-0.2,0.2l-0.1-0.1c-0.1,0-0.1,0.1-0.2,0.2c0-0.2-0.1-0.4-0.2-0.4s-0.1,0.1-0.2,0.3c0-0.1-0.1-0.1-0.1-0.1s0,0-0.1,0
	c0-0.3-0.1-0.6-0.1-0.6c-0.1,0-0.3,0.5-0.4,1.1c0-0.6,0-1.2-0.2-1.2c-0.1,0-0.2,0.3-0.3,0.8c0-0.1-0.1-0.1-0.1-0.1
	c-0.1,0-0.2,0.2-0.3,0.6c0-0.3-0.1-0.5-0.2-0.5s-0.2,0.2-0.2,0.5l-0.1-0.1c-0.1,0-0.1,0.1-0.2,0.3l-0.1-0.1c-0.1,0-0.1,0.1-0.2,0.2
	c0-0.3,0-0.5-0.1-0.5s-0.2,0.2-0.3,0.5c0-0.1-0.1-0.2-0.1-0.2c-0.1,0-0.1,0.1-0.2,0.2c0-0.1-0.1-0.2-0.1-0.2c-0.1,0-0.3,0.4-0.4,1
	c0,0.1,0,0.1,0,0.2c-0.1,0-0.1,0-0.2,0.1c0.1-0.5,0-0.9-0.1-0.9s-0.3,0.5-0.5,1.1l0,0l0,0v-0.1c0-0.6,0.1-1.1,0-1.1
	s-0.3,0.3-0.4,0.7c0,0,0,0,0,0.1c0-0.1-0.1-0.2-0.1-0.2l0,0c0-0.2,0-0.4-0.1-0.4s-0.2,0.2-0.3,0.6c0-0.1,0-0.2-0.1-0.2
	s-0.2,0.2-0.3,0.4c0-0.2,0-0.3-0.1-0.3s-0.1,0.1-0.2,0.3c0-0.1,0-0.1-0.1-0.1s-0.3,0.4-0.4,1.1l0,0c-0.1,0-0.2,0.1-0.2,0.3
	c0-0.1-0.1-0.2-0.1-0.2c-0.1,0-0.2,0.4-0.2,1l0,0c0-0.5,0-0.9-0.2-0.9c0,0-0.1,0.2-0.2,0.4c0-0.2-0.1-0.4-0.1-0.4
	c-0.1,0-0.3,0.4-0.3,1.1c-0.1,0.1-0.1,0.2-0.1,0.4c0-0.3-0.1-0.6-0.2-0.6c-0.1,0-0.3,0.4-0.3,0.9c0,0.1,0,0.2,0,0.3c0,0,0,0-0.1,0.1
	c0,0,0,0-0.1-0.1c-0.1,0-0.2,0.1-0.3,0.3c0-0.1-0.1-0.1-0.1-0.1c-0.1,0-0.1,0.1-0.2,0.2c0-0.5,0-0.9-0.2-0.9c-0.1,0-0.3,0.6-0.4,1.4
	l0,0l0,0c-0.1,0-0.3,0.4-0.4,0.9c0,0.1,0,0.2,0,0.2l-0.1-0.1c-0.1,0-0.2,0.2-0.3,0.5l0,0c0-0.3,0-0.6-0.1-0.6s-0.3,0.3-0.3,0.6
	c0-0.1-0.1-0.2-0.1-0.3c-0.1,0-0.1,0.1-0.2,0.2c0-0.3-0.1-0.6-0.1-0.6c-0.1,0-0.2,0.2-0.3,0.6c-0.1,0.1-0.1,0.2-0.2,0.3l0,0
	c-0.1,0-0.2,0.1-0.2,0.2c0-0.1-0.1-0.1-0.1-0.1c-0.1,0-0.2,0.2-0.3,0.4c0-0.2-0.1-0.3-0.2-0.3c0,0,0,0-0.1,0c0,0,0-0.1-0.1-0.1
	s-0.3,0.3-0.4,0.8c0,0.2-0.1,0.4,0,0.6c0,0,0,0-0.1,0l0,0c0-0.4-0.1-0.8-0.2-0.8c-0.1,0-0.3,0.3-0.3,0.8c0,0.1,0,0.1,0,0.2
	c0,0,0,0-0.1,0c0,0,0,0,0-0.1c0-0.4-0.1-0.7-0.2-0.7c0,0-0.1,0-0.1,0.1l0,0c-0.1,0-0.2,0.2-0.2,0.4c0-0.2-0.1-0.3-0.2-0.3l0,0
	c0-0.3-0.1-0.6-0.2-0.6c-0.1,0-0.2,0.3-0.3,0.7c0,0,0,0-0.1-0.1c-0.1,0-0.2,0.1-0.2,0.2c0-0.2-0.1-0.4-0.2-0.4c0,0-0.1,0-0.1,0.1
	c-0.1,0.1-0.2,0.3-0.3,0.7c-0.1-0.1-0.1-0.2-0.2-0.2h-0.1c0-0.2-0.1-0.3-0.2-0.3c-0.1,0-0.2,0.2-0.3,0.5c0-0.1-0.1-0.2-0.2-0.2
	c0-0.5-0.1-0.9-0.2-0.9c-0.1,0-0.2,0.3-0.3,0.8l0,0c0,0,0,0-0.1,0c0.1-0.7,0.1-1.2,0-1.3c0,0-0.1,0-0.1,0.1c0-0.1,0-0.1-0.1-0.1
	s-0.3,0.6-0.4,1.4c0,0.1,0,0.3,0,0.4c0-0.1-0.1-0.1-0.1-0.1c-0.1,0-0.2,0.1-0.2,0.3c0-0.1,0-0.1,0-0.1c0-0.7,0-1.3-0.2-1.3
	c-0.1,0-0.2,0.3-0.3,0.7c-0.1,0.1-0.1,0.4-0.2,0.6c0-0.2-0.1-0.4-0.2-0.4c0,0-0.1,0-0.1,0.1l0,0c-0.1,0-0.3,0.2-0.3,0.4l-0.1-0.1
	c-0.1,0-0.2,0.1-0.3,0.3l0,0c0-0.2-0.1-0.3-0.2-0.3c0,0-0.1,0-0.1,0.1c0-0.2-0.1-0.4-0.2-0.4c-0.1,0-0.3,0.5-0.3,1.1l0,0l0,0
	c0-0.1,0-0.1,0-0.2c0-0.8,0-1.5-0.2-1.5c-0.1,0-0.3,0.7-0.3,1.5v0.1c-0.1,0-0.1,0-0.2,0.1c0-0.1-0.1-0.1-0.1-0.1h-0.1l0,0
	c-0.1,0-0.2,0.1-0.3,0.4c0,0,0,0-0.1,0s-0.2,0.1-0.2,0.3c0-0.2-0.1-0.3-0.2-0.3c0,0-0.1,0-0.1,0.1c0-0.2-0.1-0.3-0.2-0.3
	c-0.1,0-0.1,0.1-0.2,0.2c0-0.4,0-0.7-0.1-0.7s-0.4,0.4-0.4,1.1c0-0.1,0-0.1-0.1-0.2c0-0.2-0.1-0.3-0.1-0.3c-0.1,0-0.2,0.1-0.2,0.2
	h-0.1c-0.1,0.2-0.2,0.5-0.4,0.7c0-0.1,0-0.3-0.1-0.4c0,0,0-0.1,0.1-0.1c-0.1,0-0.1,0-0.2,0c-0.1,0-0.1,0-0.2-0.1v0.1h-0.1
	c-0.1,0-0.2-0.1-0.3-0.1v0.1c-0.1,0-0.1,0-0.2,0c0,0,0,0,0,0.1c0-0.1,0-0.2,0-0.2v-0.2V246c-0.2,0,0.5-0.1-0.5,0l0,0v0.1v0.4
	c0,0,0,0,0,0.1l0,0c-0.1,0-0.1-0.1-0.3-0.1c0,0.1,0,0.2,0,0.2c0,0.1,0,0.2,0,0.3c0,0.2,0,0.3,0,0.4l0,0l0,0c0-0.2,0-0.4-0.1-0.4
	s-0.1,0-0.1,0.1c0-0.3-0.1-0.5-0.2-0.5c0,0-0.1,0.1-0.2,0.2c0-0.1-0.1-0.2-0.1-0.2c-0.1,0-0.2,0.3-0.3,0.7c0-0.1-0.1-0.2-0.1-0.2
	c-0.1,0-0.1,0-0.2,0.1c0-0.3-0.1-0.5-0.2-0.5c-0.1,0-0.2,0.2-0.3,0.5l0,0c0,0-0.1,0-0.1,0.1c0-0.4,0-0.6-0.1-0.6s-0.3,0.5-0.4,1.2
	l0,0v-0.1c0-0.6-0.1-1-0.2-1c0,0,0,0-0.1,0c0-0.1-0.1-0.1-0.1-0.1s-0.1,0-0.1,0.1c0-0.3-0.1-0.5-0.2-0.5c-0.1,0-0.2,0.4-0.3,1
	c0,0,0,0-0.1,0c0-0.2-0.1-0.3-0.1-0.3c-0.1,0-0.3,0.4-0.3,0.9l-0.1,0.1l0,0c-0.1,0-0.2,0.1-0.3,0.2c0-0.3-0.1-0.5-0.2-0.5
	c-0.1,0-0.1,0.1-0.2,0.2c0-0.1-0.1-0.1-0.1-0.1s-0.1,0-0.1,0.1c0-0.5,0-1-0.1-1s-0.2,0.1-0.2,0.3c0-0.1-0.1-0.1-0.1-0.1
	c-0.1,0-0.1,0.1-0.2,0.2l0,0c-0.1,0-0.3,0.3-0.3,0.7l0,0c0-0.3-0.1-0.6-0.2-0.6c0,0-0.1,0-0.1,0.1l0,0c-0.1,0-0.1,0-0.1,0.1
	c0-0.3-0.1-0.6-0.2-0.6c-0.1,0-0.2,0.3-0.3,0.7l0,0c0,0,0,0,0-0.1c0.1-0.8,0.1-1.4,0-1.5c-0.1,0-0.3,0.4-0.4,1
	c0-0.1-0.1-0.1-0.2-0.1l0,0c0.1-0.2,0-0.4-0.1-0.4s-0.3,0.1-0.4,0.3c0-0.3-0.1-0.5-0.3-0.5c-0.1,0-0.2,0.3-0.2,0.7
	c0,0.1,0,0.2,0,0.2H227c0-0.1,0-0.1,0-0.2c0-0.3,0-0.5-0.2-0.5c-0.1,0-0.2,0.1-0.3,0.3l0,0c0-0.1-0.1-0.2-0.2-0.2
	c-0.1,0-0.2,0.1-0.3,0.3l-0.1-0.1c-0.1,0-0.2,0.1-0.2,0.1s0,0,0-0.1c0-0.5-0.1-0.9-0.2-0.9c-0.1,0-0.2,0.2-0.3,0.5
	c0,0.1-0.1,0.1-0.1,0.2c0-0.2-0.1-0.3-0.2-0.3c-0.1,0-0.2,0.2-0.3,0.4l0,0c0-0.1-0.1-0.1-0.1-0.1c-0.1,0-0.1,0-0.2,0.2
	c0-0.1-0.1-0.1-0.1-0.2c-0.1,0-0.1,0.1-0.2,0.1c0-0.3-0.1-0.5-0.2-0.5c-0.1,0-0.3,0.4-0.4,0.9v0.1l0,0c-0.1,0-0.1,0-0.2,0.1
	c0-0.1-0.1-0.1-0.1-0.1c-0.1,0-0.1,0.1-0.2,0.2c0-0.1-0.1-0.2-0.1-0.2s0,0-0.1,0c0-0.1-0.1-0.1-0.1-0.1s0,0-0.1,0
	c0-0.1-0.1-0.1-0.1-0.1c-0.1,0-0.3,0.4-0.3,0.9c0-0.3-0.2-0.5-0.2-0.5c-0.1,0.1-0.2,0.3-0.3,0.8c0-0.2-0.1-0.3-0.2-0.3
	c0-0.3-0.1-0.6-0.1-0.6s-0.1,0.1-0.1,0.2c0-0.3-0.1-0.4-0.1-0.4c-0.1,0-0.1,0.1-0.2,0.3c0-0.3-0.1-0.4-0.1-0.4
	c-0.1,0-0.3,0.6-0.4,1.4l-0.1-0.1c-0.1,0-0.2,0.1-0.2,0.3c0-0.4,0-0.7-0.1-0.7c0,0-0.1,0-0.1,0.1c0-0.2-0.1-0.3-0.1-0.3
	c-0.1,0-0.3,0.6-0.4,1.4c0-0.1,0-0.1,0-0.2c0.1-0.9,0.1-1.7-0.1-1.7c-0.1,0-0.2,0.2-0.3,0.6c0-0.1-0.1-0.2-0.1-0.2
	c-0.1,0-0.2,0.2-0.3,0.6l0,0c-0.1,0-0.1,0.1-0.2,0.3c0,0-0.1,0.1-0.1,0.2c0,0,0,0-0.1,0l0,0c0-0.2-0.1-0.3-0.2-0.3
	c-0.1,0-0.2,0.2-0.2,0.4c-0.1,0-0.2,0.2-0.2,0.4h-0.1c0,0,0,0-0.1,0c0-0.1-0.1-0.1-0.1-0.1c-0.1,0-0.2,0.1-0.2,0.4l0,0
	c0-0.4-0.1-0.7-0.2-0.7c-0.1,0-0.2,0.2-0.2,0.5c0-0.3-0.1-0.5-0.2-0.5c-0.1,0-0.2,0.2-0.3,0.6c0-0.1-0.1-0.2-0.2-0.2
	c0,0-0.1,0-0.1,0.1c0,0,0-0.1-0.1-0.1s-0.2,0.1-0.3,0.4c-0.1,0-0.1,0.2-0.2,0.4c0,0,0,0-0.1,0s-0.1,0-0.2,0.2c0,0-0.1,0.1-0.1,0.2
	h-0.1l0,0c0-0.2-0.1-0.4-0.2-0.4c-0.1,0-0.1,0-0.2,0.1c0-0.1-0.1-0.1-0.1-0.1h-0.1c0-0.1-0.1-0.3-0.2-0.3h-0.1c0,0,0-0.1-0.1-0.1
	c0-0.5-0.1-0.9-0.2-0.9c-0.1,0-0.1,0.1-0.2,0.2c0-0.1-0.1-0.1-0.1-0.1l0,0c0-0.5-0.1-0.8-0.2-0.8c-0.1,0-0.2,0.4-0.3,1l0,0
	c-0.1,0-0.1,0.1-0.2,0.3c0-0.2-0.1-0.3-0.1-0.3c-0.1,0-0.2,0.2-0.3,0.4c0-0.4-0.1-0.7-0.2-0.7c-0.1,0-0.2,0.2-0.3,0.5
	c0-0.2-0.1-0.4-0.2-0.4c-0.1,0-0.2,0.3-0.3,0.8l0,0l0,0c0,0,0,0-0.1,0c0-0.2-0.1-0.3-0.1-0.3c0-0.1-0.1-0.1-0.1-0.1
	c-0.1,0-0.2,0.3-0.3,0.6c0-0.1-0.1-0.1-0.1-0.1s-0.1,0-0.1,0.1c0-0.5,0-0.9-0.1-0.9s-0.2,0.2-0.3,0.5c0,0,0-0.1-0.1-0.1
	c0,0,0,0-0.1,0c0-0.3,0-0.6-0.1-0.6s-0.2,0.2-0.3,0.4l-0.1-0.1c0-0.3-0.1-0.5-0.2-0.6c-0.1,0-0.2,0.2-0.3,0.6l0,0c0,0,0,0-0.1,0
	c0-0.2-0.1-0.3-0.1-0.4c0-0.6,0-1.1-0.2-1.1c-0.1,0-0.2,0.3-0.3,0.8c-0.1-0.3-0.2-0.5-0.3-0.5s-0.2,0.4-0.1,0.9l-0.1-0.1
	c-0.1,0-0.1,0.1-0.2,0.2c0-0.1-0.1-0.2-0.1-0.2h-0.1c0-0.1-0.1-0.2-0.2-0.2l0,0c0-0.2-0.1-0.3-0.2-0.3c-0.1,0-0.1,0-0.2,0.1v-0.1
	c0-0.4,0-0.7-0.2-0.7c-0.1,0-0.3,0.2-0.3,0.6H206c0,0,0,0-0.1,0l0,0c0-0.3-0.1-0.5-0.2-0.5c-0.1,0-0.2,0.2-0.3,0.4l0,0
	c0,0,0,0-0.1,0l0,0c0-0.2-0.1-0.3-0.2-0.4c-0.1,0-0.2,0.1-0.3,0.3c-0.1,0-0.1,0.1-0.1,0.1l0,0c0,0,0,0-0.1,0c0,0-0.1-0.1-0.2-0.1
	c0,0,0,0-0.1,0c0-0.1-0.1-0.2-0.2-0.2c-0.1,0-0.1,0-0.2,0.1h-0.1l0,0c0-0.2-0.1-0.3-0.2-0.3l0,0c0-0.1-0.1-0.1-0.2-0.1
	c0,0,0,0-0.1,0c0-0.1-0.1-0.2-0.2-0.3c0-0.1-0.1-0.3-0.2-0.3c0,0-0.1,0-0.1,0.1l-0.1-0.1c-0.1,0-0.1,0.1-0.2,0.2
	c0-0.1-0.1-0.1-0.1-0.1c-0.1,0-0.2,0.1-0.2,0.3c0-0.1,0-0.3,0-0.5c-0.1,0-0.2,0-0.2,0l0,0v-0.1h-0.1c-0.1-0.1-0.2-0.1-0.4-0.1
	c0,0,0,0.1-0.1,0.1c-0.2-0.1-0.2,0-0.2,0c0-0.1-0.1-0.1-0.1-0.1c-0.1,0-0.3,0.2-0.4,0.5c0,0.1,0,0.2,0,0.3h-0.1
	c0-0.2-0.1-0.3-0.2-0.3c-0.1,0-0.1,0-0.2,0.1c0-0.2-0.1-0.5-0.2-0.5c-0.1,0-0.2,0.1-0.3,0.3l-0.1-0.1c-0.1,0-0.1,0-0.1,0.1l0,0
	c0,0,0,0-0.1,0c0-0.3-0.1-0.4-0.2-0.4c0,0,0,0-0.1,0c0-0.1-0.1-0.2-0.2-0.3c-0.1,0-0.2,0.2-0.3,0.5l0,0c0-0.1-0.1-0.1-0.1-0.1
	c0-0.1-0.1-0.2-0.2-0.2c0,0-0.1,0-0.1,0.1l0,0c-0.1,0-0.1,0.1-0.2,0.2c0-0.1,0-0.1,0-0.2c0-0.7,0-1.3-0.2-1.3
	c-0.1,0-0.3,0.6-0.3,1.3l0,0c0,0.1,0,0.1-0.1,0.2h-0.1h-0.1l0,0c0,0,0,0-0.1,0c0-0.1-0.1-0.3-0.2-0.3h-0.1c0-0.1-0.1-0.2-0.2-0.2
	c-0.1,0-0.3,0.2-0.3,0.5v0.1l0,0c0-0.1-0.1-0.2-0.1-0.2c0-0.6-0.1-1-0.2-1c-0.1,0-0.3,0.5-0.3,1.2v0.1c0,0,0,0-0.1,0c0,0,0,0-0.1,0
	c0-0.1-0.1-0.1-0.2-0.1c0,0-0.1,0-0.1,0.1c0,0-0.1-0.1-0.2-0.1c-0.1,0-0.1,0-0.1,0c0-0.1-0.1-0.3-0.3-0.3l0,0c0-0.3-0.1-0.5-0.2-0.5
	c-0.1,0-0.1,0-0.2,0.1c0,0-0.1,0-0.1,0.1c0-0.7-0.1-1.3-0.3-1.3c-0.1,0-0.3,0.6-0.3,1.3c0,0.1,0,0.3,0,0.4l0,0v-0.1
	c0-0.5-0.2-0.8-0.3-0.8s-0.1,0.1-0.2,0.4c0,0,0-0.1-0.1-0.1s-0.1,0.1-0.2,0.2c0-0.1-0.1-0.1-0.2-0.1c-0.1,0-0.3,0.2-0.3,0.4v0.1
	h-0.1c0-0.2-0.1-0.4-0.2-0.5c0-0.1-0.1-0.2-0.2-0.3c0-0.2-0.1-0.4-0.2-0.4c-0.1,0-0.2,0-0.2,0.2c0-0.1-0.1-0.2-0.1-0.2
	c-0.1,0-0.2,0.1-0.3,0.3l0,0c0-0.1-0.1-0.2-0.2-0.2c-0.1,0-0.2,0.2-0.2,0.4l-0.1-0.1c0-0.3-0.1-0.6-0.2-0.6l0,0c0-0.6,0-0.9-0.1-1
	c-0.1,0-0.3,0.5-0.4,1.3c0-0.1-0.1-0.2-0.2-0.2c0-0.1-0.1-0.1-0.2-0.2c-0.1,0-0.1,0-0.1,0.1c0-0.3-0.1-0.5-0.1-0.5
	c-0.1,0-0.2,0.1-0.3,0.3c0-0.1-0.1-0.1-0.1-0.1c-0.1,0-0.3,0.2-0.3,0.6c0,0.1,0,0.1,0,0.1l0,0c0-0.3,0-0.6-0.1-0.6s-0.1,0-0.2,0.1
	H188c-0.1,0-0.3,0.1-0.3,0.3c0,0.1,0,0.1,0,0.2c-0.1,0-0.1,0-0.2,0.1c0-0.1,0-0.1,0-0.2c0.1-0.5,0-0.9-0.2-1c-0.1,0-0.2,0.2-0.3,0.6
	c-0.1,0-0.2,0.2-0.3,0.4l0,0c-0.1,0-0.2,0.1-0.2,0.2c0-0.1-0.1-0.1-0.1-0.1s0,0-0.1,0c0-0.3-0.1-0.5-0.2-0.5c-0.1,0-0.3,0.3-0.3,0.7
	c0,0,0,0-0.1,0c0-0.1-0.1-0.2-0.1-0.2c-0.1,0-0.2,0.2-0.3,0.4c-0.1,0.1-0.2,0.3-0.2,0.6c0,0,0,0-0.1,0.1l0,0c-0.1,0-0.3,0.2-0.4,0.5
	l0,0h-0.1c0-0.2-0.1-0.3-0.2-0.3l0,0c0-0.1,0-0.1,0-0.2l0,0c0.1-0.6,0.1-1.2-0.1-1.2l-0.1,0.1c0-0.1,0-0.1-0.1-0.1s-0.3,0.5-0.4,1.1
	c0-0.1-0.1-0.1-0.1-0.1c-0.1,0-0.3,0.1-0.3,0.4c0,0.2,0,0.3,0.2,0.4l0,0c-0.1-0.1-0.2-0.1-0.3-0.2c0-0.1,0-0.2,0-0.3
	c0-0.4-0.1-0.7-0.3-0.7c-0.1,0-0.1,0.1-0.2,0.2c0-0.1-0.1-0.1-0.1-0.1v-0.1c0.1-0.6,0-1.2-0.1-1.2s-0.3,0.5-0.4,1.2
	c0,0.1,0,0.3,0,0.4c-0.1,0-0.1-0.1-0.2-0.1c0-0.1,0-0.2,0-0.3c0.1-0.5,0-1-0.2-1c0,0-0.1,0-0.1,0.1c0-0.3-0.1-0.5-0.2-0.5
	c-0.1,0-0.3,0.4-0.3,0.9c0,0.1,0,0.2,0,0.3h-0.1c0-0.1,0-0.2,0-0.2c0.1-0.5,0.1-1-0.1-1c0,0-0.1,0-0.1,0.1c0-0.1-0.1-0.2-0.2-0.2
	c-0.1,0-0.2,0.1-0.2,0.4c0,0,0,0-0.1,0s-0.1,0-0.2,0.1c0.1-0.4,0-0.8-0.1-0.8s-0.2,0.1-0.3,0.4c-0.1,0.1-0.2,0.2-0.2,0.5l0,0
	c0-0.1,0-0.3,0-0.4c0.1-0.6,0-1.1-0.1-1.1s-0.2,0.2-0.3,0.6c0.1-0.6,0-1.2-0.1-1.2s-0.3,0.4-0.4,0.9l0,0c0-0.1,0-0.2,0-0.2
	c0-0.6-0.1-1.2-0.2-1.2c-0.1,0-0.1,0.1-0.2,0.2c0,0,0-0.1-0.1-0.1s-0.2,0.1-0.3,0.4c0,0,0,0-0.1,0s-0.2,0.1-0.3,0.3
	c0-0.2-0.1-0.3-0.2-0.3c-0.1,0-0.2,0.1-0.2,0.4l-0.1-0.1h-0.1c0-0.1-0.1-0.2-0.2-0.2c-0.1,0-0.2,0.1-0.3,0.3
	c-0.2-0.1-0.3-0.2-0.5-0.3c0-0.3-0.1-0.5-0.2-0.5c-0.1,0-0.2,0.1-0.2,0.3c-0.1,0-0.1-0.1-0.2-0.1c0.1-0.6,0.1-1.1-0.1-1.1
	c-0.1,0-0.1,0.1-0.2,0.2c0-0.1-0.1-0.1-0.1-0.2c-0.1,0-0.3,0.2-0.3,0.6c0-0.1-0.1-0.2-0.2-0.2c0,0,0,0,0-0.1c0-0.2-0.1-0.4-0.2-0.5
	h-0.1c0-0.2-0.1-0.3-0.2-0.3h-0.1c0-0.3,0-0.6-0.1-0.6s-0.2,0.2-0.3,0.4c0,0-0.1,0-0.1,0.1c0-0.2-0.1-0.4-0.2-0.4l0,0
	c0-0.2-0.1-0.3-0.2-0.3c-0.1,0-0.3,0.3-0.3,0.8l0,0c0-0.2,0-0.4,0-0.6c0.1-0.6,0-1.1-0.1-1.1s-0.2,0.1-0.2,0.4l0,0
	c0-0.2-0.1-0.3-0.2-0.3c-0.1,0-0.2,0.2-0.2,0.5c0-0.4-0.1-0.7-0.2-0.6c0,0-0.1,0.1-0.1,0.2c0-0.2-0.1-0.3-0.1-0.3s-0.1,0-0.1,0.1
	c0-0.3-0.1-0.5-0.1-0.6c0-0.2,0-0.4-0.1-0.4s-0.1,0.1-0.2,0.3c0-0.2-0.1-0.4-0.1-0.4c-0.1,0-0.2,0.2-0.3,0.4c0.1-0.4,0-0.8-0.1-0.8
	s-0.3,0.3-0.4,0.8c0-0.2-0.1-0.3-0.1-0.3c-0.1,0-0.2,0.2-0.3,0.5l0,0l0,0c0-0.1-0.1-0.1-0.1-0.1c0-0.1-0.1-0.2-0.2-0.2l0,0l0,0
	c0.1-0.5,0.1-0.9-0.1-0.9c-0.1,0-0.3,0.4-0.4,0.9v0.1c0,0,0,0,0,0.1l0,0l0,0c0-0.1,0-0.3,0-0.5c0.1-0.6,0-1.1-0.1-1.1
	s-0.3,0.4-0.4,1.1c0,0.1,0,0.1,0,0.2c-0.1,0-0.1-0.1-0.2-0.1c0-0.1,0.1-0.2,0.1-0.4c0.1-0.3,0-0.7-0.1-0.7s-0.2,0.1-0.2,0.2
	c0.1-0.5,0-0.9-0.1-0.9s-0.1,0.1-0.2,0.2c0-0.6-0.2-1.1-0.3-1.1s-0.2,0.5-0.2,1.2c0,0.4,0.1,0.7,0.2,0.9c0,0-0.1,0-0.1-0.1
	c-0.1,0-0.1-0.1-0.2-0.1c0.1-0.2,0.1-0.5,0-0.8c0.1-0.5,0-0.9-0.1-1c-0.1,0-0.3,0.3-0.4,0.8v-0.1c0.1-0.5,0-1-0.1-1.1
	c-0.1,0-0.2,0.2-0.3,0.5c0-0.4,0-0.6-0.1-0.7c-0.1,0-0.2,0.2-0.3,0.5c0-0.2-0.1-0.4-0.2-0.4c-0.1,0-0.2,0.2-0.3,0.4
	c0-0.2-0.1-0.3-0.1-0.3h-0.1c0-0.3,0-0.5-0.1-0.5s-0.2,0.1-0.3,0.4l0,0c0-0.2-0.1-0.4-0.2-0.4l0,0c0-0.5,0-0.8-0.1-0.8
	c0,0-0.1,0-0.1,0.1c0-0.3,0-0.6-0.1-0.6s-0.4,0.6-0.5,1.4c0,0-0.1,0-0.1-0.1c0.1-0.9,0.1-1.6,0-1.6s-0.2,0.3-0.3,0.8
	c0-0.2-0.1-0.4-0.2-0.4c-0.1,0-0.1,0.1-0.2,0.1c0-0.3-0.1-0.6-0.2-0.6c-0.1,0-0.2,0.1-0.2,0.3c0,0,0,0-0.1,0c0-0.1-0.1-0.2-0.1-0.2
	H162c0-0.1-0.1-0.2-0.2-0.2c0,0-0.1,0-0.1,0.1c0-0.3,0-0.5-0.1-0.5l0,0c0-0.2-0.1-0.3-0.2-0.4c0,0-0.1,0-0.1,0.1l-0.1-0.1
	c-0.1,0-0.2,0.1-0.3,0.2c0-0.6,0-1-0.2-1c-0.1,0-0.2,0.3-0.3,0.6l0,0v-0.1c0-0.2-0.1-0.5-0.2-0.5c-0.1,0-0.1,0-0.2,0.1
	c0,0,0-0.1-0.1-0.1h-0.1c0,0,0,0-0.1,0v-0.1c0-0.2-0.1-0.3-0.3-0.4c0-0.2-0.1-0.3-0.2-0.4c-0.1,0-0.1,0-0.2,0.1c0-0.4,0-0.7-0.1-0.7
	h-0.1c-0.1-0.2-0.1-0.4-0.2-0.4c-0.1,0-0.2,0.2-0.2,0.5l-0.1-0.1c-0.1,0-0.2,0.1-0.3,0.3l0,0c0-0.7-0.1-1.2-0.2-1.2
	c-0.1,0-0.1,0.1-0.2,0.3c0-0.2-0.1-0.3-0.2-0.3c-0.1,0-0.3,0.4-0.3,0.8c0,0.1,0,0.2,0,0.2l-0.1,0.1l0,0l0.1-0.1
	c0-0.1-0.1-0.2-0.2-0.2c-0.1,0-0.1,0-0.2,0c0-0.1-0.1-0.2-0.2-0.2c0-0.1-0.1-0.2-0.2-0.3l0,0c0-0.2-0.1-0.4-0.2-0.4H156
	c0-0.5,0-1-0.1-1s-0.2,0.2-0.3,0.6c0-0.3-0.1-0.5-0.1-0.5c-0.1,0-0.1,0.1-0.2,0.3c0-0.1-0.1-0.2-0.1-0.2c-0.1,0-0.3,0.5-0.3,1.2
	c0,0.1,0,0.1,0,0.2l0,0c0,0,0,0-0.1,0c0-0.4-0.1-0.7-0.2-0.7c-0.1,0-0.1,0-0.2,0.1c0,0-0.1,0-0.1,0.1c0-0.2,0-0.4-0.1-0.4
	s-0.2,0.2-0.3,0.4c0-0.1-0.1-0.1-0.1-0.2c-0.1,0-0.1,0-0.2,0.1l0,0c0-0.2,0-0.4-0.1-0.4s-0.1,0-0.2,0.1c0-0.1-0.1-0.1-0.1-0.1h-0.1
	l0,0c-0.1,0-0.2,0.1-0.3,0.3c0,0,0,0,0-0.1l0,0c0.1-0.4,0-0.7-0.1-0.7s-0.1,0-0.2,0.1l0,0c-0.1,0-0.1,0-0.2,0.1l-0.1-0.1
	c0-0.3-0.1-0.5-0.2-0.5c-0.1,0-0.1,0.1-0.2,0.2c0,0-0.1,0-0.1,0.1c0-0.1-0.1-0.1-0.1-0.1h-0.1c0-0.1-0.1-0.2-0.1-0.2s0,0-0.1,0
	c0-0.1-0.1-0.2-0.2-0.3H151l0,0c0,0,0,0-0.1,0c0-0.1-0.1-0.2-0.2-0.2l0,0c0-0.3-0.1-0.4-0.2-0.4c-0.1,0-0.3,0.3-0.3,0.7l0,0
	c-0.1,0-0.1,0-0.2,0c0.1-0.4,0-0.7-0.1-0.7h-0.1l-0.1-0.1c-0.1,0-0.2,0.1-0.2,0.2c0-0.3-0.1-0.5-0.2-0.5c0,0-0.1,0-0.1,0.1
	c0,0,0-0.1-0.1-0.1s-0.3,0.3-0.3,0.7c0,0.1,0,0.2,0,0.2l0,0c0-0.1,0-0.2,0-0.3c0-0.4,0-0.8-0.2-0.8c0-0.1-0.1-0.2-0.1-0.2
	c-0.1,0-0.1,0-0.2,0.2c0-0.3,0-0.5-0.1-0.6c0,0-0.1,0-0.1,0.1c0-0.1-0.1-0.1-0.1-0.1s-0.1,0-0.1,0.1l-0.1,0.1c0-0.2-0.1-0.3-0.1-0.3
	c-0.1,0-0.2,0.2-0.3,0.6c0,0,0-0.1-0.1-0.1h-0.1c0.1-0.7,0-1.2-0.1-1.3c-0.1,0-0.2,0.2-0.3,0.6c0-0.4,0-0.6-0.1-0.6c0,0,0,0,0-0.1
	c0.1-0.6,0.2-1,0.1-1.1c0,0-0.1,0-0.2,0.1c0-0.1-0.1-0.1-0.1-0.1c0-0.2-0.1-0.3-0.1-0.3s-0.1,0-0.1,0.1l0,0c-0.1,0-0.2,0-0.2,0.1
	l-0.1-0.1h-0.1c0-0.1,0.1-0.2,0.1-0.3c0-0.3-0.1-0.5-0.2-0.5c0,0-0.1,0-0.1,0.1c0-0.1-0.1-0.1-0.2-0.1c-0.1,0-0.1,0-0.2,0.1
	c0,0,0,0,0-0.1c0.1-0.3,0-0.6-0.2-0.6l0,0c0-0.2-0.1-0.4-0.2-0.4c-0.1,0-0.3,0.2-0.3,0.5s0.1,0.5,0.2,0.6l0,0
	c-0.1-0.1-0.2-0.2-0.3-0.2c0-0.1,0.1-0.2,0.1-0.3c0-0.4,0-0.7-0.2-0.7c0,0-0.1,0-0.1,0.1l0,0c-0.1,0-0.2,0-0.2,0.1c0,0,0,0-0.1,0
	h-0.1c0-0.1-0.1-0.1-0.1-0.1c0-0.1-0.1-0.2-0.2-0.2c-0.1,0-0.1,0-0.2,0.1c0-0.2-0.1-0.3-0.2-0.3c-0.1,0-0.3,0.2-0.3,0.5v0.1h-0.1
	v-0.1c0.1-0.3,0-0.6-0.1-0.7c-0.1,0-0.2,0-0.2,0.2l0,0c-0.1,0-0.2,0.1-0.3,0.3c-0.1-0.1-0.1-0.1-0.2-0.1c0-0.2,0-0.3-0.1-0.4
	c-0.1,0-0.1,0-0.2,0.1c-0.1-0.3-0.2-0.5-0.3-0.5s-0.1,0.1-0.2,0.2l0,0l0,0c0,0-0.1,0-0.1,0.1l-0.1-0.1c-0.1,0-0.1,0-0.2,0.1
	c0,0,0,0,0-0.1s0-0.1,0-0.2c0-0.3-0.1-0.5-0.2-0.5c-0.1,0-0.3,0.2-0.3,0.5c0,0.1,0,0.1,0,0.2c0,0.1-0.1,0.2-0.1,0.3c0,0,0,0,0,0.1
	c0,0,0,0-0.1,0l0,0c0-0.1-0.1-0.1-0.2-0.2c-0.1,0-0.2,0-0.2,0.1c-0.1,0-0.1,0.1-0.2,0.2c-0.1,0-0.1-0.1-0.1-0.2c0,0,0-0.1,0,0
	c0-0.2-0.1-0.3-0.2-0.3c-0.1,0-0.2,0.1-0.2,0.3h-0.1c0-0.1-0.1-0.2-0.1-0.2h-0.1c0-0.2-0.1-0.3-0.2-0.3c-0.1,0-0.2,0.1-0.2,0.3
	l-0.1-0.1c-0.1-0.1-0.2,0-0.3,0.2c-0.1-0.1-0.1-0.2-0.2-0.2c-0.1,0-0.2,0.1-0.2,0.3l-0.1-0.1h-0.1c-0.1-0.2-0.2-0.4-0.3-0.4
	s-0.2,0.1-0.2,0.3c-0.1-0.1-0.1-0.1-0.2-0.2c-0.1,0-0.1,0-0.1,0l0,0c-0.1,0-0.1,0-0.2,0.1c0,0-0.1,0-0.2,0l0,0H136l-0.1-0.1
	c-0.1,0-0.1,0-0.2,0.1c0-0.1-0.1-0.1-0.1-0.2h-0.1c0-0.1-0.1-0.1-0.1-0.1c-0.1,0-0.2,0.1-0.3,0.3l0,0c0-0.3-0.1-0.6-0.2-0.7l0,0
	c-0.1-0.2-0.5-0.5-0.7,0.2c-0.1,0.1-0.1,0.2-0.1,0.3c-0.1-0.1-0.1-0.1-0.2-0.1c0-0.2-0.1-0.3-0.2-0.3h-0.1c0,0-0.1,0-0.1-0.1h-0.1
	l-0.1-0.1c-0.1,0-0.2,0-0.2,0.2l0,0c0-0.1,0-0.2,0-0.2c0.1-0.1,0-0.1-0.1-0.1c0,0,0,0-0.1,0c-0.1-0.1-0.4,0-0.4,0.2l-0.1-0.1
	c-0.1,0-0.1,0-0.2,0.1c0-0.1-0.1-0.2-0.2-0.3c-0.1-0.1-0.2,0-0.3,0.1l0,0c0-0.1,0-0.2,0.1-0.3v-0.3c0,0,0,0,0-0.1l0,0l0,0
	c-0.1,0-0.2-0.1-0.4-0.1v0.1l0,0v0.1c0,0,0,0-0.1,0.1l0,0c0.1-0.4,0-0.7-0.1-0.7s-0.2,0.1-0.3,0.2c0,0,0,0-0.1,0s-0.2,0.2-0.3,0.5
	c0-0.1-0.1-0.2-0.2-0.2c-0.1,0-0.2,0.1-0.2,0.2l0,0c0.1-0.3,0-0.6-0.1-0.6l0,0c0-0.1-0.1-0.1-0.1-0.1c-0.1,0-0.2,0.1-0.2,0.2
	c0,0,0,0,0-0.1c0,0,0,0,0-0.1s-0.1-0.2-0.2-0.3c-0.1-0.1-0.1-0.1-0.2-0.1c-0.1,0-0.1,0-0.1,0.1c0-0.2-0.1-0.3-0.2-0.3
	c-0.1,0-0.2,0.1-0.2,0.2c0-0.1-0.1-0.2-0.1-0.2h-0.1c0-0.4-0.1-0.6-0.2-0.6c-0.1,0-0.2,0.2-0.3,0.6l0,0c0-0.2-0.1-0.4-0.3-0.4l0,0
	c0-0.1,0-0.1,0-0.2c0.2-0.3,0-0.5-0.1-0.6c0.2-0.2-0.6-0.1-0.4,0.6v0.1h-0.1l0,0c-0.1,0-0.2-0.1-0.3-0.1c0-0.1,0-0.1-0.1-0.1l0,0
	h-0.1c0-0.1-0.1-0.2-0.2-0.2c0,0,0,0-0.1,0c-0.1-0.2-0.1-0.3-0.2-0.3s-0.1,0.1-0.1,0.2c0-0.3-0.1-0.4-0.2-0.4c0,0-0.1,0.1-0.1,0.2
	c-0.1-0.3-0.2-0.5-0.2-0.4c0,0-0.1,0.2-0.2,0.4c-0.4,0.1-0.4,0.3-0.4,0.5h-0.1v-0.1l-0.1,0.1c0,0-0.1,0-0.1-0.1c0,0,0,0,0,0.1
	c-0.1,0-0.2-0.1-0.5-0.1c-0.1-0.1-0.1-0.2-0.3-0.1l0,0c0-0.2-0.1-0.3-0.2-0.3s-0.3,0.3-0.3,0.7v0.1c-0.1,0-0.1,0-0.2,0v-0.1
	c0-0.2-0.1-0.4-0.2-0.5c-0.1,0-0.3,0.1-0.3,0.4c0,0.1,0,0.1,0,0.2c-0.1,0-0.1,0-0.2,0c0-0.1,0-0.2-0.1-0.3c0.1-0.1,0-0.1,0,0
	c-0.1-0.1-0.1-0.1,0,0c-0.1,0-0.2,0.1-0.3,0.1c-0.1,0-0.1,0-0.2-0.1c0-0.2-0.1-0.3-0.2-0.4c-0.1,0-0.2,0.1-0.3,0.2
	c0-0.1-0.1-0.2-0.1-0.4s-0.3,0.1-0.4,0.5v0.1h-0.1v-0.1c0-0.3-0.1-0.5-0.2-0.5s-0.1,0-0.2,0.1c0-0.1,0-0.2-0.1-0.2
	c0-0.1,0-0.1-0.1-0.1c0-0.2-0.1-0.4-0.2-0.4s-0.2,0.3-0.2,0.6c0-0.1-0.1-0.2-0.2-0.3c0,0,0,0-0.1,0c0-0.1-0.1-0.2-0.1-0.2
	c-0.1,0-0.1,0-0.2,0.1c0.1-0.8,0-1.4-0.1-1.4c0,0-0.1,0.1-0.2,0.2c0-0.1-0.1-0.2-0.1-0.2c-0.1,0-0.3,0.6-0.2,1.3c0,0.1,0,0.2,0,0.2
	c0-0.2-0.1-0.3-0.2-0.3s-0.3,0.2-0.3,0.4c0-0.3-0.1-0.6-0.2-0.6h-0.1c0-0.2-0.1-0.4-0.2-0.4s-0.2,0.2-0.3,0.5c0-0.1-0.1-0.1-0.1-0.1
	c-0.1,0-0.2,0.2-0.2,0.3c-0.1,0.1-0.2,0.3-0.3,0.5v0.1l0,0c0-0.1,0-0.2,0-0.2c0.1-0.2,0.1-0.3,0-0.4c0-0.3-0.1-0.5-0.2-0.5
	s-0.1,0.1-0.2,0.3c0-0.1-0.1-0.1-0.1-0.1l-0.1,0.1c0-0.3,0-0.5-0.1-0.5s-0.1,0-0.2,0.2c-0.1,0-0.2,0.1-0.2,0.3h-0.1
	c-0.1,0-0.1,0.1-0.2,0.2c-0.1-0.3-0.1-0.5-0.2-0.5c-0.1-0.1-0.1-0.2-0.2-0.2s-0.2,0.3-0.2,0.7c0-0.1-0.1-0.2-0.2-0.2
	c0,0-0.1,0-0.1,0.1c-0.1-0.3-0.2-0.6-0.3-0.6c-0.1,0-0.1,0.2-0.1,0.4c-0.1-0.1-0.1-0.2-0.2-0.2s-0.1,0.1-0.1,0.2
	c-0.1-0.4-0.2-0.7-0.3-0.6c-0.1,0-0.1,0.1-0.1,0.2c-0.1-0.1-0.3-0.1-0.4,0h-0.1c0-0.1,0-0.2-0.1-0.2c0-0.1,0-0.1,0-0.2
	c-0.1,0-0.1,0-0.1,0.1c0-0.5-0.1-0.8-0.2-0.8s-0.2,0.2-0.2,0.6l0,0l0,0c0.1-0.3-0.2-0.1-0.3,0.2c0,0,0,0,0,0.1
	c0-0.1-0.1-0.1-0.1-0.1l0,0c0-0.2,0-0.4,0-0.6c0-0.7-0.1-1.3-0.2-1.3s-0.1,0.1-0.1,0.2l0,0c-0.1-0.1-0.4,0.7-0.3,1.7
	c0,0.3,0.1,0.6,0.1,0.8c0-0.2-0.1-0.5-0.2-0.8c-0.4-0.1-0.5-0.1-0.6,0.1l-0.1,0.1c0,0-0.1-0.1-0.2-0.1c0,0.1,0,0.2,0,0.3
	s-0.1,0.1-0.1,0.2H110c0,0-0.1,0-0.1-0.1c0-0.3-0.1-0.4-0.1-0.4c-0.1,0-0.2,0.1-0.2,0.4l0,0h-0.1c-0.1-0.2-0.1-0.4-0.2-0.4
	s-0.1,0.2-0.1,0.5c-0.1-0.1-0.1-0.1-0.2-0.1l-0.1,0.1c0,0,0,0,0-0.1c-0.1-0.3-0.2-0.5-0.3-0.5c-0.1,0-0.1,0.2-0.2,0.5
	c0-0.1,0-0.1-0.1-0.1l0,0c0.1-0.8-0.1-1.3-0.2-1.3s-0.2,0.7-0.3,1.5c-0.1,0-0.1,0.1,0,0.2l0,0l0,0c0,0,0,0-0.1,0
	c-0.1-0.3-0.2-0.4-0.3-0.4c0,0-0.1,0-0.1,0.1c0,0,0-0.1-0.1-0.1s-0.1,0.1-0.2,0.2l-0.1-0.1c-0.3-0.3-0.4-0.1-0.3,0.3c0,0,0,0-0.1,0
	c0,0.1,0,0.2,0,0.2l0,0c0-0.1-0.1-0.3-0.4-0.3l0,0c-0.1,0-0.1,0-0.2,0s-0.1,0-0.2,0c0,0,0,0-0.1,0.1l0,0c0,0,0-0.1-0.1-0.1
	c0.1-0.7-0.1-0.6-0.2-0.4c0,0,0,0,0-0.1c0-0.3-0.1-0.4-0.1-0.4c0,0.1-0.1,0.2-0.1,0.3c-0.1-0.1-0.1-0.2-0.2-0.3c0,0-0.1,0-0.1,0.1
	c0-0.1-0.1-0.2-0.1-0.2l0,0c0.1-0.6,0-1.1-0.1-1.1s-0.3,0.5-0.4,1.1c0,0.2,0,0.3,0,0.4l-0.1,0.1c-0.1-0.3-0.2-0.5-0.3-0.5
	c-0.1,0-0.1,0.1-0.1,0.2c-0.1-0.1-0.2-0.2-0.2-0.2s-0.1,0.1-0.1,0.2c0,0,0,0-0.1,0c0,0,0,0-0.1,0c0-0.1-0.1-0.2-0.2-0.2
	s-0.1,0.1-0.2,0.2c0-0.1-0.1-0.2-0.2-0.2s-0.1,0.1-0.2,0.2c-0.1-0.2-0.2-0.3-0.2-0.3c0-0.5-0.1-0.9-0.2-1c-0.1,0-0.2,0.4-0.3,0.9
	v0.1c0,0,0,0-0.1-0.1l-0.1-0.1c-0.1-0.1-0.1-0.3-0.2-0.3s-0.1,0-0.1,0.1c-0.1-0.3-0.2-0.5-0.3-0.5c0,0-0.1,0-0.1,0.1l0,0
	c-0.1,0-0.2,0.1-0.2,0.3c-0.1,0-0.2,0-0.3,0.1c0,0,0,0-0.1,0c0-0.3-0.1-0.4-0.2-0.5c0,0,0,0-0.1-0.1s-0.2,0.1-0.3,0.3
	c-0.1-0.1-0.2-0.1-0.1-0.2c0-0.1,0-0.1-0.1,0c0-0.1-0.1-0.1-0.1-0.1s0,0-0.1,0c0-0.1-0.1-0.1-0.1-0.1c-0.1,0-0.1,0.1-0.1,0.1
	c0-0.4-0.1-0.6-0.3-0.6c-0.1,0-0.1,0.1-0.2,0.3l0,0c-0.1,0-0.3,0.4-0.3,0.9c0-0.2-0.1-0.4-0.2-0.4s-0.3,0.3-0.3,0.6
	c-0.1,0-0.1,0-0.2,0v-0.1c0-0.5-0.1-1-0.2-1c0,0-0.1,0-0.1,0.1c0-0.1-0.1-0.1-0.1-0.1c-0.1,0-0.3,0.4-0.3,0.9c0,0.1,0,0.2,0,0.3
	c-0.1,0-0.2,0-0.3,0c0-0.1,0-0.2,0-0.2c0.1-0.5,0.1-0.9,0-0.9c0,0-0.1,0-0.1,0.1c0-0.1-0.1-0.1-0.1-0.1c-0.1,0-0.2,0.2-0.2,0.4
	c0-0.1-0.1-0.1-0.1-0.1l0,0c0-0.4-0.1-0.6-0.2-0.6s-0.1,0.1-0.2,0.3s-0.2,0.4-0.2,0.8c0,0,0,0.1-0.1,0.1c0,0,0,0-0.1,0
	c0-0.1,0-0.1,0-0.2c0.1-0.5,0-0.8-0.1-0.9c-0.1,0-0.1,0.1-0.2,0.2c0-0.2-0.1-0.4-0.2-0.4s-0.2,0.1-0.2,0.3c-0.1,0-0.1,0.1-0.1,0.1
	c0-0.2-0.1-0.3-0.1-0.3c-0.1,0-0.1,0.1-0.2,0.2c0,0,0-0.1-0.1-0.1s-0.2,0.3-0.3,0.7c0-0.6-0.1-1-0.2-1s-0.2,0.4-0.3,1
	c0-0.4-0.1-0.7-0.2-0.7c0,0-0.1,0.1-0.1,0.2c0-0.2-0.1-0.3-0.1-0.3c-0.1,0-0.2,0.2-0.3,0.6c0,0,0,0-0.1-0.1h-0.1l0,0
	c0,0-0.1,0-0.1,0.1c0-0.2,0-0.3-0.1-0.3s-0.1,0-0.2,0.1c0-0.2-0.1-0.3-0.2-0.3s-0.2,0.2-0.3,0.5l-0.1,0.1c0-0.5-0.1-0.8-0.2-0.8
	c0,0,0,0-0.1,0c0-0.1-0.1-0.2-0.1-0.2c-0.1,0-0.1,0.1-0.2,0.2c0-0.3-0.1-0.4-0.2-0.5c-0.1,0-0.2,0.2-0.3,0.4c0,0,0,0-0.1,0
	c0-0.1-0.1-0.2-0.1-0.2c-0.1,0-0.2,0.1-0.3,0.3c0-0.2-0.1-0.3-0.2-0.3s-0.3,0.2-0.3,0.5l-0.1,0.1c0-0.1,0-0.1-0.1-0.1c0,0,0,0-0.1,0
	c0,0-0.1-0.1-0.2-0.1s-0.1,0-0.2,0.1c0,0-0.1-0.1-0.2-0.1c0,0-0.1,0-0.1,0.1l0,0h-0.1l-0.1-0.1c-0.1,0-0.1,0-0.2,0.1
	c0-0.1-0.1-0.1-0.2-0.2c-0.1,0-0.2,0.1-0.2,0.2c0,0,0,0-0.1,0h-0.1l0,0c0-0.2-0.1-0.3-0.3-0.3c-0.1,0-0.1,0-0.2,0.1
	c0,0-0.1-0.1-0.2-0.1s-0.1,0-0.2,0.1c-0.3-0.1-0.7-0.2-1-0.3c-0.9-0.2-1.8-0.2-2.5-0.1c0,0-0.1-0.1-0.2-0.1s-0.2,0.1-0.2,0.1h-0.1
	c-0.1,0-0.3-0.1-0.4-0.1c0-0.2-0.1-0.4-0.2-0.4s-0.2,0.1-0.3,0.3c-0.1,0-0.1,0-0.2,0c0-0.1-0.1-0.1-0.1-0.2c-0.1,0-0.1,0-0.2,0
	c0,0,0-0.1-0.1-0.1c0-0.2-0.1-0.4-0.2-0.5c-0.1,0-0.2,0.1-0.3,0.4c0,0,0,0-0.1,0l0,0c0-0.2,0-0.4-0.2-0.5c-0.1,0-0.2,0.1-0.3,0.3
	l0,0h-0.1l0,0c-0.1,0-0.1,0-0.2,0c0-0.1-0.1-0.2-0.2-0.2s-0.1,0.1-0.2,0.1c0,0,0,0-0.1,0c0-0.2-0.1-0.4-0.2-0.4s-0.2,0.1-0.2,0.2
	c-0.1-0.1-0.1-0.1-0.2-0.1h-0.1c0-0.1-0.1-0.2-0.2-0.2s-0.2,0.2-0.2,0.4c-0.1,0-0.1,0.1-0.2,0.2c-0.4-0.3-1.2-0.4-1.7,0
	c0,0,0,0-0.1,0c0,0-0.1,0-0.1,0.1c-0.2,0.1-0.3,0.3-0.4,0.4l-0.1-0.1c-0.1,0-0.1,0-0.1,0.1c0-0.2-0.1-0.4-0.2-0.4
	c-0.1-0.1-0.2,0.2-0.3,0.6c0-0.1-0.1-0.2-0.2-0.2c0-0.2-0.1-0.3-0.2-0.3s-0.2,0.2-0.3,0.5l-0.1-0.1c0,0,0,0-0.1,0l0,0
	c0,0-0.1,0-0.1,0.1c0-0.2-0.1-0.3-0.2-0.3s-0.1,0-0.2,0.1l0,0c-0.1,0-0.1,0.1-0.2,0.2c-0.1-0.1-0.1-0.2-0.2-0.2s-0.2,0.3-0.2,0.6
	c0-0.1,0-0.1-0.1-0.1l0,0h-0.1c0-0.1-0.1-0.3-0.1-0.3c-0.1,0-0.1,0.1-0.2,0.2c-0.1-0.2-0.1-0.3-0.2-0.2c-0.1,0-0.2,0.3-0.2,0.6l0,0
	c0-0.2,0-0.3-0.1-0.3s-0.2,0-0.3,0.1c0-0.3-0.1-0.5-0.2-0.5s-0.1,0.1-0.2,0.2l0,0c-0.1,0-0.2,0.3-0.3,0.6l-0.1-0.1l0,0
	c0.1-0.4,0.1-0.8,0-0.9c-0.1,0-0.2,0.1-0.2,0.2c0-0.1-0.1-0.1-0.1-0.1c-0.1,0-0.2,0.1-0.2,0.3c-0.2-0.4-0.4-0.7-0.5-0.6
	c0,0-0.1,0.1-0.1,0.2c0-0.1-0.1-0.3-0.1-0.3c-0.1-0.1-0.2,0.1-0.3,0.5l0,0c0-0.1,0-0.2,0-0.3c0-0.2,0-0.4-0.2-0.5
	c-0.1-0.1-0.1-0.1-0.2-0.1l0,0c-0.1-0.2-0.2-0.2-0.3-0.2c-0.1,0-0.1,0.2-0.1,0.3l0,0c0,0-0.1,0-0.1-0.1s0-0.2-0.1-0.2
	c0-0.1,0-0.1,0-0.2c0-0.4-0.2-0.7-0.3-0.7l-0.1,0.1c0-0.2-0.1-0.3-0.2-0.3s-0.1,0-0.1,0.1c-0.1-0.2-0.2-0.3-0.2-0.3
	c-0.1,0-0.2,0.2-0.2,0.4c0-0.1,0-0.2,0-0.2c0-0.5-0.1-0.8-0.2-0.9c-0.1,0-0.2,0.3-0.3,0.8c0-0.2-0.1-0.3-0.2-0.3s-0.3,0.5-0.3,1.1
	c0,0,0,0,0,0.1l0,0l0,0l0,0h-0.1c-0.3,0-0.6,0.1-0.9,0.1l-0.1-0.1c-0.1,0-0.1,0-0.1,0.1c0,0,0-0.1-0.1-0.1c0-0.1-0.1-0.2-0.2-0.2
	s-0.3,0.2-0.3,0.5H64c0-0.2-0.1-0.3-0.2-0.3c-0.1,0-0.2,0.2-0.2,0.4c0,0,0,0-0.1,0h-0.1c0-0.3-0.1-0.5-0.2-0.5c0,0-0.1,0-0.1,0.1
	c0-0.1,0-0.2-0.1-0.2c0,0-0.1,0-0.2,0.1c0-0.1-0.1-0.1-0.1-0.1c-0.1,0-0.1,0.1-0.2,0.1c-0.1-0.2-0.1-0.3-0.2-0.3l-0.1,0.1
	c-0.1-0.1-0.1-0.2-0.2-0.1l0,0c0-0.3,0-0.5-0.1-0.5s-0.1,0.1-0.2,0.2c0-0.2,0-0.4,0-0.4c-0.1,0-0.3,0.3-0.5,0.8h-0.1
	c-0.1,0-0.1,0.1-0.2,0.2c0-0.1-0.1-0.2-0.2-0.2l0,0c0-0.3-0.2-0.5-0.3-0.5l0,0c-0.1-0.1-0.2-0.2-0.1,0c0,0.2,0,0.2-0.1,0.3
	c0-0.1-0.1-0.1-0.2-0.2c0-0.2,0-0.3-0.1-0.4h-0.1c0-0.3-0.1-0.6-0.2-0.6c-0.1,0-0.1,0.1-0.2,0.1c0-0.2-0.1-0.3-0.2-0.3
	c-0.1,0-0.1,0.1-0.2,0.1l-0.1-0.1c-0.1,0-0.1,0-0.2,0.1c0-0.1-0.1-0.2-0.2-0.2l0,0c0-0.1-0.1-0.1-0.1-0.2c0-0.2-0.1-0.3-0.2-0.3
	c0,0-0.1,0-0.1,0.1c-0.1-0.1-0.1-0.1-0.2-0.2v-0.1c0-0.1,0-0.1,0-0.2c0,0,0,0,0-0.1c0-0.3-0.2-0.6-0.3-0.6s-0.2,0.2-0.2,0.4
	c0,0,0,0-0.1,0c0-0.3,0-0.5-0.1-0.6c0,0-0.1,0-0.1,0.1c0-0.5,0-0.9-0.2-0.9c-0.1,0-0.2,0.3-0.3,0.8l0,0c0,0,0-0.1-0.1-0.1
	c0-0.1-0.1-0.2-0.1-0.2c0-0.5,0-0.8-0.1-0.9c-0.1,0-0.3,0.5-0.4,1.2c-0.1-0.2-0.1-0.4-0.2-0.4c-0.1,0-0.1,0.1-0.2,0.2l-0.1-0.1
	c-0.1,0-0.1,0.1-0.1,0.1s0,0,0-0.1c0-0.3,0-0.5-0.2-0.6c-0.1,0-0.1,0-0.2,0.1c-0.1-0.2-0.2-0.4-0.3-0.3c-0.1,0.1-0.1,0.2-0.2,0.3
	l0,0c0-0.1-0.1-0.2-0.2-0.2l0,0c0-0.2-0.1-0.3-0.2-0.3h-0.1h-0.1c-0.1,0-0.1,0-0.2,0.1l0,0l0,0c0-0.2,0-0.4-0.1-0.4
	s-0.3,0.3-0.4,0.6v0.1l0,0c0-0.3-0.1-0.4-0.2-0.4c0-0.2-0.1-0.4-0.2-0.4c-0.1,0-0.1,0-0.2,0.1l0,0c-0.1,0-0.3,0.2-0.3,0.5
	c0,0,0,0,0,0.1c0-0.2-0.2-0.4-0.3-0.4s-0.1,0.1-0.2,0.3c0-0.2-0.1-0.3-0.2-0.3c-0.1,0-0.3,0.1-0.3,0.3c0,0,0,0,0,0.1h-0.1
	c-0.1,0-0.2,0-0.2,0l0.1-0.1c0-0.1-0.6-0.1-1.2,0.2l0,0c-0.1,0-0.2,0.1-0.4,0.2c0-0.2-0.1-0.4-0.2-0.4c-0.1,0-0.2,0.2-0.3,0.4l0,0
	c-0.1,0-0.3,0.2-0.3,0.4l0,0c0,0-0.1,0-0.1,0.1l0,0c0.2-0.4,0.3-0.7,0.2-0.8c-0.1,0-0.2,0-0.3,0.2c0,0,0-0.1-0.1-0.1
	s-0.2,0.2-0.3,0.4c0,0,0,0,0,0.1c-0.1,0.1-0.1,0.1-0.2,0.2c0-0.3,0-0.5-0.1-0.5s-0.2,0.1-0.3,0.3l0,0c-0.1,0-0.2,0.2-0.3,0.5
	c0-0.2,0-0.3-0.1-0.4c0,0,0,0-0.1,0c0-0.3,0-0.5-0.1-0.5s-0.3,0.4-0.4,1.1c0-0.3-0.1-0.5-0.2-0.5c-0.1,0-0.3,0.5-0.3,1.1l0,0l0,0
	c0-0.2,0-0.3-0.1-0.3s-0.3,0.3-0.5,0.8c-0.1,0.1-0.1,0.1-0.2,0.2c-0.3,0.3-0.4,0.6-0.5,1c-0.1,0.1-0.1,0.3-0.2,0.5
	c0-0.2-0.1-0.3-0.1-0.3c-0.1,0-0.3,0.4-0.4,0.9c0-0.4,0-0.6-0.1-0.7c-0.1,0-0.2,0.2-0.3,0.5c0,0,0,0-0.1,0s-0.1,0.1-0.2,0.2l0,0
	c0,0-0.1,0-0.2,0.1c0-0.1-0.1-0.1-0.1-0.1h-0.1c0-0.1-0.1-0.1-0.1-0.1c-0.1,0-0.1,0.1-0.2,0.1h-0.1l0,0c0-0.1,0-0.2-0.1-0.2
	s-0.2,0.1-0.4,0.3c0-0.2,0-0.3-0.1-0.4c-0.1,0-0.1,0.1-0.2,0.2l-0.1-0.1c-0.1,0-0.3,0.4-0.3,0.9l0,0l0,0c0-0.1,0-0.1,0-0.2
	c0-0.2-0.1-0.3-0.1-0.4c0-0.3,0-0.5,0-0.5c-0.1-0.1-0.2,0.1-0.4,0.4l-0.1-0.1c-0.1,0-0.2,0.2-0.3,0.5c0-0.1,0-0.2-0.1-0.2
	c0,0-0.1,0-0.1,0.1l-0.1-0.1l0,0c0-0.3-0.1-0.5-0.2-0.5c-0.1,0-0.3,0.3-0.3,0.8c0,0,0,0,0,0.1s-0.1,0.2-0.1,0.3l0,0
	c0-0.1-0.1-0.1-0.1-0.1c0-0.1-0.1-0.1-0.2,0c0-0.1-0.1-0.3-0.1-0.3c-0.1,0-0.3,0.1-0.3,0.3c0-0.1-0.1-0.1-0.1-0.2h-0.1
	c0-0.2-0.1-0.4-0.2-0.4c-0.1,0-0.2,0.1-0.2,0.3c0-0.1-0.1-0.3-0.2-0.3c-0.1,0-0.1,0.1-0.2,0.2c-0.1-0.1-0.1-0.1-0.2-0.1
	c-0.1,0-0.1,0.1-0.2,0.2c-0.3-0.2-0.7-0.4-1.2-0.6c0,0,0-0.1-0.1,0c-0.1,0-0.3-0.1-0.4-0.1c0.1-0.4-0.1-0.2-0.1,0
	c-0.1,0-0.2,0-0.3-0.1c0.1-0.2-0.1-0.1-0.2,0h-0.1l0,0c-0.2-0.1,0.6-0.1-0.4-0.3v0.2c-0.3,0-0.7,0-1,0.1c-0.3,0-0.6,0-0.9,0.1
	c-0.1,0-0.1,0-0.2,0c0-0.1-0.1-0.1-0.1,0c0,0,0,0-0.1,0l0,0c0-0.1,0-0.2,0-0.3c0,0,0.1-0.1,0.1-0.3c-0.6-0.1-0.6,0.1-0.5,0.2l0,0
	h-0.1c0-0.3,0-0.5-0.1-0.5s-0.2,0.1-0.3,0.3c0-0.2-0.1-0.3-0.2-0.3s-0.2,0.1-0.3,0.3c0,0-0.1,0.1-0.1,0.2c-0.1,0-0.2-0.1-0.2-0.1
	c0-0.2,0-0.3-0.1-0.3c0-0.2-0.1-0.3-0.1-0.2c-0.1,0-0.2,0.2-0.2,0.4c-0.1,0-0.3-0.1-0.4-0.1c0-0.3,0-0.5-0.1-0.6
	c-0.1,0-0.2,0.1-0.2,0.2c0-0.2-0.1-0.4-0.1-0.4c-0.1,0-0.2,0.2-0.3,0.6h-0.1v-0.1c0,0-0.1,0-0.1,0.1c0,0,0,0-0.1,0c0,0,0,0,0-0.1
	c0.1-0.4,0-0.7-0.2-0.7c-0.1,0-0.2,0.1-0.3,0.3h-0.1c-0.1,0.1-0.1,0.2-0.2,0.4l-0.1-0.1l0,0c0-0.3,0-0.5-0.2-0.5c0,0-0.1,0-0.1,0.1
	c0-0.1-0.1-0.2-0.1-0.2c-0.1,0-0.1,0.1-0.1,0.1c0-0.1-0.1-0.1-0.1-0.1c-0.1,0-0.2,0.2-0.2,0.3c0-0.2-0.1-0.3-0.2-0.3
	c0,0-0.1,0-0.1,0.1c0-0.1,0-0.1-0.1-0.1s-0.3,0.3-0.4,0.7c0-0.2,0-0.3-0.1-0.3c0-0.3,0-0.6-0.1-0.6s-0.1,0.1-0.2,0.2
	c0-0.3-0.1-0.5-0.2-0.5h-0.1c0-0.1-0.1-0.1-0.1-0.1c-0.1,0-0.3,0.5-0.3,1c0,0.1-0.1,0.2-0.1,0.3c0-0.1,0-0.2-0.1-0.2
	s-0.2,0.1-0.2,0.3c0-0.2-0.1-0.3-0.1-0.4c-0.1,0-0.3,0.4-0.4,0.9c0,0,0,0.1-0.1,0.2c0,0,0-0.1-0.1-0.1s-0.2,0.2-0.3,0.4
	c0.1-0.7,0.1-1.3-0.1-1.3c-0.1,0-0.2,0.3-0.3,0.7v-0.1h-0.1c0-0.1-0.1-0.1-0.1-0.1c-0.1,0-0.1,0.1-0.2,0.2c0-0.2,0-0.3-0.1-0.4h-0.1
	c0-0.2,0-0.4-0.1-0.4s-0.2,0.2-0.4,0.6c0-0.1,0-0.2-0.1-0.2s-0.3,0.3-0.4,0.9c-0.1,0.1-0.2,0.3-0.2,0.5c0-0.1-0.1-0.2-0.1-0.2
	c-0.1,0-0.1,0.1-0.2,0.2c-0.5,0-1,0-1.5-0.1c0-0.3-0.1-0.5-0.2-0.5s-0.2,0.2-0.3,0.5c-0.2,0-0.4,0-0.5-0.1l0,0
	c0-0.4-0.1-0.7-0.3-0.7l0,0v-0.1l0,0c0.1-0.2,0-0.3-0.1-0.1h-0.1c-0.1,0-0.1,0-0.2,0c-0.2-0.3-0.2-0.1-0.2,0.2l0,0l0,0l0,0
	c-0.1-0.1-0.1-0.1-0.3,0c-0.2,0,0.3-0.2-0.3-0.2c-0.1,0-0.1,0-0.1,0c-0.1-0.2,0.1-0.5-0.1-0.7c0,0,0,0,0-0.1c-0.1,0-0.1,0-0.1,0
	c-0.1,0-0.1,0-0.2,0c0,0.1,0,0.1,0,0.1c-0.1,0.1-0.1,0.2-0.1,0.2c0-0.1-0.1-0.2-0.2-0.2s-0.3,0.3-0.3,0.8l0,0H16c0,0,0,0,0-0.1l0,0
	l0,0c0-0.1,0-0.2,0-0.2c0-0.5,0-0.8-0.2-0.8c-0.1,0-0.2,0.2-0.2,0.4l0,0l0,0l0,0c0.1-0.5,0-0.9-0.2-0.9c-0.1,0-0.3,0.4-0.3,0.9l0,0
	c0-0.1-0.1-0.2-0.1-0.2s-0.1,0-0.1,0.1c0,0,0,0-0.1,0c0-0.4-0.1-0.7-0.2-0.7c-0.1,0-0.2,0.3-0.3,0.7c0-0.2-0.1-0.4-0.2-0.4
	c0,0-0.1,0-0.1,0.1c0-0.3-0.1-0.5-0.2-0.5c-0.1,0-0.2,0.2-0.3,0.4c0-0.2-0.1-0.4-0.2-0.4c-0.1,0-0.1,0.1-0.2,0.2
	c0-0.4-0.1-0.6-0.2-0.6c-0.1,0-0.1,0.1-0.2,0.3l-0.1-0.1c-0.1,0-0.2,0.2-0.2,0.4c0-0.3-0.1-0.6-0.1-0.6c0-0.3-0.1-0.6-0.2-0.6
	c-0.1,0-0.1,0.1-0.2,0.2c0-0.1,0-0.1-0.1-0.2h-0.1c0-0.4-0.1-0.7-0.2-0.7c-0.1,0-0.3,0.5-0.3,1.2v0.1c-0.1,0-0.1,0-0.2,0h-0.1l0,0
	c0-0.1,0-0.1,0-0.2c0.2-0.1,0.1-0.3,0-0.4c0.1-0.1,0.1-0.2-0.1-0.2c0-0.1-0.1-0.2-0.1-0.2l0,0c0-0.2-0.1-0.3-0.1-0.4
	c0.1-0.4,0.1-0.7,0-0.8c-0.1,0-0.2,0.2-0.3,0.5c-0.1,0-0.2,0-0.2,0c0-0.4-0.1-0.8-0.2-0.8c-0.1,0-0.2,0.2-0.3,0.6
	c0-0.2,0-0.3-0.1-0.3s-0.2,0.1-0.3,0.4c0-0.2-0.1-0.3-0.1-0.3s0,0-0.1,0c0-0.1-0.1-0.2-0.1-0.2c-0.1,0-0.1,0.1-0.2,0.1
	c0-0.1-0.1-0.2-0.1-0.2c-0.1,0-0.2,0.1-0.3,0.3c0-0.1-0.1-0.1-0.1-0.1c-0.1,0-0.1,0.1-0.1,0.1l0,0c-0.2,0-0.3,0-0.5,0.1
	c-0.1,0-0.1,0-0.2,0.1c0-0.2-0.1-0.4-0.2-0.4c0,0-0.1,0-0.1,0.1L7,206.3c-0.1,0-0.1,0.1-0.2,0.2c-0.1-0.2-0.1-0.3-0.2-0.3
	s-0.1,0.1-0.2,0.2l0,0l0,0H6.3v0.1c-0.1,0.1-0.1,0.3-0.1,0.5l0,0c-0.1,0-0.1,0-0.2,0l0,0c0.1-0.5,0.1-0.9,0-1H5.9
	c0-0.2,0-0.3-0.1-0.3c-0.1-0.1-0.3,0.3-0.5,0.9c-0.1,0-0.1,0-0.2-0.1c0.1-0.5,0.2-1-0.2-0.9c-0.1-0.1-0.2,0-0.2,0.1c0,0,0,0-0.1,0.1
	c0-0.2,0-0.3,0-0.3l0,0l-0.1-0.1c0-0.1-0.1-0.1-0.2,0c-0.1-0.1-0.2-0.1-0.2,0L4,205.3l0,0c-0.1-0.3-0.2-0.5-0.3-0.5
	c0,0-0.1,0-0.1,0.1c0-0.3-0.1-0.6-0.2-0.6c-0.1,0-0.1,0.1-0.2,0.3l0,0c0,0-0.1,0-0.1,0.1c0-0.3-0.1-0.5-0.2-0.5c0,0-0.1,0-0.1,0.1
	c0,0,0,0,0-0.1S2.7,204,2.6,204l0,0c0-0.4-0.2-0.7-0.3-0.7s-0.1,0.1-0.2,0.3c-0.1-0.2-0.1-0.4-0.2-0.4s-0.2,0.2-0.2,0.4
	c0,0,0,0.1-0.1,0.1v140h400V195.1c-0.2,0-0.4-0.1-0.6-0.1C399.5,194.7,399.5,194.4,399.5,194.1z"/>
</svg>
