<svg id="Layer_1" data-name="Layer 1" xmlns="http://www.w3.org/2000/svg" viewBox="0 0 827.62 565.91"><defs><style>.cls-1{fill:#ce6d46;}.cls-2{fill:none;stroke:#80acbb;stroke-linecap:round;stroke-miterlimit:10;stroke-width:7.68px;}</style></defs><rect class="cls-1" x="130.17" y="105.25" width="539.76" height="454.97"/><path class="cls-2" d="M134.28,231c3.9-20.78,8-35,12.59-34.87,13.94.35,21.35,132.57,32.29,132.16,7.12-.26,8.23-56.4,17.45-57,11.08-.66,19.4,81.17,31.69,81,14.56-.18,20.33-115.28,30.24-115.22,12.59.09,17.4,191.51,29.77,191.71,11.5.19,19.89-165,34.59-164.9,11.42.05,15.79,99.65,26.76,99.74,15.61.12,24.17-201.33,36.22-201.25,14.85.09,22.94,305.72,33.36,305.62,8.94-.08,11.92-225.3,25.92-225.61,10.66-.25,18.36,129.9,31.61,129.75C491.91,372.05,498.24,202,511.92,202c12.61,0,18.37,144.55,32.41,144.63,13.18.07,19.91-123,30.7-122.82,14.8.21,19.68,232,30.87,232.09s18.35-232,32.33-232.09C649,223.72,653.51,362.1,666,386.6"/></svg>