<?xml version="1.0" encoding="utf-8"?>
<!-- Generator: Adobe Illustrator 24.3.0, SVG Export Plug-In . SVG Version: 6.00 Build 0)  -->
<svg version="1.1" id="Layer_1" xmlns="http://www.w3.org/2000/svg" xmlns:xlink="http://www.w3.org/1999/xlink" x="0px" y="0px"
	 viewBox="0 0 687 676.1" style="enable-background:new 0 0 687 676.1;" xml:space="preserve">
<style type="text/css">
	.st0{fill:none;stroke:#020202;stroke-width:1.9095;stroke-miterlimit:10;}
	.st1{font-family:'Arsenal-Regular';}
	.st2{font-size:82px;}
	.st3{letter-spacing:4;}
	.st4{font-size:23px;}
	.st5{fill:none;stroke:#CE6D46;stroke-miterlimit:10;}
	.st6{fill:none;stroke:#5DD0FF;stroke-miterlimit:10;}
</style>
<g id="Layer_1_1_">
</g>
<g id="Layer_2_1_">
	<g>
		<g>
			<polyline class="st0" points="630.5,373 629.1,372.2 625.8,370.5 612.6,363.8 423.3,266.3 150,266.3 26.8,216.8 26.8,213.6 
				26.8,174.7 15.5,171.2 11.4,169.9 			"/>
			<polygon class="st0" points="178.5,406 122.9,650.8 550.9,667.3 517.9,536.6 454.8,536.6 454.8,452.6 			"/>
			<g>
				<line class="st0" x1="654.8" y1="284.4" x2="647.1" y2="249.6"/>
				<path class="st0" d="M123.4,322.3c-21.2,92.7-42.5,185.3-63.7,278"/>
				<path class="st0" d="M60.4,600c-0.2-0.1-0.4-0.1-0.6-0.2c-1.5-0.5-3-1.1-4.5-1.6c-7.2-2.6-14.4-5.2-21.6-7.8l-7.1-6.2
					l-15.2-13.5"/>
				<path class="st0" d="M11.4,262.6l100.4,53.5l3.3,1.7l8.4,4.5h0.8l227.6,5.8l4.5,0.1c42.9-35.8,107.5-1.7,135.4,16.3l0,0
					c1,0.6,1.9,1.2,2.8,1.8c6.8,4.5,10.9,7.7,10.9,7.7l120.1,17.7l3.5,0.5l8.8,1.3l-8.4,51.1l-1.2,7.5l37.8,0.8l3.2,0.1
					c41,0.8-86.5,143.3-86.5,143.3H528"/>
				<path class="st0" d="M654.8,284.4l14.4,148.5l-3.2-0.1l-37.8-0.8l1.2-7.5l8.4-51.1l6.5-87.9l2.7-36l-10.5-4l-1.1-0.4
					l-124.3-47.4l-4.9-5.3l-67.1-72.6l-6.4-2.4L392,101.8l1.1-3l8.7-22.9c0,0-7.1-8.3-24.3-19.1c-24.4-15.3-69-35.7-142.2-44.5
					L46.4,82.4c0,0-14.5-1.5-35.1-1.2"/>
			</g>
			<line class="st0" x1="123.9" y1="321.7" x2="178.3" y2="406.4"/>
		</g>
		<line class="st0" x1="60.7" y1="599.2" x2="123.4" y2="650.4"/>
		<line class="st0" x1="455.1" y1="451.8" x2="356.8" y2="327.8"/>
		<line class="st0" x1="11.4" y1="81.2" x2="11.4" y2="570.7"/>
	</g>
</g>
<text transform="matrix(0.9906 0.1366 -0.1366 0.9906 95.1501 173.5995)" class="st1 st2 st3">Offerings</text>
<text transform="matrix(1 0 0 1 100.6499 214.6)" class="st1 st4"> </text>
<text transform="matrix(1 0 0 1 469.859 208.5984)" class="st1 st4">-</text>
<g id="Layer_2_2_">
	<g>
		<g>
			<polyline class="st5" points="634.1,368.7 632.7,367.9 629.4,366.2 616.2,359.5 426.9,262 153.6,262 30.4,212.5 30.4,209.3 
				30.4,170.4 19.1,166.9 15,165.6 			"/>
			<polygon class="st5" points="182.1,401.7 126.5,646.5 554.5,663 521.5,532.3 458.4,532.3 458.4,448.3 			"/>
			<g>
				<line class="st5" x1="658.4" y1="280.1" x2="650.7" y2="245.3"/>
				<path class="st5" d="M127,318c-21.2,92.7-42.5,185.3-63.7,278"/>
				<path class="st5" d="M64,595.7c-0.2-0.1-0.4-0.1-0.6-0.2c-1.5-0.5-3-1.1-4.5-1.6c-7.2-2.6-14.4-5.2-21.6-7.8l-7.1-6.2L15,566.4"
					/>
				<path class="st5" d="M15,258.3l100.4,53.5l3.3,1.7l8.4,4.5h0.8l227.6,5.8l4.5,0.1c42.9-35.8,107.5-1.7,135.4,16.3l0,0
					c1,0.6,1.9,1.2,2.8,1.8c6.8,4.5,10.9,7.7,10.9,7.7l120.1,17.7l3.5,0.5l8.8,1.3l-8.4,51.1l-1.2,7.5l37.8,0.8l3.2,0.1
					c41,0.8-86.5,143.3-86.5,143.3h-54.8"/>
				<path class="st5" d="M658.4,280.1l14.4,148.5l-3.2-0.1l-37.8-0.8l1.2-7.5l8.4-51.1l6.5-87.9l2.7-36l-10.5-4l-1.1-0.4
					l-124.3-47.4l-4.9-5.3l-67.1-72.6l-6.4-2.4l-40.7-15.6l1.1-3l8.7-22.9c0,0-7.1-8.3-24.3-19.1c-24.4-15.3-69-35.7-142.2-44.5
					L50,78.1c0,0-14.5-1.5-35.1-1.2"/>
			</g>
			<line class="st5" x1="127.5" y1="317.4" x2="181.9" y2="402.1"/>
		</g>
		<line class="st5" x1="64.3" y1="594.9" x2="127" y2="646.1"/>
		<line class="st5" x1="458.7" y1="447.5" x2="360.4" y2="323.5"/>
		<line class="st5" x1="15" y1="76.9" x2="15" y2="566.4"/>
	</g>
</g>
<g id="Layer_2_3_">
	<g>
		<g>
			<polyline class="st6" points="624.8,376.7 623.4,375.9 620.1,374.2 606.9,367.5 417.6,270 144.3,270 21.1,220.5 21.1,217.3 
				21.1,178.4 9.8,174.9 5.7,173.6 			"/>
			<polygon class="st6" points="172.8,409.7 117.2,654.5 545.2,671 512.2,540.3 449.1,540.3 449.1,456.3 			"/>
			<g>
				<line class="st6" x1="649.1" y1="288.1" x2="641.4" y2="253.3"/>
				<path class="st6" d="M117.7,326C96.5,418.7,75.2,511.3,54,604"/>
				<path class="st6" d="M54.7,603.7c-0.2-0.1-0.4-0.1-0.6-0.2c-1.5-0.5-3-1.1-4.5-1.6c-7.2-2.6-14.4-5.2-21.6-7.8l-7.1-6.2
					L5.7,574.4"/>
				<path class="st6" d="M5.7,266.3l100.4,53.5l3.3,1.7l8.4,4.5h0.8l227.6,5.8l4.5,0.1c42.9-35.8,107.5-1.7,135.4,16.3l0,0
					c1,0.6,1.9,1.2,2.8,1.8c6.8,4.5,10.9,7.7,10.9,7.7l120.1,17.7l3.5,0.5l8.8,1.3l-8.4,51.1l-1.2,7.5l37.8,0.8l3.2,0.1
					c41,0.8-86.5,143.3-86.5,143.3h-54.8"/>
				<path class="st6" d="M649.1,288.1l14.4,148.5l-3.2-0.1l-37.8-0.8l1.2-7.5l8.4-51.1l6.5-87.9l2.7-36l-10.5-4l-1.1-0.4
					l-124.3-47.4l-4.9-5.3l-67.1-72.6l-6.4-2.4l-40.7-15.6l1.1-3l8.7-22.9c0,0-7.1-8.3-24.3-19.1c-24.4-15.3-69-35.7-142.2-44.5
					L40.7,86.1c0,0-14.5-1.5-35.1-1.2"/>
			</g>
			<line class="st6" x1="118.2" y1="325.4" x2="172.6" y2="410.1"/>
		</g>
		<line class="st6" x1="55" y1="602.9" x2="117.7" y2="654.1"/>
		<line class="st6" x1="449.4" y1="455.5" x2="351.1" y2="331.5"/>
		<line class="st6" x1="5.7" y1="84.9" x2="5.7" y2="574.4"/>
	</g>
</g>
</svg>
