<?xml version="1.0" encoding="utf-8"?>
<!-- Generator: Adobe Illustrator 24.3.0, SVG Export Plug-In . SVG Version: 6.00 Build 0)  -->
<svg version="1.1" id="Layer_1" xmlns="http://www.w3.org/2000/svg" xmlns:xlink="http://www.w3.org/1999/xlink" x="0px" y="0px"
	 viewBox="0 0 699.4 635.2" style="enable-background:new 0 0 699.4 635.2;" xml:space="preserve">
<style type="text/css">
	.st0{fill:none;stroke:#020202;stroke-width:1.651;stroke-miterlimit:10;}
	.st1{font-family:'Arsenal-Regular';}
	.st2{font-size:75px;}
	.st3{letter-spacing:3;}
	.st4{fill:none;stroke:#CE6D46;stroke-miterlimit:10;}
	.st5{fill:none;stroke:#5DD0FF;stroke-miterlimit:10;}
</style>
<g id="Layer_1_1_">
</g>
<g id="Layer_2_1_">
	<g>
		<polygon class="st0" points="599,250.3 616.8,320.3 599,349.3 504.8,299.8 395.3,322.7 347,325.2 308.8,281.7 245.1,276.9 
			163.7,250.3 163.7,204.4 306.2,223.8 336.8,235.8 390.2,238.2 494.6,194.8 		"/>
		<polygon class="st0" points="599.9,249.5 599,250.3 616.8,320.3 599.5,348.4 599,349.3 504.8,387.9 337.7,351.2 329.1,349.3 
			293.7,315.7 293.7,315.7 293.7,315.7 290.9,313.1 173,281.8 163.7,279.3 134.6,250.1 132.4,247.9 28.7,217.8 16,214.1 92.4,91 
			132.4,91 173.8,45.1 201.8,45.1 242.6,20.9 652.4,20.9 662.7,26 681,35 681,180.9 		"/>
		<polygon class="st0" points="681,180.9 681,282.4 626,314.9 616.8,320.3 599,250.3 599.9,249.5 		"/>
		<polygon class="st0" points="461.5,455.5 436.1,429 372.4,429 349.5,419.3 290.9,419.3 163.7,387.9 117.8,349.3 56.7,337.2 
			56.7,455.5 		"/>
		<polygon class="st0" points="16,214.1 56.7,455.5 56.7,337.2 117.8,349.3 163.7,387.9 290.9,419.3 349.5,419.3 372.4,429 
			436.1,429 461.5,455.5 504.8,387.9 329.1,349.3 290.9,313.1 163.7,279.3 132.4,247.9 		"/>
		<polygon class="st0" points="681,282.4 681,571.9 473.4,617.2 465.2,618.9 465.2,618.9 461.5,619.7 461.5,455.5 464.3,451.1 
			503.4,390.1 504.8,387.9 599,349.3 599.5,348.4 616.8,320.3 626,314.9 		"/>
		<polygon class="st0" points="56.7,455.5 56.7,506.2 94.9,557 196.8,573.9 321.5,585.9 414.4,585.9 461.5,619.7 461.5,455.5 		"/>
	</g>
</g>
<text transform="matrix(0.9995 3.105867e-02 -3.105867e-02 0.9995 231.9252 95.5213)" class="st1 st2 st3">Create</text>
<g id="Layer_2_2_">
	<g>
		<polygon class="st4" points="608.7,246.1 626.5,316.1 608.7,345.1 514.5,295.6 405,318.5 356.7,321 318.5,277.5 254.8,272.7 
			173.4,246.1 173.4,200.2 315.9,219.6 346.5,231.6 399.9,234 504.3,190.6 		"/>
		<polygon class="st4" points="609.6,245.3 608.7,246.1 626.5,316.1 609.2,344.2 608.7,345.1 514.5,383.7 347.4,347 338.8,345.1 
			303.4,311.5 303.4,311.5 303.4,311.5 300.6,308.9 182.7,277.6 173.4,275.1 144.3,245.9 142.1,243.7 38.4,213.6 25.7,209.9 
			102.1,86.8 142.1,86.8 183.5,40.9 211.5,40.9 252.3,16.7 662.1,16.7 672.4,21.8 690.7,30.8 690.7,176.7 		"/>
		<polygon class="st4" points="690.7,176.7 690.7,278.2 635.7,310.7 626.5,316.1 608.7,246.1 609.6,245.3 		"/>
		<polygon class="st4" points="471.2,451.3 445.8,424.8 382.1,424.8 359.2,415.1 300.6,415.1 173.4,383.7 127.5,345.1 66.4,333 
			66.4,451.3 		"/>
		<polygon class="st4" points="25.7,209.9 66.4,451.3 66.4,333 127.5,345.1 173.4,383.7 300.6,415.1 359.2,415.1 382.1,424.8 
			445.8,424.8 471.2,451.3 514.5,383.7 338.8,345.1 300.6,308.9 173.4,275.1 142.1,243.7 		"/>
		<polygon class="st4" points="690.7,278.2 690.7,567.7 483.1,613 474.9,614.7 474.9,614.7 471.2,615.5 471.2,451.3 474,446.9 
			513.1,385.9 514.5,383.7 608.7,345.1 609.2,344.2 626.5,316.1 635.7,310.7 		"/>
		<polygon class="st4" points="66.4,451.3 66.4,502 104.6,552.8 206.5,569.7 331.2,581.7 424.1,581.7 471.2,615.5 471.2,451.3 		"/>
	</g>
</g>
<g id="Layer_2_3_">
	<g>
		<polygon class="st5" points="591.6,248.4 609.4,318.4 591.6,347.4 497.4,297.9 387.9,320.8 339.6,323.3 301.4,279.8 237.7,275 
			156.3,248.4 156.3,202.5 298.8,221.9 329.4,233.9 382.8,236.3 487.2,192.9 		"/>
		<polygon class="st5" points="592.5,247.6 591.6,248.4 609.4,318.4 592.1,346.5 591.6,347.4 497.4,386 330.3,349.3 321.7,347.4 
			286.3,313.8 286.3,313.8 286.3,313.8 283.5,311.2 165.6,279.9 156.3,277.4 127.2,248.2 125,246 21.3,215.9 8.6,212.2 85,89.1 
			125,89.1 166.4,43.2 194.4,43.2 235.2,19 645,19 655.3,24.1 673.6,33.1 673.6,179 		"/>
		<polygon class="st5" points="673.6,179 673.6,280.5 618.6,313 609.4,318.4 591.6,248.4 592.5,247.6 		"/>
		<polygon class="st5" points="454.1,453.6 428.7,427.1 365,427.1 342.1,417.4 283.5,417.4 156.3,386 110.4,347.4 49.3,335.3 
			49.3,453.6 		"/>
		<polygon class="st5" points="8.6,212.2 49.3,453.6 49.3,335.3 110.4,347.4 156.3,386 283.5,417.4 342.1,417.4 365,427.1 
			428.7,427.1 454.1,453.6 497.4,386 321.7,347.4 283.5,311.2 156.3,277.4 125,246 		"/>
		<polygon class="st5" points="673.6,280.5 673.6,570 466,615.3 457.8,617 457.8,617 454.1,617.8 454.1,453.6 456.9,449.2 
			496,388.2 497.4,386 591.6,347.4 592.1,346.5 609.4,318.4 618.6,313 		"/>
		<polygon class="st5" points="49.3,453.6 49.3,504.3 87.5,555.1 189.4,572 314.1,584 407,584 454.1,617.8 454.1,453.6 		"/>
	</g>
</g>
<g>
	<text transform="matrix(0.9943 0.1062 -0.1062 0.9943 142.7975 164.5612)" class="st1 st2 st3">Your</text>
</g>
<text transform="matrix(0.974 -0.2266 0.2266 0.974 344.1106 199.028)" class="st1 st2 st3">Program</text>
</svg>
