<?xml version="1.0" encoding="utf-8"?>
<!-- Generator: Adobe Illustrator 24.3.0, SVG Export Plug-In . SVG Version: 6.00 Build 0)  -->
<svg version="1.1" id="Layer_1" xmlns="http://www.w3.org/2000/svg" xmlns:xlink="http://www.w3.org/1999/xlink" x="0px" y="0px"
	 viewBox="0 0 1163 530.2" style="enable-background:new 0 0 1163 530.2;" xml:space="preserve">
<style type="text/css">
	.st0{fill:#4F90BF;}
	.st1{fill:#499AC0;}
</style>
<g>
	
		<image style="overflow:visible;opacity:0.76;" width="768" height="472" xlink:href="5C8296D05CBA788C.png"  transform="matrix(1 0 0 1 109.7676 38.0139)">
	</image>
	<g>
		<g>
			<path class="st0" d="M182.2,47.3h661.3c14,0,25.3,13.7,25.3,30.7v354.7c0,16.9-11.3,30.7-25.3,30.7H182.2
				c-14,0-25.3-13.7-25.3-30.7V77.9C156.9,61,168.2,47.3,182.2,47.3z"/>
			<path class="st1" d="M157,371.5c85.4-28,163.3-41.3,227.5-47.8c119.9-12,179.4,1.3,283-14.7c85.8-13.2,151.2-39.8,200.7-65.4
				c0.2-0.1,0.4,0,0.4,0.2l0,0.2c-0.5,66.9-0.3,134.6-0.7,201.6c-0.1,9.8-6.6,17.7-14.7,17.7H171c-8.1,0-14.7-8-14.7-17.9l0-0.2
				L157,371.5z"/>
		</g>
	</g>
</g>
</svg>
