<?xml version="1.0" encoding="utf-8"?>
<!-- Generator: Adobe Illustrator 24.2.3, SVG Export Plug-In . SVG Version: 6.00 Build 0)  -->
<svg version="1.1" id="Layer_1" xmlns="http://www.w3.org/2000/svg" xmlns:xlink="http://www.w3.org/1999/xlink" x="0px" y="0px"
	 viewBox="0 0 400 344.9" style="enable-background:new 0 0 400 344.9;" xml:space="preserve">
<style type="text/css">
	.st0{fill:#5E90BC;}
</style>
<path class="st0" d="M399.7,154.5c0-0.1,0.1-0.3,0.1-0.5c0-0.5-0.1-0.8-0.3-0.8c-0.1,0-0.2,0.2-0.3,0.5c-0.1,0-0.1,0-0.2,0l0,0v-0.1
	l0,0c0.1,0,0.1-0.1,0.2-0.3c0-0.2,0-0.4-0.1-0.4s-0.2,0.1-0.2,0.3v0.1c0,0,0,0-0.1,0s-0.1,0.1-0.1,0.2c-0.1,0-0.2,0.1-0.2,0.2
	c0-0.1-0.1-0.1-0.2-0.1l0,0l0,0c-0.1,0-0.1,0.1-0.1,0.2c0,0.1,0,0.1,0,0.2l0,0c0,0,0,0-0.1,0c0,0,0,0,0-0.1c0-0.2-0.1-0.3-0.2-0.3
	s-0.1,0.2-0.1,0.4c0,0.1,0.1,0.1,0.1,0.1c0,0.1,0,0.1,0,0.2c0,0,0,0-0.1,0c0-0.1,0-0.2-0.1-0.2c0-0.2,0-0.4-0.1-0.5
	c-0.1,0-0.2,0.2-0.2,0.5c0,0,0,0-0.1,0s-0.2,0.1-0.1,0.3c0,0,0,0,0,0.1l0,0c0-0.1,0-0.1-0.1-0.1c0-0.1-0.1-0.2-0.1-0.2
	c-0.1,0-0.2,0.1-0.1,0.3l0.1,0.1h-0.1l0,0c0-0.1-0.1-0.2-0.2-0.2s-0.2,0.1-0.1,0.3l0,0c-0.1,0-0.2,0.1-0.3,0.1
	c0-0.1-0.1-0.2-0.2-0.2c0,0-0.1,0-0.1,0.1c0,0,0-0.1-0.1-0.1s-0.1,0.1-0.2,0.3c0,0-0.1,0-0.1-0.1c0,0,0,0-0.1-0.1
	c0,0-0.1-0.1-0.3-0.2c-0.2,0-0.1,0-0.2-0.2c-0.2-0.1-0.3-0.1-0.3-0.1c0-0.2-0.2-0.4-0.4-0.3l0,0l0,0l0,0c-0.1,0.1-0.2,0.2,0.1,0.2
	v0.1c-0.1,0-0.2,0-0.3-0.1c0,0,0.1,0,0.1-0.2s0-0.4-0.1-0.4s-0.1,0.1-0.2,0.2c0,0-0.1,0-0.1,0.1c0-0.2-0.1-0.4-0.1-0.4
	c-0.1,0-0.1,0.2-0.1,0.5v0.1l0,0c0-0.1,0-0.1,0-0.2c0-0.3-0.1-0.5-0.2-0.5s-0.1,0.3-0.1,0.5c0,0.1,0,0.1,0,0.2c-0.1,0-0.3,0-0.4,0.1
	c0,0-0.1,0-0.2,0l0,0h-0.1c0,0,0,0,0,0.1c0-0.1,0-0.1-0.1-0.1s-0.2,0.1-0.2,0.4l0,0c0,0,0,0,0-0.1c0-0.2-0.1-0.4-0.2-0.4
	s-0.1,0.2-0.1,0.5l0,0c-0.1,0-0.1,0-0.2,0c0-0.1,0-0.1,0-0.1c0-0.1-0.1-0.1-0.2-0.1c0-0.2,0-0.4,0-0.4c-0.1,0-0.2,0.2-0.3,0.5l0,0
	c0-0.2-0.1-0.5-0.1-0.5s-0.2,0.2-0.1,0.4c-0.1,0-0.1,0-0.2,0c0-0.2-0.1-0.3-0.1-0.4c-0.1,0-0.1,0.1-0.2,0.3c-0.1,0-0.2,0-0.3,0
	c0-0.1-0.1-0.1-0.1-0.1l-0.1,0.1H390c0-0.2-0.1-0.3-0.2-0.3s-0.1,0.1-0.1,0.3h-0.1l0,0c-0.1,0-0.1-0.1-0.2,0l0,0c-0.1,0-0.3,0-0.4,0
	l-0.1-0.1c0,0-0.1,0-0.1,0.1c0,0,0,0-0.1,0c0,0,0-0.1,0.1-0.2c0-0.2,0-0.3-0.1-0.3s-0.2,0.1-0.2,0.3c0,0.1,0,0.2,0,0.2
	c-0.2,0-0.5,0.1-0.7,0.1c0-0.1-0.1-0.2-0.1-0.2c-0.1,0-0.1,0.1-0.1,0.3l0,0c0-0.1,0-0.1-0.1-0.1c0,0,0,0-0.1,0c0,0,0-0.1-0.1-0.1
	s-0.2,0.1-0.2,0.3l0,0c0-0.2,0-0.3-0.1-0.3c0,0-0.1,0-0.1,0.2c0,0,0-0.1-0.1-0.1c0,0-0.1,0-0.1,0.1c0-0.1,0-0.1-0.1-0.1
	s-0.2,0.2-0.3,0.4v0.1l0,0v-0.1c0-0.3-0.1-0.5-0.2-0.5s-0.1,0.2-0.1,0.5c0,0.1,0,0.1,0,0.2c0,0,0,0-0.1,0c0,0,0-0.1,0-0.2
	c0-0.2,0-0.5-0.1-0.5s-0.2,0.1-0.2,0.4c-0.1,0-0.1,0.1-0.1,0.2c0,0.1,0,0.1,0,0.2c0,0,0,0-0.1,0l0,0c0-0.2-0.1-0.3-0.1-0.3l0,0
	c0,0,0-0.1-0.1-0.1c0,0-0.1,0.1-0.1,0.2l0,0c0,0,0,0-0.1,0c0,0,0-0.1-0.1-0.1s-0.1,0.1-0.2,0.3l0,0c0-0.1,0-0.1-0.1-0.2
	c0,0-0.1,0-0.1,0.1c0-0.1,0-0.2-0.1-0.2c0,0-0.1,0-0.2,0.1c-0.1,0-0.2,0.1-0.2,0.3l0,0c-0.1-0.1-0.2-0.2-0.2-0.2v0.1l0,0l0,0
	c0-0.1,0-0.3-0.1-0.3s-0.1,0-0.1,0.2c0,0,0-0.1-0.1-0.1c0,0-0.1,0-0.1,0.1c0-0.1-0.1-0.1-0.1-0.1c-0.1,0-0.1,0.1-0.1,0.1
	c0-0.1-0.1-0.1-0.1-0.1c-0.1,0-0.1,0.1-0.2,0.3h-0.1l0,0c0-0.1,0-0.1-0.1-0.1h-0.1c0-0.1-0.1-0.2-0.1-0.2c-0.1,0-0.1,0.1-0.1,0.2
	c0-0.2-0.1-0.3-0.1-0.3c-0.1,0-0.1,0.2-0.1,0.4c0,0,0,0-0.1,0c0,0-0.1,0-0.1,0.1c0-0.2-0.1-0.4-0.1-0.4s-0.1,0-0.1,0.1
	c0,0,0-0.1-0.1-0.1s-0.1,0.1-0.1,0.3c0-0.1-0.1-0.2-0.1-0.2c-0.1,0-0.1,0.1-0.1,0.3c0,0,0,0,0,0.1c-0.1,0-0.3,0-0.4,0
	c0-0.3,0-0.5-0.1-0.5s-0.2,0.2-0.2,0.5l0,0l0,0c0-0.2-0.1-0.4-0.1-0.4c-0.1,0-0.1,0.2-0.1,0.4l0,0h-0.1c0-0.2-0.1-0.4-0.1-0.4
	c-0.1,0-0.1,0.1-0.1,0.3l-0.1-0.1l0,0c0-0.1-0.1-0.2-0.1-0.2c-0.1,0-0.1,0.1-0.2,0.2c0-0.1-0.1-0.2-0.1-0.2s-0.1,0-0.1,0.1l0,0
	c0,0-0.1,0.1-0.1,0.2l0,0c-0.1,0-0.1,0.1-0.1,0.2h-0.1c-0.1-0.1-0.1-0.2-0.2-0.2l-0.1,0.1c-0.1-0.1-0.1-0.1-0.2-0.1
	c0,0-0.1,0-0.1,0.1c0-0.1-0.1-0.2-0.1-0.2c-0.1,0-0.1,0.1-0.1,0.2c0,0.1,0,0.1,0,0.2c-0.1,0-0.1,0-0.2,0c0-0.2,0-0.4-0.1-0.4
	c0,0,0,0-0.1,0c0-0.1-0.1-0.2-0.1-0.1c0-0.1-0.1,0.2-0.1,0.5c-0.1,0-0.2,0-0.3,0c0,0,0-0.1-0.1-0.1c0-0.2-0.1-0.3-0.1-0.3
	c-0.1,0-0.1,0.1-0.1,0.3c0-0.1-0.1-0.1-0.1-0.1s-0.1,0.1-0.1,0.2H377c0,0,0-0.1-0.1-0.1c0,0-0.1,0-0.1,0.1l0,0
	c-0.1-0.2-0.2-0.4-0.2-0.4c-0.1,0-0.1,0.2-0.1,0.4c-0.1,0-0.2,0-0.3,0c0-0.2-0.1-0.4-0.1-0.4l-0.1,0.1c0-0.1-0.1-0.2-0.1-0.2
	c-0.1,0-0.1,0.2-0.1,0.5l0,0c0-0.4-0.1-0.6-0.2-0.6s-0.1,0.3-0.1,0.6l0,0c0-0.2-0.1-0.4-0.2-0.4s-0.1,0.2-0.1,0.4l0,0
	c0-0.3-0.1-0.5-0.2-0.5l0,0c0-0.3,0-0.6-0.1-0.6s-0.2,0.3-0.2,0.8c0,0.1,0,0.1,0,0.2l0,0c0-0.1,0-0.2-0.1-0.2c0,0-0.1,0.1-0.1,0.2
	c-0.1-0.2-0.1-0.3-0.2-0.3l0,0c0-0.1-0.1-0.2-0.1-0.2c-0.1,0-0.1,0.2-0.1,0.5c0-0.4-0.1-0.7-0.2-0.6c-0.1,0-0.1,0.2-0.1,0.6
	c0,0.1,0,0.2,0,0.3c0,0-0.1,0-0.1,0.1c-0.1-0.2-0.1-0.4-0.2-0.4s-0.1,0.3-0.1,0.6l0,0c0-0.4-0.1-0.7-0.2-0.6c0,0-0.1,0.1-0.1,0.2
	c0,0,0-0.1-0.1-0.1s-0.1,0.4-0.1,0.8l0,0c0,0,0,0-0.1,0.1c0-0.1,0-0.2,0-0.3c0-0.2,0-0.4-0.1-0.4c0-0.1-0.1-0.2-0.1-0.2
	c-0.1,0-0.1,0.2-0.1,0.6c0,0.1,0,0.2,0,0.3s0,0.2,0,0.4c-0.1,0.1-0.1,0.1-0.2,0.2l0,0c0-0.1,0-0.1,0-0.2c0,0,0-0.1,0-0.2
	c0-0.3,0.1-0.5,0-0.6c0,0-0.2,0.1-0.2,0.3c0,0,0-0.1-0.1-0.1c0,0-0.1,0.1-0.1,0.2l0,0c0,0-0.1,0.1-0.2,0.2c0-0.1,0-0.2-0.1-0.2
	s-0.1,0.1-0.2,0.2c-0.1,0-0.3,0.2-0.4,0.6l0,0c0-0.1-0.1-0.2-0.1-0.2s-0.1,0.1-0.1,0.2v0.1c0-0.1,0-0.1,0-0.1
	c-0.1,0-0.2,0.2-0.2,0.4c0-0.1-0.1-0.3-0.1-0.3c-0.1,0-0.2,0.2-0.2,0.5c0,0.1,0,0.1,0,0.2c0,0.1-0.1,0.1-0.1,0.2c0-0.1,0-0.2,0-0.3
	c0-0.3,0-0.6-0.1-0.6c0,0-0.1,0.1-0.1,0.2c-0.1,0-0.2,0.2-0.2,0.5c0-0.1,0-0.2,0-0.2c-0.1,0-0.1,0.1-0.2,0.4l0,0l0,0
	c0-0.2,0-0.4,0-0.4s-0.1,0-0.1,0.1c0,0,0-0.1-0.1-0.1c0,0-0.1,0.1-0.1,0.2c0-0.1-0.1-0.2-0.1-0.2c-0.1,0-0.1,0.1-0.2,0.3
	c0-0.1,0-0.1-0.1-0.1s-0.1,0.1-0.2,0.3l0,0c-0.1,0-0.2,0.2-0.2,0.4v0.1c0,0,0,0,0,0.1l0,0c0.1-0.3,0.1-0.6,0-0.6s-0.2,0.2-0.3,0.6
	c0,0.1,0,0.2,0,0.2l0,0c0,0,0,0,0-0.1c0-0.3-0.1-0.5-0.1-0.5s-0.1,0-0.1,0.1c0,0,0-0.1-0.1-0.1s-0.2,0.2-0.2,0.5v0.1h-0.1
	c0-0.3,0-0.5-0.1-0.6c-0.1,0-0.2,0.3-0.2,0.7c0,0,0,0-0.1,0c0-0.1,0-0.2-0.1-0.2s-0.2,0.1-0.2,0.3l0,0c0-0.1-0.1-0.2-0.1-0.2
	s-0.1,0-0.1,0.1c0-0.1,0-0.1-0.1-0.1c0,0-0.1,0.1-0.2,0.2v-0.1c0,0-0.2,0.1-0.3,0.3v-0.1c-0.1,0-0.2,0.1-0.3,0.4c0,0,0-0.1-0.1-0.1
	s-0.1,0.1-0.2,0.2l0,0c0.1-0.3,0.1-0.6,0-0.7c-0.1,0-0.2,0.2-0.3,0.5c-0.1,0-0.2,0.1-0.3,0.4v0.1c0-0.1,0-0.2-0.1-0.3
	c-0.1,0-0.2,0.1-0.2,0.3c0,0.1,0,0.2,0,0.2h-0.1h-0.1c0-0.1,0-0.1,0-0.2c0.2-0.3,0.3-0.6,0.2-0.7c0-0.1-0.2,0.2-0.4,0.5l0,0
	c-0.1,0-0.1,0.1-0.1,0.4c-0.1,0-0.1,0-0.2,0c0,0,0-0.1,0-0.2c0-0.2,0-0.3-0.1-0.3s-0.2,0.1-0.2,0.3v0.1h-0.1c0-0.3,0-0.5,0-0.5
	c-0.1,0-0.2,0.2-0.2,0.4c0,0,0,0,0-0.1c0-0.2-0.1-0.4-0.2-0.4s-0.1,0.2-0.1,0.4v0.1l0,0c0-0.1,0-0.2-0.1-0.2l0,0
	c-0.1-0.2-0.2-0.4-0.2-0.4c-0.1,0-0.1,0.3,0,0.5v0.1c-0.1,0-0.3,0-0.4,0c0-0.3,0-0.6-0.1-0.6s-0.1,0.2-0.2,0.5l-0.1-0.1
	c0,0,0,0-0.1,0v-0.1c0-0.2-0.1-0.3-0.2-0.3s-0.1,0.2-0.1,0.4c0,0.1,0,0.1,0,0.2c-0.1,0-0.2,0-0.3,0c-0.1-0.2-0.2-0.4-0.2-0.4
	c0-0.1,0-0.2-0.1-0.2s-0.2,0.2-0.2,0.5c0-0.1-0.1-0.1-0.1-0.1c-0.1,0-0.1,0.1-0.1,0.1l0,0c-0.1,0-0.1,0-0.2,0c0.1-0.4,0-0.8,0-0.8
	c-0.1,0-0.2,0.3-0.3,0.8h-0.1V160c0-0.3,0-0.6-0.1-0.6c0-0.1,0-0.1-0.1-0.1s-0.2,0.3-0.2,0.6c0,0.1,0,0.1,0,0.2h-0.1
	c0-0.2,0-0.4-0.1-0.4l0,0v-0.1c-0.1,0-0.2,0.2-0.3,0.5h-0.1c0-0.2,0-0.4-0.1-0.4l0,0c0-0.1-0.1-0.2-0.1-0.2s-0.1,0-0.1,0.1
	c0-0.1,0-0.1-0.1-0.2c0,0-0.1,0.1-0.1,0.2c0-0.1,0-0.2,0-0.2h-0.1c0,0,0,0-0.1,0c0,0-0.1,0.1-0.1,0.2c0,0.1-0.1,0.2-0.1,0.3
	c0,0,0,0,0,0.1l0,0c0-0.2-0.1-0.4-0.1-0.4l-0.1,0.1c-0.1-0.1-0.1-0.2-0.2-0.2s-0.1,0.2,0,0.4l0,0c0,0-0.1,0-0.1,0.1
	c0-0.3,0-0.5,0-0.5s-0.1,0.1-0.1,0.2c0-0.1,0-0.2-0.1-0.2c0,0-0.1,0.1-0.1,0.2c0-0.1,0-0.2-0.1-0.2s-0.2,0.3-0.2,0.7l0,0
	c0-0.3-0.1-0.6-0.2-0.6s-0.1,0.3-0.1,0.6h-0.1c0.1-0.3,0.1-0.5,0-0.6c-0.1,0-0.2,0.2-0.3,0.5l0,0c0,0-0.1,0-0.1,0.1
	c-0.1,0-0.1,0-0.2,0c0-0.1,0-0.1-0.1-0.1c0,0-0.1,0-0.1,0.1h-0.1c0-0.3,0-0.5,0-0.6c-0.1,0-0.2,0.2-0.2,0.6c0,0,0,0-0.1,0
	c0-0.1,0-0.3-0.1-0.3s-0.1,0.1-0.2,0.3l0,0c0-0.2,0-0.4-0.1-0.4c0,0-0.1,0-0.1,0.1l0,0c-0.1,0-0.1,0.1-0.1,0.2c0,0.1,0,0.1,0.1,0.1
	l0,0h-0.2c0.1-0.4,0.2-0.8,0.1-0.8s-0.2,0.1-0.3,0.4l0,0c0,0-0.1,0.1-0.1,0.2c0-0.1,0-0.2,0-0.2s-0.1,0.1-0.2,0.2l0,0
	c0,0-0.1,0.1-0.2,0.2c0-0.2-0.1-0.3-0.1-0.3s-0.1,0.1-0.1,0.2c0-0.2,0-0.4-0.1-0.4s-0.2,0.3-0.2,0.6l0,0c0,0,0,0-0.1,0
	c0-0.1,0-0.3,0-0.3l0,0c0-0.2,0-0.4-0.1-0.4s-0.2,0.1-0.2,0.3c0-0.1,0-0.2-0.1-0.2s-0.2,0.2-0.2,0.4c0-0.2,0-0.4-0.1-0.4
	c0,0-0.1,0.1-0.1,0.2c0-0.2,0-0.4-0.1-0.4c0,0-0.1,0.1-0.1,0.2l0,0l0,0c0-0.1,0-0.1,0-0.1c-0.1,0-0.2,0.1-0.3,0.4
	c0-0.1,0-0.2-0.1-0.3c0,0-0.1,0-0.1,0.1v-0.1c0,0-0.1,0-0.1,0.1c0-0.2,0-0.3-0.1-0.3c0,0,0,0-0.1,0c0-0.3,0-0.5,0-0.5
	c-0.1,0-0.2,0.3-0.3,0.6c0,0,0,0-0.1,0c0-0.3,0-0.5-0.1-0.5c0,0-0.1,0-0.1,0.1c0-0.1,0-0.1-0.1-0.1l0,0c0-0.1,0-0.1-0.1-0.1
	c0,0-0.1,0.1-0.2,0.3c-0.1,0-0.1,0.2-0.1,0.4l0,0c0-0.3,0-0.6-0.1-0.6s-0.1,0.2-0.2,0.5c0,0,0,0,0,0.1H350c0-0.2,0-0.3-0.1-0.3
	c0,0-0.1,0.1-0.1,0.2h-0.1l0,0l0,0l0,0c0-0.3,0-0.6-0.1-0.6c0,0-0.1,0.1-0.1,0.2c0-0.2,0-0.4-0.1-0.4s-0.1,0.2-0.2,0.6
	c0,0,0,0.1-0.1,0.1c0-0.2,0-0.3-0.1-0.3c0,0-0.1,0.1-0.1,0.2l0,0c-0.1,0-0.2,0.3-0.2,0.8l0,0c0,0-0.1,0.1-0.1,0.2
	c0-0.1,0-0.1-0.1-0.1s-0.1,0.2-0.1,0.4c-0.1,0.1-0.2,0.2-0.3,0.3l0,0c0-0.4,0-0.7-0.1-0.8c-0.1,0-0.2,0.3-0.2,0.7c0,0.1,0,0.2,0,0.4
	l0,0c0,0,0,0,0-0.1c0-0.5,0-1-0.1-1s-0.1,0.2-0.2,0.5c0-0.1,0-0.1-0.1-0.1s-0.1,0.2-0.2,0.5c0-0.4,0-0.6-0.1-0.6s-0.1,0.2-0.2,0.6
	V161c-0.1,0-0.2,0.4-0.2,1c0-0.2,0-0.4-0.1-0.4s-0.1,0.2-0.2,0.4c0,0-0.1,0.1-0.1,0.2l0,0c0,0,0,0-0.1,0.1c0-0.2,0-0.3-0.1-0.3
	s-0.2,0.3-0.3,0.8c0,0.1,0,0.2,0,0.4c-0.1,0-0.1,0.1-0.2,0.1c0-0.2,0-0.3,0.1-0.5c0.1-0.5,0.2-0.9,0.1-1c-0.1,0-0.3,0.4-0.4,1
	c0,0.1,0,0.1,0,0.2c0-0.1,0-0.2-0.1-0.2s-0.2,0.2-0.2,0.5l0,0c0,0-0.1,0-0.1,0.1c0-0.1,0-0.1-0.1-0.1s-0.1,0.2-0.2,0.5
	c0-0.1-0.1-0.2-0.1-0.2c-0.1,0-0.1,0.2-0.2,0.5c0-0.2,0-0.4-0.1-0.4c0,0-0.1,0.1-0.1,0.2l0,0c-0.1,0-0.1,0.2-0.2,0.4
	c0,0,0,0-0.1-0.1h-0.1l0,0c-0.1,0-0.1,0.1-0.2,0.4c0,0,0,0-0.1,0.1c0-0.3-0.1-0.6-0.1-0.6c-0.1,0-0.2,0.3-0.2,0.8c0,0,0,0-0.1,0
	c0-0.3-0.1-0.5-0.1-0.5s-0.1,0.2-0.1,0.4c0-0.1,0-0.1-0.1-0.1s-0.2,0.2-0.2,0.5c0,0,0,0,0,0.1l-0.1-0.1c-0.1,0-0.2,0.1-0.2,0.1v0.1
	c-0.1,0.1-0.2,0.1-0.3,0.2v-0.1l0,0c0.1,0,0.2-0.2,0.2-0.3c0-0.2,0-0.3-0.1-0.4c-0.1,0-0.2,0.1-0.2,0.3v0.1l0,0
	c-0.1,0-0.1,0.1-0.2,0.3c0,0,0,0-0.1,0c0-0.2,0-0.4-0.1-0.5c0,0-0.1,0-0.1,0.1l0,0c0,0,0,0-0.1,0c0-0.2,0-0.3-0.1-0.3
	s-0.1,0.2-0.2,0.4c0-0.2-0.1-0.3-0.1-0.3c-0.1,0-0.2,0.3-0.2,0.7c0,0.2,0,0.4,0.1,0.6c-0.1,0-0.1,0.1-0.2,0.1c-0.1-0.6,0-1-0.1-1.1
	c0,0,0,0-0.1,0.1c0-0.1,0-0.1-0.1-0.1s-0.1,0.4-0.1,0.9c0,0.1,0,0.3,0,0.4l0,0c0-0.1,0-0.2,0-0.4c0-0.5,0-0.9-0.1-0.9
	c0,0,0,0.1-0.1,0.1s-0.1,0.2-0.1,0.5c0-0.1-0.1-0.2-0.1-0.2s-0.1,0-0.1,0.1c0-0.1,0-0.1-0.1-0.1s-0.1,0.1-0.2,0.3
	c0-0.1-0.1-0.2-0.1-0.2c-0.1,0-0.1,0.1-0.1,0.3c0-0.3-0.1-0.4-0.1-0.4s-0.1,0.2-0.1,0.4l0,0c-0.1,0-0.2,0.2-0.2,0.5
	c0,0,0,0.1-0.1,0.1c0-0.1,0-0.1,0-0.1c-0.1,0-0.1,0.1-0.2,0.3c0,0.1-0.1,0.2-0.1,0.4c0,0-0.1,0.1-0.1,0.2c0-0.2,0-0.3-0.1-0.3
	s-0.1,0.2-0.2,0.5c0-0.1,0-0.2-0.1-0.2c0,0-0.1,0.1-0.1,0.2c0-0.1,0-0.2,0-0.3c0-0.3,0-0.5-0.1-0.5c0,0-0.1,0.1-0.1,0.2l0,0
	c0,0-0.1,0.1-0.1,0.2c0-0.2,0-0.3-0.1-0.3s-0.2,0.3-0.3,0.8l0,0c0,0,0,0.1-0.1,0.1c0,0,0,0-0.1-0.1c-0.1,0-0.1,0.1-0.1,0.2l0,0
	c0,0-0.1,0-0.1,0.1l0,0c0,0-0.1,0-0.1,0.1c0-0.2,0-0.3-0.1-0.3s-0.2,0.3-0.2,0.6c0,0-0.1,0.1-0.1,0.2l0,0l0,0c0-0.2,0-0.3-0.1-0.3
	c0,0-0.1,0.1-0.1,0.2l0,0c-0.1,0-0.1,0.2-0.2,0.4l0,0c-0.1,0-0.1,0.1-0.1,0.2c0-0.1-0.1-0.1-0.1-0.1s-0.1,0-0.1,0.1
	c0,0-0.1,0.1-0.1,0.2c0-0.1,0-0.1-0.1-0.1c0,0,0,0-0.1,0c0-0.1,0-0.1-0.1-0.1c0,0-0.1,0.1-0.2,0.2c0,0,0-0.1-0.1-0.1
	s-0.2,0.3-0.2,0.6c0,0.2,0,0.3,0,0.4c0,0,0,0-0.1,0v-0.1c0-0.3,0-0.6-0.1-0.6s-0.1,0.2-0.2,0.4l0,0c0,0,0,0-0.1,0
	c0-0.1-0.1-0.2-0.1-0.2c-0.1,0-0.1,0.3-0.1,0.5s0,0.3,0,0.4l-0.1,0.1l0,0c0-0.3,0-0.5-0.1-0.5c0,0-0.1,0.1-0.1,0.2
	c0-0.1,0-0.2-0.1-0.2s-0.2,0.2-0.2,0.4l0,0c-0.1,0-0.1,0.2-0.1,0.4c0,0.1,0,0.1,0,0.2l-0.1,0.1c0-0.1,0-0.2,0-0.4
	c0.1-0.5,0.1-0.9,0-0.9c0,0-0.1,0-0.1,0.2c0-0.2,0-0.2,0-0.2c-0.1,0-0.2,0.4-0.3,1.1c0,0.1,0,0.1,0,0.2l0,0c0-0.3,0-0.5-0.1-0.5
	c0,0-0.1,0.1-0.1,0.2c0-0.1,0-0.1-0.1-0.1s-0.2,0.3-0.2,0.7v0.1l0,0c0,0,0-0.1-0.1-0.1c0-0.1,0-0.2-0.1-0.3l0,0v-0.1
	c-0.1,0-0.2,0.2-0.3,0.6c0-0.1,0-0.2-0.1-0.2l-0.1,0.1v-0.1c0,0-0.1,0-0.1,0.1c0-0.1,0-0.1-0.1-0.1s-0.2,0.2-0.3,0.6
	c-0.1,0-0.2,0.2-0.2,0.5l0,0c0-0.3-0.1-0.5-0.1-0.5c-0.1,0-0.2,0.3-0.2,0.7v0.1l0,0c0-0.1,0-0.2-0.1-0.2c0,0-0.1,0.1-0.2,0.2
	c0-0.1,0-0.1-0.1-0.1s-0.2,0.2-0.2,0.5l0,0c0-0.2,0-0.3,0-0.4c-0.1,0-0.2,0.2-0.3,0.5c0,0,0,0.1-0.1,0.1c0-0.1,0-0.2-0.1-0.2
	s-0.2,0.4-0.3,0.9v0.1c0,0,0,0-0.1,0.1c0,0,0,0,0-0.1c0-0.3,0-0.6-0.1-0.6l0,0c0-0.1,0-0.2-0.1-0.2s-0.2,0.2-0.2,0.4l0,0
	c0,0-0.1,0.1-0.2,0.3l0,0c-0.1,0-0.1,0.1-0.2,0.3l0,0c0-0.2,0-0.3,0-0.4c-0.1,0-0.2,0.2-0.3,0.5l0,0c-0.1,0-0.2,0.2-0.2,0.4l0,0
	c-0.1,0-0.1,0.2-0.2,0.4c0-0.1,0-0.1-0.1-0.1s-0.1,0.1-0.2,0.3l0,0c0,0-0.1,0.1-0.2,0.2l0,0l0,0c0-0.1,0-0.2-0.1-0.2
	s-0.2,0.2-0.2,0.5c0-0.1,0-0.1-0.1-0.1s-0.2,0.2-0.2,0.5v0.1l0,0c0,0-0.1,0-0.1,0.1c0,0,0-0.1-0.1-0.1c0,0-0.1,0-0.1,0.1l0,0
	c-0.1,0-0.2,0.3-0.3,0.7l0,0l0,0c-0.1,0-0.2,0.2-0.2,0.5c0,0.1,0,0.1,0,0.2c0,0,0-0.1-0.1-0.1s-0.1,0.2-0.2,0.4c0-0.3,0-0.5-0.1-0.5
	s-0.1,0.2-0.2,0.4l0,0c-0.1,0-0.2,0.2-0.2,0.4c0-0.1,0-0.2-0.1-0.2c0,0-0.1,0-0.1,0.1c0-0.2-0.1-0.3-0.2-0.3c0,0-0.1,0.1-0.1,0.3
	c0-0.2,0-0.3-0.1-0.3c0,0-0.1,0.1-0.1,0.2c0-0.1-0.1-0.2-0.1-0.2l0,0c0-0.1-0.1-0.1-0.1-0.1s-0.1,0.1-0.1,0.3c0-0.2,0-0.3-0.1-0.3
	c0,0,0,0-0.1,0c0-0.1-0.1-0.2-0.1-0.2c-0.1,0-0.1,0.2-0.2,0.4c0-0.1,0-0.1-0.1-0.1c0,0,0,0-0.1,0c0,0,0,0,0-0.1c0-0.2,0-0.4,0-0.5
	c-0.1,0-0.2,0.3-0.3,0.7v-0.1c0-0.4,0-0.7-0.1-0.7c0,0-0.1,0.1-0.1,0.3c0-0.3-0.1-0.5-0.1-0.5c-0.1,0-0.1,0.2-0.1,0.5
	c0-0.1,0-0.1-0.1-0.1s-0.1,0.1-0.2,0.4c0-0.3-0.1-0.6-0.1-0.6s-0.1,0.1-0.1,0.2c0,0,0,0-0.1,0l0,0l0,0l0,0c0-0.1,0-0.2-0.1-0.2
	c0,0-0.1,0.1-0.1,0.2c0,0,0-0.1-0.1-0.1c0,0-0.1,0.1-0.1,0.2v-0.1c0-0.3,0-0.5-0.1-0.5s-0.1,0.2-0.2,0.5c0,0.1-0.1,0.2-0.1,0.3
	c0-0.1-0.1-0.2-0.2-0.2c0,0-0.1,0-0.1,0.1c0-0.1,0-0.1-0.1-0.1l0,0c0-0.2-0.1-0.3-0.1-0.3c-0.1,0-0.1,0.1-0.2,0.3c0,0,0,0-0.1,0
	c0,0-0.1,0-0.1,0.1c0,0,0,0-0.1,0c0,0-0.1,0-0.1,0.1c0-0.1-0.1-0.2-0.1-0.2s-0.1,0.1-0.1,0.2c0,0,0-0.1-0.1-0.1l0,0
	c0-0.2,0-0.3-0.1-0.3s-0.2,0.3-0.2,0.7c0-0.4,0-0.7-0.1-0.7s-0.1,0.2-0.2,0.4c0,0,0-0.1-0.1-0.1s-0.1,0.1-0.2,0.3
	c0-0.2-0.1-0.3-0.1-0.3c-0.1,0-0.1,0.1-0.1,0.3c0,0,0,0-0.1,0l-0.1,0.1c0,0,0,0-0.1,0c0,0-0.1,0-0.1,0.1c0-0.2,0-0.3-0.1-0.3
	s-0.1,0.1-0.2,0.3c0-0.1,0-0.1-0.1-0.1c0,0-0.1,0-0.1,0.1c0-0.1,0-0.1-0.1-0.1s-0.2,0.3-0.2,0.6v0.1h-0.1c0-0.3,0-0.5,0-0.5
	c-0.1,0-0.2,0.3-0.3,0.7l0,0l0,0c0,0,0,0,0-0.1c0-0.3,0.1-0.6,0-0.7c-0.1,0-0.2,0.2-0.2,0.4l0,0c0-0.1,0-0.1-0.1-0.1l0,0
	c0-0.1,0-0.2-0.1-0.2c0,0-0.1,0.1-0.2,0.4c0-0.1,0-0.1-0.1-0.1c0,0-0.1,0.1-0.2,0.3c0-0.1,0-0.2-0.1-0.2c0,0-0.1,0.1-0.1,0.2
	c0,0,0-0.1-0.1-0.1s-0.2,0.3-0.2,0.6l0,0c0,0-0.1,0.1-0.1,0.2c0-0.1-0.1-0.1-0.1-0.1c-0.1,0-0.1,0.2-0.1,0.6l0,0
	c0-0.3,0-0.5-0.1-0.5c0,0-0.1,0.1-0.1,0.3c0-0.1,0-0.2-0.1-0.2s-0.1,0.3-0.2,0.6c0,0.1-0.1,0.1-0.1,0.2c0-0.2,0-0.3-0.1-0.4
	c-0.1,0-0.2,0.2-0.2,0.6c0,0.1,0,0.1,0,0.2l0,0l0,0c-0.1,0-0.1,0.1-0.2,0.2c0,0,0-0.1-0.1-0.1c0,0-0.1,0-0.1,0.1
	c0-0.3,0-0.5-0.1-0.5s-0.2,0.3-0.2,0.8l0,0l0,0c-0.1,0-0.2,0.2-0.2,0.5c0,0.1,0,0.1,0,0.1s0,0-0.1-0.1c-0.1,0-0.1,0.1-0.2,0.3l0,0
	c0-0.2,0-0.4-0.1-0.4s-0.2,0.1-0.2,0.4c0-0.1,0-0.1-0.1-0.1l-0.1,0.1c0-0.2,0-0.3-0.1-0.3c0,0-0.1,0.1-0.2,0.3
	c-0.7,0.1-0.7,0.6-0.7,1.2c-0.6-1.2-1.8-0.6-2.3-0.6v0.6c-0.6-0.6,0.6-1.2-0.6-1.2c0,0.6,0,0.6,0,1.2c0-0.6,0-0.6-0.6-0.6
	c0.6,1.2-1.2,0-1.2,1.2c0-0.6,0-0.6,0-1.2c0.6,0.6-0.6,1.2-0.6,1.8c0-1.8-1.8,1.8-1.8-0.6c-0.6,1.8-2.3,0.6-3.5,1.8
	c0-0.6,0-0.6,0-1.2c-1.2,0-1.8,0.6-2.9,1.8c-0.6,0.6-1.2,0.6-1.8,0.6c0.6,0.6-0.6,1.2,0.6,1.2c-1.2-0.6-1.8,0.6-2.9,0.6
	c0-0.6,0.6-0.6,1.2-0.6l-0.6-0.6c-3.5,2.3-7.6,1.2-11.2,2.3c0-0.6,0-0.6,0-1.2c-0.6,1.2-2.3,0-2.9,1.2l-0.6-0.6c0.6,0,1.2,0,1.8,0
	c-1.2,0.6-2.3-0.6-2.9,0.6c0-0.6,0-0.6,0-1.2c-1.2,2.3-3.5,4.1-4.7,6.5c-0.6-0.6-1.2-1.2-1.8-1.8c0.6,1.8-1.2-0.6-1.2,0.6
	c0-0.6,0-0.6,0-1.2c-1.8,0-4.1-1.8-5.9,0c0-0.6,0-1.2-0.6-1.8c0,0.6,0,0.6,0,1.2c0-0.6,0-0.6,0-1.2c0.6,0,1.8,0,2.3,0
	c-1.2,0,0,0.6-0.6,1.2c-1.8-1.2-4.7,0-6.5-1.2h0.6c-2.3-0.6-4.7-0.6-7,0.6c-1.2,0-2.9,0.6-4.1-0.6h0.6c-1.2-0.6-2.3-0.6-3.5-1.2
	c-2.9,1.2-5.3,0.6-8.2,0.6c-4.7-1.2-8.8-1.2-13.5-1.2c0,0.6,0,0.6,0,1.2c-1.2-1.8-4.1-1.2-5.9-2.3c0.6,0.6-1.2,0.6-0.6,1.2
	c-1.2-0.6-2.3,1.2-4.1,0c-4.1,1.8-10,1.8-14.7,0c-1.8,0.6-4.1,1.2-5.9,1.5c-2.1,0.4-4.1,0.8-5.9,2c-3.5,0-7,1.2-10.6,0.6
	c0,0.6,0,0.6,0,1.2l-0.6-0.6c-0.6,1.2-1.8,0.6-2.9,0.6c0,0.6,0,1.2-0.6,1.2c-1.8-0.6-2.9,0.6-4.1,1.2v-0.6c-1.8,1.2-4.1,0-5.9,2.3
	c-2.9,0-6.5,1.2-9.4-0.6l-0.6,0.6c0-0.6-0.6-0.6-1.2-0.6c-0.6,0-0.6,0.6-0.6,1.2c0.6,0,0.6,0,0.6-0.6c-1.8,0-3.5,1.2-5.3,0.6v-0.6
	c-0.6,0.6,0.6,1.2-0.6,1.2c0-0.6,0-0.6,0-1.2c-1.2,0.6-2.9,0.6-3.8,0.7c-1.3,0.1-2.6-0.1-3.8-0.7c0,0.6-0.6,0.6-1.2,0.6l0.6,0.6
	c-6.5-1.2-12.9-4.7-19.4-1.8c-1.8-1.8-4.7-4.1-2.9-7c-0.6-0.6-1.2-1.8-2.3-1.8c0,0.6,0,0.6,0,1.2c-0.6-0.6-0.6-0.6-1.2-1.2
	c0,0.6-0.6,0.6-1.2,0.6c0-0.6,0-0.6,0-1.2c-1.8,0.6-2.9-1.2-4.7-0.6c-0.6-1.2-1.8-1.2-2.9-1.2c0,0.6,0,0.6,0,1.2
	c0-1.2-1.8-1.8-1.2-2.9l-0.6,0.6c0-0.6,0-0.6,0-1.2c-0.6,0-1.2,0-1.8,0.6c0.6-1.2,0-2.3-1.2-2.9c0,0,0,0.6,0.1,0.5
	c0.5-1.7-1.8-2.3-1.8-4.1c0,0.6,0,0.6,0,1.2c0-0.6,0-1.2,0-1.2c-1.8-1.8-2.9-3.5-5.3-4.7c-0.6,0-1.2,0-1.8,0
	c-0.6-0.6-1.2-1.2-2.2-1.2c0-0.2,0-0.3-0.1-0.3c0,0,0,0-0.1,0c0,0,0-0.1-0.1-0.1c0,0,0,0-0.1,0c0,0,0,0-0.1,0.1c0-0.1,0-0.2-0.1-0.2
	s-0.1,0.1-0.2,0.3l0,0l0,0c0-0.4,0-0.7-0.1-0.7c0,0-0.1,0.1-0.2,0.4c0-0.2,0-0.4-0.1-0.4l0,0c0.1-0.3,0.1-0.6,0-0.6
	c0,0-0.1,0-0.1,0.1c0,0,0-0.1-0.1-0.1c0-0.1,0-0.2-0.1-0.2c0,0,0,0-0.1,0.1l0,0c-0.1,0-0.1,0-0.1,0.1c0,0,0-0.1-0.1-0.1h-0.1
	c0,0,0-0.1,0-0.2c0-0.2,0-0.3-0.1-0.3c0,0,0,0-0.1,0L85,171h-0.1l0,0c0-0.2,0-0.3-0.1-0.3l0,0c0-0.1-0.1-0.2-0.1-0.3
	c-0.1,0-0.2,0.1-0.2,0.3s0,0.3,0.1,0.3l0,0c-0.1,0-0.1-0.1-0.2-0.1c0-0.1,0-0.1,0-0.2c0-0.2,0-0.4-0.1-0.4c0,0,0,0-0.1,0l0,0
	c0,0-0.1,0-0.1,0.1l0,0c0,0,0,0-0.1,0c0,0,0-0.1-0.1-0.1c0-0.1-0.1-0.1-0.1-0.1s-0.1,0-0.1,0.1c0-0.1,0-0.2-0.1-0.2
	s-0.2,0.1-0.2,0.3v0.1c0,0,0,0-0.1,0v-0.1c0-0.2,0-0.4-0.1-0.4c0,0-0.1,0-0.1,0.1l0,0c-0.1,0-0.1,0.1-0.2,0.2l-0.1-0.1
	c0-0.1,0-0.2-0.1-0.2c0,0-0.1,0-0.1,0.1c0-0.2-0.1-0.3-0.2-0.3c0,0-0.1,0-0.1,0.1l0,0l0,0c0,0,0,0-0.1,0c0,0,0,0-0.1,0
	c0,0-0.1,0-0.1,0.1l0,0v-0.1c0-0.2,0-0.3-0.1-0.3s-0.2,0.1-0.2,0.3v0.1c0,0,0,0.1-0.1,0.2l0,0l0,0l0,0l-0.1-0.1c-0.1,0-0.1,0-0.1,0
	s-0.1,0-0.1,0.1c0,0-0.1,0,0-0.1l0,0c0-0.1-0.1-0.2-0.1-0.2c-0.1,0-0.1,0.1-0.1,0.2c0,0,0,0-0.1,0c0-0.1,0-0.1-0.1-0.1
	c0,0,0,0-0.1,0c0-0.1-0.1-0.2-0.1-0.2c-0.1,0-0.1,0.1-0.1,0.2c0,0,0-0.1-0.1-0.1s-0.1,0-0.2,0.1c0-0.1-0.1-0.1-0.1-0.1
	c-0.1,0-0.1,0.1-0.1,0.2c0,0,0,0-0.1-0.1c0,0,0,0-0.1,0c0-0.1-0.1-0.2-0.2-0.2s-0.1,0.1-0.1,0.2l-0.1-0.1h-0.1l0,0h-0.1h-0.1l0,0
	c0,0,0,0-0.1,0c0,0,0,0-0.1,0h-0.1c0,0,0-0.1-0.1-0.1c0,0,0,0-0.1,0c0,0,0-0.1-0.1-0.1s-0.1,0.1-0.2,0.2l0,0c0-0.2,0-0.4-0.1-0.4
	l0,0c-0.1-0.1-0.3-0.3-0.4,0.1c0,0.1-0.1,0.1-0.1,0.2l-0.1-0.1c0-0.1,0-0.2-0.1-0.2h-0.1c0,0,0,0-0.1,0c0,0,0,0-0.1,0l0,0
	c0,0-0.1,0-0.1,0.1l0,0c0-0.1,0-0.1,0-0.1s0,0-0.1,0l0,0c-0.1,0-0.3,0-0.2,0.1c0,0,0-0.1-0.1-0.1h-0.1c0-0.1,0-0.1-0.1-0.2
	c0-0.1-0.1,0-0.2,0.1l0,0c0-0.1,0-0.1,0-0.2v-0.1l0,0l0,0l0,0c0,0-0.1,0-0.3-0.1v0.1l0,0l0,0l0,0l0,0c0.1-0.2,0-0.4-0.1-0.4
	c0,0-0.1,0-0.1,0.1l0,0c-0.1,0-0.1,0.1-0.2,0.3c0-0.1-0.1-0.1-0.1-0.1s-0.1,0-0.1,0.1l0,0c0-0.2,0-0.4,0-0.4l0,0c0,0,0-0.1-0.1-0.1
	s-0.1,0-0.1,0.1l0,0l0,0c0-0.1,0-0.1-0.1-0.2l-0.1-0.1H75c0-0.1-0.1-0.2-0.1-0.2s-0.1,0-0.1,0.1c0,0,0-0.1-0.1-0.1c0,0,0,0-0.1,0
	c0-0.2,0-0.4-0.1-0.4s-0.1,0.1-0.2,0.4l0,0c0-0.1-0.1-0.2-0.2-0.2l0,0v-0.1c0.1-0.2,0-0.3-0.1-0.4c0.1-0.1-0.3,0-0.2,0.3
	c0,0,0,0,0,0.1c0,0,0,0-0.1,0l0,0c-0.1,0-0.1,0-0.2,0c0,0,0-0.1-0.1-0.1l0,0l0,0c0-0.1-0.1-0.1-0.1-0.1l0,0c0-0.1-0.1-0.2-0.1-0.2
	s-0.1,0-0.1,0.1c0-0.2-0.1-0.3-0.1-0.2c0,0-0.1,0-0.1,0.1c0-0.2-0.1-0.3-0.1-0.3s-0.1,0.1-0.1,0.3c-0.2,0.1-0.2,0.2-0.2,0.3
	c0,0,0,0-0.1,0l0,0c0,0,0,0-0.1,0.1c0,0,0,0-0.1,0l0,0c0,0-0.1,0-0.3,0c0-0.1-0.1-0.1-0.1-0.1l0,0c0-0.1-0.1-0.2-0.1-0.2
	c-0.1,0-0.1,0.2-0.2,0.4c0,0,0,0,0,0.1h-0.1c0,0,0,0,0-0.1s0-0.3-0.1-0.3s-0.2,0.1-0.2,0.2v0.1H71c0,0,0-0.1,0-0.2l0,0
	c0-0.1-0.1-0.1,0,0c-0.1,0-0.1,0.1-0.2,0.1h-0.1c0-0.1,0-0.2-0.1-0.2s-0.1,0-0.2,0.1c0-0.1,0-0.1-0.1-0.2c0-0.1-0.2,0-0.2,0.3
	c0,0,0,0,0,0.1l0,0l0,0c0-0.2,0-0.3-0.1-0.3c0,0-0.1,0-0.1,0.1c0,0,0-0.1-0.1-0.1v-0.1c0-0.1-0.1-0.2-0.1-0.2
	c-0.1,0-0.1,0.1-0.1,0.3c0-0.1-0.1-0.1-0.1-0.2l0,0c0-0.1,0-0.1-0.1-0.1c0,0-0.1,0-0.1,0.1c0-0.5,0-0.8-0.1-0.8c0,0-0.1,0-0.1,0.1
	c0-0.1,0-0.1-0.1-0.1s-0.1,0.3-0.1,0.8c0,0.1,0,0.1,0,0.1c0-0.1,0-0.2-0.1-0.2s-0.2,0.1-0.2,0.2c0-0.2,0-0.3-0.1-0.3c0,0,0,0-0.1,0
	c0-0.1-0.1-0.2-0.1-0.2c-0.1,0-0.1,0.1-0.2,0.3c0,0,0-0.1-0.1-0.1s-0.1,0.1-0.1,0.2c-0.1,0-0.1,0.1-0.2,0.3v0.1l0,0v-0.1
	c0-0.1,0-0.2,0-0.2c0-0.2-0.1-0.3-0.1-0.3s-0.1,0.1-0.1,0.2c0,0,0-0.1-0.1-0.1c0,0-0.1,0-0.1,0.1c0-0.2,0-0.3-0.1-0.3
	c0,0-0.1,0-0.1,0.1c-0.1,0-0.1,0.1-0.1,0.2c0,0,0,0-0.1,0l-0.1,0.1c0-0.2-0.1-0.3-0.1-0.3c0-0.1-0.1-0.1-0.1-0.1
	c-0.1,0-0.1,0.2-0.1,0.4c0-0.1-0.1-0.1-0.1-0.1s-0.1,0-0.1,0.1c-0.1-0.2-0.1-0.3-0.2-0.3c0,0-0.1,0.1-0.1,0.2c0-0.1-0.1-0.1-0.1-0.1
	l-0.1,0.1c0-0.2-0.1-0.4-0.2-0.4l-0.1,0.1c-0.1,0-0.2-0.1-0.2,0l0,0c0-0.1,0-0.1,0-0.1V167h-0.1c0-0.3-0.1-0.5-0.1-0.5
	s-0.1,0.1-0.1,0.3l0,0l0,0c0.1-0.2-0.1-0.1-0.2,0.1l0,0c0,0,0-0.1-0.1-0.1l0,0c0-0.1,0-0.2,0-0.3c0-0.4-0.1-0.8-0.1-0.8
	s-0.1,0-0.1,0.1l0,0c-0.1,0-0.2,0.4-0.2,1c0,0.2,0,0.3,0,0.5c0-0.1-0.1-0.3-0.1-0.5c-0.2-0.1-0.3,0-0.3,0.1c0,0,0,0-0.1,0.1
	l-0.1-0.1c0,0.1,0,0.1,0,0.2v0.1c0,0,0,0-0.1,0l0,0c0-0.1,0-0.2-0.1-0.2c0,0-0.1,0.1-0.1,0.2l0,0c0,0,0,0-0.1,0
	c0-0.1-0.1-0.2-0.1-0.2s-0.1,0.1-0.1,0.3l-0.1-0.1c0,0,0,0-0.1,0.1l0,0c0-0.2-0.1-0.3-0.2-0.3c-0.1,0-0.1,0.1-0.1,0.3v-0.1l0,0
	c0-0.5-0.1-0.8-0.1-0.8c-0.1,0-0.1,0.4-0.2,0.9c-0.1,0,0,0,0,0.1l0,0l0,0l0,0c-0.1-0.2-0.1-0.3-0.2-0.3c0,0,0,0-0.1,0.1l0,0
	l-0.1,0.1c0,0,0,0-0.1,0c-0.2-0.2-0.2,0-0.2,0.2l0,0c0,0.1,0,0.1,0,0.1l0,0c0-0.1-0.1-0.2-0.2-0.2l0,0h-0.1h-0.1l0,0l0,0v-0.1
	c0.1-0.4,0-0.4-0.1-0.2l0,0c0-0.2,0-0.3-0.1-0.3c0,0,0,0.1-0.1,0.2c0-0.1-0.1-0.1-0.1-0.1s0,0-0.1,0.1c0-0.1,0-0.1-0.1-0.1l0,0
	c0-0.4,0-0.7-0.1-0.7s-0.2,0.3-0.2,0.6c0,0.1,0,0.2,0,0.3c0,0-0.1,0-0.1,0.1c0-0.2-0.1-0.3-0.2-0.3l-0.1,0.1c0-0.1-0.1-0.1-0.1-0.1
	s0,0-0.1,0.1l0,0l0,0c0-0.1-0.1-0.1-0.1-0.1l-0.1,0.1c0-0.1-0.1-0.1-0.1-0.1s-0.1,0-0.1,0.1c0-0.1-0.1-0.2-0.1-0.2
	c0-0.3,0-0.5-0.1-0.6c-0.1,0-0.1,0.2-0.2,0.5c0,0,0,0,0,0.1l0,0c0,0-0.1,0-0.1-0.1s-0.1-0.1-0.1-0.1s-0.1,0-0.1,0.1
	c0-0.2-0.1-0.3-0.2-0.3l0,0l0,0c-0.1,0-0.1,0.1-0.1,0.2h-0.1l0,0c0-0.2-0.1-0.3-0.1-0.3l0,0c-0.1,0-0.1,0-0.2,0.2
	c-0.1,0-0.1,0-0.1-0.1l0,0c0,0,0-0.1-0.1-0.1l0,0l-0.1-0.1c0,0-0.1,0-0.1,0.1c0-0.2-0.1-0.4-0.2-0.4c0,0-0.1,0.1-0.1,0.2l0,0
	c-0.1,0-0.2,0.2-0.2,0.5c0-0.1,0-0.2-0.1-0.2s-0.2,0.2-0.2,0.4h-0.1v-0.1c0-0.3,0-0.6-0.1-0.6c0,0,0,0-0.1,0c0,0,0-0.1-0.1-0.1
	s-0.2,0.2-0.2,0.5c0,0.1,0,0.1,0,0.1c-0.1,0-0.1,0-0.2,0v-0.1c0.1-0.3,0.1-0.5,0-0.5h-0.1c0,0,0-0.1-0.1,0c-0.1,0-0.1,0.1-0.1,0.3
	l-0.1-0.1l0,0c0-0.2-0.1-0.4-0.1-0.4s-0.1,0.1-0.1,0.2c-0.1,0.1-0.1,0.3-0.1,0.5c0,0,0,0,0,0.1l0,0v-0.1c0-0.3,0-0.5-0.1-0.5
	c0,0-0.1,0-0.1,0.1c0-0.1,0-0.2-0.1-0.3c0,0-0.1,0.1-0.1,0.2c0,0-0.1,0-0.1,0.1c0-0.1,0-0.2-0.1-0.2c0,0-0.1,0-0.1,0.1l0,0
	c-0.1,0-0.1,0.2-0.2,0.4c0-0.3,0-0.6-0.1-0.6s-0.1,0.2-0.2,0.6c0-0.2-0.1-0.4-0.1-0.4s-0.1,0-0.1,0.1c0-0.1,0-0.2-0.1-0.2
	s-0.1,0.1-0.2,0.4l0,0h-0.1l0,0c0,0,0,0-0.1,0c0-0.1,0-0.2-0.1-0.2c0,0-0.1,0-0.1,0.1c0-0.1,0-0.2-0.1-0.1c-0.1,0-0.1,0.1-0.2,0.3
	c0,0,0,0-0.1,0.1c0-0.3,0-0.5-0.1-0.5l0,0c0-0.1,0-0.1-0.1-0.1c0,0-0.1,0-0.1,0.1c0-0.1-0.1-0.3-0.1-0.3c-0.1,0-0.1,0.1-0.2,0.3l0,0
	c0-0.1,0-0.1-0.1-0.1s-0.1,0.1-0.1,0.2c0-0.1,0-0.2-0.1-0.2s-0.2,0.1-0.2,0.3c0,0-0.1,0-0.1,0.1c0,0,0-0.1-0.1-0.1l0,0h-0.1
	c0,0-0.1,0-0.1,0.1l-0.1-0.1H51l0,0c0,0,0,0-0.1,0c0,0,0-0.1-0.1-0.1h-0.1l-0.1-0.1c0,0-0.1,0-0.1,0.1l0,0c0,0,0,0-0.1,0l0,0
	c0-0.1-0.1-0.2-0.1-0.2s-0.1,0-0.1,0.1c0,0-0.1,0-0.1-0.1c0,0-0.1,0-0.1,0.1c-0.2-0.1-0.4-0.1-0.6-0.2c-0.5-0.1-1-0.1-1.5-0.1
	l-0.1-0.1c0,0-0.1,0-0.1,0.1c0,0,0,0-0.1,0s-0.2-0.1-0.2-0.1c0-0.1,0-0.2-0.1-0.2s-0.1,0.1-0.2,0.2H47c0,0,0-0.1-0.1-0.1h-0.1
	c0,0,0,0,0-0.1s0-0.3-0.1-0.3s-0.1,0.1-0.2,0.2l0,0l0,0c0-0.1,0-0.3-0.1-0.3s-0.1,0.1-0.2,0.2l0,0c0,0,0,0-0.1,0l0,0H46
	c0-0.1-0.1-0.1-0.1-0.1s-0.1,0-0.1,0.1l0,0c0-0.1-0.1-0.2-0.1-0.2l-0.1,0.1l-0.1-0.1l0,0c0-0.1-0.1-0.1-0.1-0.1
	c-0.1,0-0.1,0.1-0.1,0.2l-0.1,0.1c-0.3-0.2-0.7-0.2-1,0l0,0c0,0-0.1,0-0.1,0.1c-0.1,0.1-0.2,0.2-0.2,0.3h-0.1c0,0-0.1,0-0.1,0.1
	c0-0.1,0-0.2-0.1-0.2s-0.1,0.1-0.2,0.4c0-0.1-0.1-0.1-0.1-0.1c0-0.1-0.1-0.2-0.1-0.2c-0.1,0-0.1,0.1-0.2,0.3c0,0,0,0-0.1,0l0,0l0,0
	c0,0,0,0-0.1,0c0-0.1,0-0.2-0.1-0.2c0,0-0.1,0-0.1,0.1l0,0c0,0-0.1,0-0.1,0.1c0-0.1-0.1-0.1-0.1-0.1c-0.1,0-0.1,0.2-0.1,0.3V166l0,0
	c0,0,0,0-0.1,0c0-0.1,0-0.1-0.1-0.2c0,0-0.1,0-0.1,0.1c0-0.1-0.1-0.2-0.1-0.1c-0.1,0-0.1,0.2-0.1,0.3l0,0c0-0.1,0-0.2,0-0.2
	s-0.1,0-0.2,0.1c0-0.2-0.1-0.3-0.1-0.3s-0.1,0-0.1,0.1l0,0c-0.1,0-0.1,0.1-0.2,0.4c0,0,0,0-0.1,0l0,0c0.1-0.3,0.1-0.5,0-0.5
	c0,0-0.1,0-0.1,0.1c0,0,0-0.1-0.1-0.1s-0.1,0.1-0.1,0.2c-0.1-0.2-0.2-0.4-0.3-0.3v0.1c0-0.1,0-0.2-0.1-0.2c0,0-0.1,0.1-0.2,0.3l0,0
	c0,0,0-0.1,0-0.2c0-0.1,0-0.3-0.1-0.3l-0.1-0.1l0,0c-0.1-0.1-0.1-0.1-0.2-0.1c0,0,0,0.1,0,0.2l0,0l0,0c0-0.1,0-0.1-0.1-0.1v-0.1
	c0-0.2-0.1-0.4-0.2-0.4c0,0,0,0-0.1,0.1c0-0.1-0.1-0.2-0.1-0.2s-0.1,0-0.1,0.1c0-0.1-0.1-0.2-0.1-0.2c-0.1,0-0.1,0.1-0.1,0.3
	c0-0.1,0-0.1,0-0.1c0-0.3,0-0.5-0.1-0.5s-0.1,0.2-0.2,0.5c0-0.1-0.1-0.2-0.1-0.2c-0.1,0-0.1,0.3-0.1,0.6l0,0l0,0l0,0c0,0,0,0-0.1,0
	c-0.2,0-0.4,0-0.5,0.1c0,0,0,0-0.1,0c0,0-0.1,0-0.1,0.1l0,0c0-0.1-0.1-0.1-0.1-0.1c-0.1,0-0.1,0.1-0.2,0.3l0,0
	c0-0.1-0.1-0.2-0.1-0.2c-0.1,0-0.1,0.1-0.1,0.2l0,0l0,0c0-0.2-0.1-0.3-0.1-0.3l0,0c0-0.1,0-0.1-0.1-0.1c0,0-0.1,0-0.1,0.1
	c0,0,0-0.1-0.1-0.1c0,0-0.1,0-0.1,0.1c0-0.1-0.1-0.2-0.1-0.2s0,0-0.1,0.1c0-0.1-0.1-0.1-0.1-0.1l0,0c0-0.2,0-0.3,0-0.3
	s-0.1,0-0.1,0.1c0-0.1,0-0.2,0-0.2c-0.1,0-0.2,0.2-0.3,0.5c0,0,0,0-0.1,0c0,0-0.1,0-0.1,0.1c0-0.1-0.1-0.1-0.1-0.1l0,0
	c0-0.2-0.1-0.3-0.2-0.3l0,0c-0.1-0.1-0.1-0.1-0.1,0s0,0.1-0.1,0.2l-0.1-0.1c0-0.1,0-0.2-0.1-0.2l0,0c0-0.2,0-0.3-0.1-0.3
	c0,0-0.1,0-0.1,0.1c0-0.1-0.1-0.2-0.1-0.2s-0.1,0-0.1,0.1c0,0,0,0-0.1,0c0,0-0.1,0-0.1,0.1c0-0.1-0.1-0.1-0.1-0.1l0,0v-0.1
	c0-0.1-0.1-0.2-0.1-0.2s-0.1,0-0.1,0.1l-0.1-0.1c0,0,0,0,0-0.1v-0.1l0,0c0-0.2-0.1-0.3-0.2-0.3c-0.1,0-0.1,0.1-0.1,0.2l0,0
	c0-0.2,0-0.3-0.1-0.3c0,0,0,0-0.1,0c0-0.3,0-0.5-0.1-0.5s-0.1,0.2-0.2,0.5l0,0l0,0c0-0.1,0-0.1-0.1-0.1c0-0.3,0-0.5-0.1-0.5
	s-0.2,0.3-0.2,0.7c0-0.1-0.1-0.2-0.1-0.2s-0.1,0-0.1,0.1c0,0,0,0-0.1,0c0,0-0.1,0-0.1,0.1l0,0c0-0.2,0-0.3-0.1-0.3
	c0,0-0.1,0-0.1,0.1c0-0.1-0.1-0.2-0.2-0.2c0,0-0.1,0.1-0.1,0.2l0,0c0-0.1-0.1-0.1-0.1-0.1l0,0c0-0.1-0.1-0.2-0.1-0.2s0,0-0.1,0
	c0,0,0,0-0.1,0c0,0-0.1,0-0.1,0.1l0,0l0,0c0-0.1,0-0.2-0.1-0.2s-0.2,0.2-0.2,0.3l0,0l0,0c0-0.1-0.1-0.3-0.1-0.3
	c0-0.1-0.1-0.2-0.1-0.2s-0.1,0-0.1,0.1l0,0c-0.1,0-0.2,0.1-0.2,0.3l0,0c0-0.1-0.1-0.3-0.2-0.3l-0.1,0.1c0-0.1-0.1-0.2-0.1-0.1
	c-0.1,0-0.2,0.1-0.2,0.2l0,0c0,0,0,0-0.1,0h-0.1c0,0,0,0,0-0.1s-0.3,0-0.7,0.1l0,0c-0.1,0-0.1,0-0.2,0.1c0-0.1-0.1-0.2-0.1-0.2
	c-0.1,0-0.1,0.1-0.1,0.2l0,0c-0.1,0-0.2,0.1-0.2,0.2l0,0c0,0,0,0-0.1,0l0,0c0.1-0.2,0.2-0.4,0.1-0.4c0,0-0.1,0-0.2,0.1l0,0
	c-0.1,0-0.1,0.1-0.2,0.2l0,0l-0.1,0.1c0-0.2,0-0.3-0.1-0.3c0,0-0.1,0.1-0.2,0.2l0,0c-0.1,0-0.1,0.1-0.2,0.3c0-0.1,0-0.2-0.1-0.2l0,0
	c0-0.2,0-0.3-0.1-0.3s-0.2,0.3-0.2,0.7c0-0.2,0-0.3-0.1-0.3s-0.2,0.3-0.2,0.6l0,0l0,0c0-0.1,0-0.2,0-0.2c-0.1,0-0.2,0.2-0.3,0.4
	l-0.1,0.1c-0.2,0.2-0.3,0.4-0.3,0.6c0,0.1-0.1,0.2-0.1,0.3c0-0.1,0-0.2-0.1-0.2s-0.2,0.2-0.2,0.5c0-0.2,0-0.4-0.1-0.4
	s-0.1,0.1-0.2,0.3l0,0l-0.1,0.1l0,0c0,0-0.1,0-0.1,0.1c0,0,0-0.1-0.1-0.1l0,0c0,0,0-0.1-0.1-0.1c0,0-0.1,0-0.1,0.1c0,0,0,0-0.1,0
	l0,0c0-0.1,0-0.1,0-0.1c-0.1,0-0.1,0-0.2,0.2c0-0.1,0-0.2-0.1-0.2c0,0-0.1,0-0.1,0.1c0,0,0,0-0.1,0s-0.2,0.2-0.2,0.5l0,0l0,0V166
	c0-0.1-0.1-0.2-0.1-0.2c0-0.2,0-0.3,0-0.3s-0.1,0.1-0.2,0.3c0,0,0,0-0.1,0s-0.1,0.1-0.2,0.3c0-0.1,0-0.1-0.1-0.1h-0.1h-0.1l0,0
	c0-0.2,0-0.3-0.1-0.3s-0.2,0.2-0.2,0.4l0,0c0,0,0,0.1-0.1,0.2l0,0c0,0,0-0.1-0.1-0.1c0-0.1-0.1-0.1-0.1,0c0-0.1,0-0.1-0.1-0.2
	c-0.1,0-0.2,0.1-0.2,0.2c0,0,0-0.1-0.1-0.1c0,0,0,0-0.1,0c0-0.1-0.1-0.2-0.1-0.2S22,166,22,166.1c0-0.1-0.1-0.1-0.1-0.2
	c0,0-0.1,0-0.1,0.1l-0.1-0.1l-0.1,0.1c-0.2-0.1-0.4-0.3-0.7-0.4c0,0,0,0-0.1,0s-0.2,0-0.3-0.1c0-0.2,0-0.1-0.1,0c-0.1,0-0.1,0-0.2,0
	c0-0.1,0-0.1-0.1,0c0,0,0,0-0.1,0l0,0c-0.1-0.1,0.3-0.1-0.3-0.2v0.1c-0.2,0-0.4,0-0.6,0s-0.4,0-0.5,0.1h-0.1c0-0.1,0-0.1-0.1,0l0,0
	l0,0c0-0.1,0-0.1,0-0.2c0,0,0-0.1,0-0.2c-0.4-0.1-0.3,0-0.3,0.1l0,0H18c0-0.1,0-0.3,0-0.3s-0.1,0-0.2,0.2c0-0.1,0-0.2-0.1-0.2
	s-0.1,0.1-0.1,0.2c0,0-0.1,0-0.1,0.1c0,0-0.1,0-0.1-0.1s0-0.1,0-0.2c0-0.1,0-0.1-0.1-0.1c0,0-0.1,0.1-0.1,0.2c-0.1,0-0.2,0-0.2-0.1
	c0-0.2,0-0.3-0.1-0.3c0,0-0.1,0-0.1,0.1c0-0.1,0-0.2-0.1-0.2s-0.1,0.1-0.2,0.3c0,0,0,0-0.1,0l0,0l0,0l0,0l0,0c0-0.2,0-0.4-0.1-0.4
	c0,0-0.1,0-0.2,0.2l0,0c0,0.1-0.1,0.1-0.1,0.2c0,0,0,0-0.1,0l0,0c0-0.2,0-0.3-0.1-0.3h-0.1c0-0.1-0.1-0.1-0.1-0.1s-0.1,0-0.1,0.1
	l-0.1-0.1c0,0-0.1,0.1-0.1,0.2c0-0.1-0.1-0.2-0.1-0.2s0,0-0.1,0c0,0,0-0.1-0.1-0.1s-0.2,0.2-0.2,0.4c0-0.1,0-0.2,0-0.2
	c0-0.2,0-0.4-0.1-0.4l-0.1,0.1c0-0.2,0-0.3-0.1-0.3l0,0c0,0,0-0.1-0.1-0.1s-0.2,0.3-0.2,0.6c0,0.1,0,0.1,0,0.2c0-0.1,0-0.1-0.1-0.1
	c0,0-0.1,0-0.1,0.2c0-0.1,0-0.2-0.1-0.2s-0.2,0.2-0.2,0.5v0.1l0,0c-0.1,0-0.1,0.1-0.2,0.3c0.1-0.4,0-0.8,0-0.8
	c-0.1,0-0.1,0.2-0.2,0.4l0,0c0,0,0,0-0.1,0c0,0,0-0.1-0.1-0.1c0,0-0.1,0-0.1,0.1c0-0.1,0-0.2-0.1-0.2c0,0,0,0-0.1,0
	c0-0.1,0-0.2-0.1-0.2s-0.1,0.1-0.2,0.4c0-0.1,0-0.1-0.1-0.1s-0.2,0.2-0.2,0.5c-0.1,0-0.1,0.2-0.1,0.3c0-0.1,0-0.1-0.1-0.1
	c0,0-0.1,0-0.1,0.1c-0.3,0-0.6,0-0.9,0c0-0.2-0.1-0.3-0.1-0.3c-0.1,0-0.1,0.1-0.2,0.3c-0.1,0-0.2,0-0.3,0l0,0c0-0.2-0.1-0.4-0.1-0.4
	l0,0v-0.1l0,0c0-0.1,0-0.2-0.1-0.1c0,0,0,0-0.1,0H10c-0.1-0.2-0.1-0.1-0.1,0.1l0,0l0,0l0,0c0,0-0.1,0-0.2,0c-0.1,0,0.2-0.1-0.2-0.1
	H9.4c-0.1-0.1,0.1-0.3-0.1-0.4l0,0c0,0,0,0-0.1,0H9.1c0,0,0,0,0,0.1c-0.1,0-0.1,0.1,0,0.1c0-0.1-0.1-0.1-0.1-0.1
	c-0.1,0-0.1,0.2-0.1,0.5l0,0c0,0,0,0-0.1,0l0,0l0,0l0,0v-0.1c0-0.3,0-0.5-0.1-0.5s-0.1,0.1-0.1,0.2l0,0l0,0l0,0c0-0.3,0-0.5-0.1-0.6
	c-0.1,0-0.2,0.2-0.2,0.5l0,0c0-0.1,0-0.1-0.1-0.1c0,0,0,0-0.1,0l0,0c0-0.2-0.1-0.4-0.1-0.4c-0.1,0-0.1,0.2-0.2,0.4
	c0-0.1-0.1-0.2-0.1-0.2s0,0-0.1,0c0-0.2,0-0.3-0.1-0.3s-0.1,0.1-0.2,0.3c0-0.1-0.1-0.2-0.1-0.3c0,0-0.1,0-0.1,0.1
	c0-0.2-0.1-0.4-0.1-0.4s-0.1,0.1-0.1,0.2l0,0c-0.1,0-0.1,0.1-0.1,0.2c0-0.2,0-0.3-0.1-0.3c0-0.2-0.1-0.3-0.1-0.3l-0.1,0.1
	c0,0,0-0.1-0.1-0.1c0,0,0,0-0.1,0c0-0.2-0.1-0.4-0.1-0.4c-0.1,0-0.2,0.3-0.2,0.7v0.1H5.9c0,0,0,0-0.1,0l0,0V164
	c0.1-0.1,0.1-0.2,0-0.2c0,0,0.1-0.1-0.1-0.1c0-0.1,0-0.1-0.1-0.1l0,0c0-0.1,0-0.2-0.1-0.2c0-0.2,0-0.4,0-0.4c-0.1,0-0.1,0.1-0.2,0.3
	H5.2c0-0.3,0-0.5-0.1-0.5s-0.1,0.1-0.2,0.4c0-0.1,0-0.2-0.1-0.2s-0.1,0.1-0.2,0.2c0-0.1,0-0.2-0.1-0.2l0,0c0-0.1,0-0.1-0.1-0.1
	c0,0-0.1,0-0.1,0.1c0-0.1,0-0.1-0.1-0.1c0,0-0.1,0.1-0.2,0.2c0,0,0-0.1-0.1-0.1c0,0-0.1,0-0.1,0.1l0,0c-0.1,0-0.2,0-0.3,0H3.4
	c0-0.1-0.1-0.2-0.1-0.2s0,0-0.1,0c0,0,0,0-0.1,0c0,0-0.1,0-0.1,0.1c0-0.1-0.1-0.2-0.1-0.2s-0.1,0-0.1,0.1l0,0l0,0c0,0,0,0-0.1,0
	c0,0,0,0,0,0.1s-0.1,0.2-0.1,0.3l0,0H2.5l0,0c0.1-0.3,0.1-0.5,0-0.6c0,0,0,0-0.1,0c0-0.1,0-0.2,0-0.2c-0.1,0-0.2,0.2-0.3,0.5H2
	c0.1-0.3,0.1-0.6-0.1-0.5c-0.1,0-0.1,0-0.1,0.1l0,0c0-0.1,0-0.2,0-0.2l0,0c0,0,0,0-0.1,0H1.6c-0.1-0.1-0.1-0.1-0.1,0c0,0,0,0,0-0.1
	l0,0c0-0.2-0.1-0.3-0.2-0.3c0,0,0,0-0.1,0.1c0-0.2-0.1-0.3-0.1-0.3S1,161.9,1,162l0,0c0,0,0,0-0.1,0.1c0-0.2,0-0.3-0.1-0.3
	c0,0-0.1,0-0.1,0.1l0,0c0-0.1-0.1-0.1-0.1-0.1l0,0c0-0.2-0.1-0.4-0.2-0.4c0,0-0.1,0.1-0.1,0.2c0-0.1-0.1-0.2-0.1-0.2
	c-0.1,0-0.1,0.1-0.1,0.3c0,0,0,0,0,0.1v184.3h400V154.6C399.9,154.6,399.8,154.6,399.7,154.5z"/>
</svg>
