<?xml version="1.0" encoding="utf-8"?>
<!-- Generator: Adobe Illustrator 24.2.3, SVG Export Plug-In . SVG Version: 6.00 Build 0)  -->
<svg version="1.1" id="Layer_1" xmlns="http://www.w3.org/2000/svg" xmlns:xlink="http://www.w3.org/1999/xlink" x="0px" y="0px"
	 viewBox="0 0 883.9 361.1" style="enable-background:new 0 0 883.9 361.1;" xml:space="preserve">
<style type="text/css">
	.st0{fill:none;stroke:#000000;stroke-width:0.6158;stroke-miterlimit:10;}
	.st1{opacity:0.8;fill:#FFFFFF;enable-background:new    ;}
	.st2{font-family:'Arsenal-Regular';}
	.st3{font-size:24px;}
</style>
<g id="Layer_1_1_">
</g>
<path class="st0" d="M26.1,241.2c0,0,13.5-2.1,17.9-18.7l4.7,10.7l-7.6,9.9L26.1,241.2z"/>
<path class="st0" d="M17.2,235.3l9.9-12.8h16.8c0,0-3.3,15.1-17.9,18.7L17.2,235.3z"/>
<path class="st0" d="M30.6,197.6c0,0,1,13.5-19.6,5.2c0,0,4.9,9.2,16.3,7.8C27.3,210.6,38.2,205.8,30.6,197.6z"/>
<path class="st0" d="M17.2,199.4v-1.7h13.4c0,0,1.2,13-19.6,5.2L17.2,199.4z"/>
<polygon class="st0" points="50.9,186.9 66.5,205.3 91.6,193.1 98,181 93,173.7 56.8,177.9 "/>
<polygon class="st0" points="39.1,200.4 60.2,216.9 66.5,205.3 50.9,186.9 "/>
<polygon class="st0" points="88.5,210.8 91.6,193.1 66.5,205.3 60.2,216.9 "/>
<polygon class="st0" points="109.8,160.5 96.6,178.9 98,181 91.6,193.1 111,201.9 124,220.9 158.4,212.4 133.6,185.3 125,164.2 "/>
<polygon class="st0" points="121.1,244.8 124,220.9 111,201.9 91.6,193.1 88.5,210.8 "/>
<polygon class="st0" points="177.6,232.1 171.2,227.5 155.2,234.9 174.7,246 189.9,246 185.2,234.2 "/>
<polygon class="st0" points="184.2,225 185.2,234.2 177.6,232.1 171.2,227.5 155.2,234.9 155.9,243.2 121.1,244.8 124,220.9 
	158.4,212.4 163.9,212.4 "/>
<polygon class="st0" points="167.4,249 189.9,249 189.9,246 174.7,246 155.2,234.9 155.9,243.2 "/>
<path class="st0" d="M198.4,258.7c0,0-1.7,11.4-18.4,8.3c0,0,8.7,5.4,14.7,3.6C200.8,268.9,198.4,258.7,198.4,258.7z"/>
<path class="st0" d="M184.2,256.9h14.7c0,0-0.1,12.3-18.9,10.1v1.7h-5v-3.9L184.2,256.9z"/>
<path class="st0" d="M213.7,264c0,0,42.1-5.7,37.6-15.1l-23.6-15.3l-21.2-26.2L184.2,225l1,9.2l4.7,11.8L213.7,264z"/>
<path class="st0" d="M333.7,234.9c0,0,13.5-21.5,11.3-28.3l-8.5-9l-44,16l-36.2,36.2l-4.9-0.9c0,0,6.8,8.8-37.6,15.1
	c0,0,46.5,9.7,51,3.3l9.2-4.5l14.9-20.9l8.8-5.2L333.7,234.9z"/>
<path class="st0" d="M280.6,175.3v12.3l-15.5,8.3c0,0,24.5,2.3,27.5-2.3S289.2,177.2,280.6,175.3z"/>
<polygon class="st0" points="262.3,177.9 280.6,175.3 280.6,187.6 265.1,195.9 254.2,184.1 "/>
<polygon class="st0" points="249.4,188.5 254.2,184.1 265.1,195.9 260.7,197.6 "/>
<polygon class="st0" points="212.6,192.4 232.1,207.5 227.7,233.7 206.6,207.5 "/>
<polygon class="st0" points="263,207.5 293.4,209.5 292.4,213.6 256.2,249.8 251.3,249 227.7,233.7 232.1,207.5 "/>
<path class="st0" d="M319.7,182.3l16.8,15.4l-44,16l1-4l-30.3-2h-31l-19.4-15.1l35.4-1.6l-0.5-5h4.7l10.1-8l18.3-2.6
	c0,0,8.7,2.1,10.7,8.8L319.7,182.3z"/>
<polygon class="st0" points="187.2,98.8 208.2,152.4 221.9,153.8 220.7,113.4 189.9,96 "/>
<polygon class="st0" points="240.4,111.3 220.7,113.4 221.9,153.8 224.7,154.8 240.4,118.9 "/>
<polygon class="st0" points="242,124.9 240.4,118.9 224.7,154.8 233.3,170.7 233.3,146.4 "/>
<polygon class="st0" points="164.1,167.2 163.9,212.4 184.2,225 206.6,207.5 212.6,192.4 248,190.9 247.5,185.9 232.1,185.6 
	233.3,170.7 224.7,154.8 221.9,153.8 208.2,152.4 189.9,163.3 "/>
<polygon class="st0" points="128.5,118.9 189.9,96 187.2,98.8 208.2,152.4 189.9,163.3 164.1,167.2 162.9,149.4 "/>
<polygon class="st0" points="110.5,138.3 128.5,118.9 162.9,149.4 164.1,167.2 "/>
<polygon class="st0" points="109.8,160.5 110.5,138.3 164.1,167.2 163.9,212.4 158.4,212.4 133.6,185.3 125,164.2 "/>
<polygon class="st0" points="251.6,99 302.3,67.1 293.4,94.6 233.3,150.1 233.3,146.4 242,124.9 243.2,118.9 "/>
<polygon class="st0" points="343,139 366.4,114.3 302.3,67.1 293.4,94.6 "/>
<polygon class="st0" points="327.5,134.9 298.4,129.8 301.5,101.9 343,139 327.3,168.6 "/>
<polygon class="st0" points="281.8,161.5 298.4,129.8 301.5,101.9 293.4,94.6 233.3,150.1 233.3,170.7 "/>
<path class="st0" d="M327.3,168.6l-7.6,13.6l-28.3,1.8c0,0-3.8-8.3-10.7-8.8c-6.9-0.5-18.3,2.6-18.3,2.6l-8.1,6.2l-2,1.8l-20.2-0.3
	l1.3-14.9l48.4-9.2l16.6-31.7l29.1,5.1L327.3,168.6z"/>
<polygon class="st0" points="371.7,153.1 376.3,170.7 408.9,92.3 "/>
<polygon class="st0" points="371.7,104.8 408.9,58.4 408.9,92.3 371.7,153.1 "/>
<polygon class="st0" points="361.3,209.8 374.5,197.6 376.3,170.7 371.7,153.1 371.7,104.8 366.4,114.3 343,139 "/>
<path class="st0" d="M354.3,238.2l6.7-16.6l0.2-11.8L343,139l-23.3,43.2l25.3,24.4c0,0,4.1,3.7-11.3,28.3l5,3.3H354.3z"/>
<polygon class="st0" points="329.9,253.2 333.7,234.9 297.6,236.7 288.8,241.9 273.8,262.8 294.9,276.8 302.3,266.9 "/>
<polygon class="st0" points="358.7,248.4 354.3,238.2 338.6,238.2 336.4,243.3 332.7,239.4 329.9,253.2 340.5,258.8 "/>
<polygon class="st0" points="369.6,253.7 366.4,249.8 358.7,248.4 340.5,258.8 329.9,253.2 302.3,266.9 294.9,276.8 307.9,276.8 
	345.2,267.1 364.3,258.8 365,254.6 "/>
<polygon class="st0" points="430.8,104.8 475.8,54.4 471,12.5 410.3,85.6 "/>
<polygon class="st0" points="410.3,164.7 430.8,104.8 410.3,85.6 408.9,92.3 376.3,170.7 374.5,197.6 "/>
<polygon class="st0" points="475.8,104.8 475.8,54.4 430.8,104.8 410.3,164.7 419,190.9 "/>
<polygon class="st0" points="402.6,211.5 419,190.9 410.3,164.7 361.3,209.8 361.1,221.6 354.3,238.2 358.7,248.4 366.4,249.8 "/>
<polygon class="st0" points="388.4,246.5 398.9,239.9 402.6,211.5 366.4,249.8 369.6,253.7 380.8,244.1 "/>
<path class="st0" d="M509.9,45.9h-15.3l-18.8,21.3v37.7l10.5-8.8V88l4.2,4.4h11.6l14.8-17l2.8,14.4l-9.2,12.1l-1.8,17l-30.1,43h11.6
	l1.4,5.3l30.1-9.4l12.9-38.9l9.7-4.2C544.1,114.8,534,52.3,509.9,45.9z"/>
<polygon class="st0" points="560.8,147.6 544.1,114.8 534.4,118.9 521.5,157.8 "/>
<polygon class="st0" points="471,114.8 475.8,124.9 443.1,177.9 "/>
<polygon class="st0" points="479.9,146.3 478.5,161.9 467.4,161.9 "/>
<polygon class="st0" points="473.6,180 490.1,161.9 491.4,167.2 "/>
<polygon class="st0" points="495.6,192.4 499.3,203.1 479.9,220.6 443.1,220.6 473.6,213.1 "/>
<path class="st0" d="M465.1,195.9l30.5-3.5l-22,20.6l-30.6,7.6h-8.5C434.6,220.6,465.1,204.5,465.1,195.9z"/>
<polygon class="st0" points="560.8,147.6 571.4,168.6 550.6,176.7 "/>
<polygon class="st0" points="402.6,211.5 467.4,161.9 479.9,146.3 478.5,161.9 508.5,118.9 510.4,101.9 519.6,89.8 516.9,75.3 
	502.1,92.3 490.5,92.3 486.4,87.9 486.4,96 475.8,104.8 "/>
<polygon class="st0" points="388.4,246.5 386.7,262.8 376.3,268.7 374.5,276.8 390.3,271 394.3,269.5 394.3,258.8 "/>
<polygon class="st0" points="364.3,258.8 364.3,269.5 374.5,276.8 376.3,268.7 "/>
<path class="st0" d="M452.1,264.8c0,0,2.3-20.7-37-0.8l-30.7,26.4l40.5,20.3l30.1-12.5L452.1,264.8z"/>
<polygon class="st0" points="414.2,329.3 424.9,310.8 384.4,290.5 380.9,304.8 "/>
<path class="st0" d="M461.1,320.1h14.7l15.6-9.2h4.2l3.7,9.2h20.3l13.4-9.2l-7.9-20.3L497,269.7c0,0,24.4,27.4-12.1,20.9
	c0,0-7.4,17.1-30.1,7.9L424.7,311l-10.6,18.5C414.2,329.3,437.3,337.6,461.1,320.1z"/>
<path class="st0" d="M454.9,255.9l12.5-20.1l21.3-15.1l21.3-2.3l2.7,23.6c0,0-1.6,35.3-15.6,27.6l-11.2-10.7h-35.5L454.9,255.9z"/>
<path class="st0" d="M402.6,241.9l0.3,32.6l12.3-10.5c0,0,27.5-16.1,35.3-5.3l4.5-2.9l12.5-20.1L402.6,241.9z"/>
<polygon class="st0" points="394.3,258.8 402.6,258.8 402.6,241.9 398.9,239.9 388.4,246.5 "/>
<polygon class="st0" points="352.3,276.8 361.3,292.3 371.7,290.5 "/>
<polygon class="st0" points="343,284.6 356.4,296.9 361.3,292.3 352.3,276.8 "/>
<polygon class="st0" points="324.5,296.9 336.4,302 356.4,296.9 343,284.6 "/>
<path class="st0" d="M356.4,302c0,0,12.5,2.1,15.3-11.6l-10.4,1.8l-4.9,4.6l-20,5.1h20V302z"/>
<path class="st0" d="M293.4,339.5c0,0,20.5,8.8,21.9-13.9c0,0,10.7,5.7-1.5,18.5C313.8,344.1,301,349.2,293.4,339.5z"/>
<path class="st0" d="M290.7,333.8l12.1-10.5h12.3v1.4c0,0,1,22.4-21.7,14.7L290.7,333.8z"/>
<line class="st0" x1="454.9" y1="298.3" x2="461.1" y2="320.1"/>
<polyline class="st0" points="491.4,310.8 475.8,320.1 475.3,326.5 487,337.4 497.5,326.5 499.3,320.1 495.6,310.8 502.2,290 "/>
<polygon class="st0" points="487,343.6 487,337.4 497.5,326.5 499.3,320.1 502.2,320.1 502.2,338.3 "/>
<polygon class="st0" points="473.6,335.5 475.3,326.5 487,337.4 487,343.6 "/>
<path class="st0" d="M547.4,335.1c0,0,19,8.1,22.7-8.6c0,0,8.6,6.8-7.6,14.1C562.4,340.6,552.2,341.6,547.4,335.1z"/>
<path class="st0" d="M556.9,326.5H570c0,0-1.6,15.7-22.7,8.6L556.9,326.5z"/>
<polygon class="st0" points="577.7,275.7 613.3,300.4 540,308 541.1,284.7 "/>
<polygon class="st0" points="582.3,233.8 609.6,226 623.2,214.4 641.7,221.8 657.2,254.2 626.9,299 613.3,300.4 577.7,275.7 "/>
<path class="st0" d="M508.1,216.3c0,0,11.8-25.7,30.1-23.8l-12.3,10.4l-1.4,21.7l-9.7,22h-2.1V242l-2.7-23.6l-3.1,0.3L508.1,216.3z"
	/>
<path class="st0" d="M528.9,266.6l12.3,18L540,308l-12.6-11.8l-2.2-5.8l-28.1-20.9c0,0,8.1,6.2,12.9-10.4L528.9,266.6z"/>
<polygon class="st0" points="536.3,226.7 551.8,250.7 577.7,275.7 582.3,233.8 549.7,212.8 538.1,192.4 525.9,202.8 524.5,224.6 "/>
<polygon class="st0" points="544.1,180.9 538.1,192.4 549.7,212.8 582.3,233.8 583.6,215.8 "/>
<path class="st0" d="M544.1,151.9l-19.7,43.2c0,0,9-4.7,13.6-2.7l6-11.5l39.4,34.8l-1.3,18.1l27.3-7.9l13.6-11.6
	c0,0-2-39.6-22.8-50.8l-49.8,13.1l10.2-29.1L544.1,151.9z"/>
<path class="st0" d="M506.9,218.7c0,0,7.8-17.8,17.6-23.5l19.7-43.2l-52.7,15.3L473.6,180l16.4-18h-22.7l-64.8,49.6l-3.8,28.4l3.8,2
	l64.8-6.2l21.3-15.1L506.9,218.7z"/>
<polygon class="st0" points="633.3,174.8 639.9,182.6 638,220.3 641.7,221.8 655.3,189.2 655.3,174.8 "/>
<path class="st0" d="M600.4,163.6l8.5-3.1l24.4,14.2l6.6,7.8l-1.9,37.7l-14.8-5.9C623.2,214.4,622.6,178.3,600.4,163.6z"/>
<path class="st0" d="M613.6,138l37.4-21.8l49.5,3.8l-6.9,9.7l-13,1.2c0,0-9.2,14.7-21.1,12.6l-14,1.7l-19.9,10.9l-16.1-7.3
	L613.6,138z"/>
<polygon class="st0" points="661.7,96.4 700.6,90.2 712,102 712,124.5 696.1,158.4 688.3,153.2 659.4,174.8 655.3,189.2 
	655.3,174.8 633.3,174.8 608.9,160.6 609.6,148.7 613.6,138 "/>
<polygon class="st0" points="721.2,125.5 726.4,160.6 729,160.6 729,172.2 726.4,172.2 714.1,190.7 694.2,190.4 694.2,187.3 
	660.4,188 660.4,213.4 669.8,217.6 702.7,253.4 744.9,266.4 709.3,271.2 701.5,262.2 681.2,266 657.2,254.2 641.7,221.8 
	655.3,189.2 659.4,174.8 688.3,153.2 696.1,158.4 712,124.5 712,102 720,111 "/>
<polygon class="st0" points="712,116.3 721.2,125.5 720,111 712,102 "/>
<line class="st0" x1="685.2" y1="187.5" x2="696.1" y2="158.4"/>
<polygon class="st0" points="725.9,211.7 732.3,233.8 752,209.8 748.2,196.1 "/>
<path class="st0" d="M674.5,199.4c0,0,16.1,0.1,19.7-9c0,0,2.8,6.6-5.2,10.4S674.5,199.4,674.5,199.4z"/>
<path class="st0" d="M678.3,187.5l-8.1,8.8l4.3,3.1c0,0,15.6,0.3,19.7-9v-3.1L678.3,187.5z"/>
<polygon class="st0" points="660.4,213.4 694.2,213.4 694.7,209.8 725.9,211.7 723.4,176.7 714.1,190.7 694.2,190.4 694.2,187.3 
	678.3,187.5 660.4,188 "/>
<path class="st0" d="M748.2,196.1l3.8-5.7l19.9-5v-35.1c0,0-11.4-16.6-42.9,10.2v11.6h-2.6l-3,4.5l2.5,35L748.2,196.1z"/>
<path class="st0" d="M771.9,189.2l-23.7,6.9l3.8,13.7l5.2,5.1l21.3-8.7v-2.6l15.6,0.5v4l37.2-0.5c0,0,14.5-3.1,15.6-11.4
	s-38.1-42.9-38.1-42.9s23.5,28.7,7.1,26.3l-16.6,0.9l-6.6,6.8L771.9,189.2z"/>
<path class="st0" d="M771.9,150.4h24.6l12.3,3.1c0,0,22.5,28.7,7.1,26.3l-16.6,0.9l-6.6,6.8l-20.8,1.7l-23.7,6.9l3.8-5.7l19.9-5
	V150.4z"/>
<polygon class="st0" points="792.7,187.5 792.7,177.9 775.4,153.4 800.3,173 811,180 799.4,180.7 "/>
<path class="st0" d="M856.7,190.4c0,0,0,12,6.2,11.8c0,0-8.8,4.1-11.8-2.8S856.7,190.4,856.7,190.4z"/>
<path class="st0" d="M871.9,196.9l-9.8-6.5h-5.4c0,0,0.5,11.3,6.2,11.8l-4.7,1.2l0.9,1.9h7.6v-3.1h4.3L871.9,196.9z"/>
<path class="st0" d="M788.9,228.5l11.1,2.6l12.8,12.1c0,0-17.8,3.1-20.6-1.4s-4.3-5.4-4.3-5.4L788.9,228.5z"/>
<polygon class="st0" points="800.4,217.2 810,217.2 836.3,237.5 812.9,243.2 800.1,231.2 788.9,228.5 788,225 "/>
<polygon class="st0" points="744.9,266.4 771.9,238.7 775.4,245.6 "/>
<polygon class="st0" points="775.4,230.2 771.9,238.7 775.4,245.6 "/>
<polygon class="st0" points="752,209.8 775.4,230.2 771.9,238.7 744.9,266.4 702.7,253.4 735.4,236.4 "/>
<polygon class="st0" points="660.4,213.4 669.8,217.6 702.7,253.4 735.4,236.4 752,209.8 732.3,233.8 725.9,211.7 694.7,209.8 
	694.2,213.4 "/>
<polygon class="st0" points="768.3,209.8 768.3,215 773.7,219.5 777.6,219.5 794.2,208.2 794.2,204.1 778.5,203.7 778.5,206.3 "/>
<polygon class="st0" points="788,219.5 795.8,211.7 794.2,208.2 777.6,219.5 "/>
<polygon class="st0" points="682.2,285.4 699,275.4 699,262.6 701.5,262.2 712,273.8 712,282.6 702.7,285.4 682.2,287.9 "/>
<polygon class="st0" points="670.3,275.1 670.3,281.4 682.2,287.9 682.2,285.4 699,275.4 699,262.6 681.2,266 "/>
<path class="st0" d="M550.6,176.7l38.2-10l-2.7-68.2l-45-34.7H528c0,0,11.6,23.6,16.1,51l27.3,53.9L550.6,176.7z"/>
<rect x="217.9" y="160.7" class="st1" width="441.5" height="39.8"/>
<text transform="matrix(1 0 0 1 226.0987 188.6893)" class="st2 st3">© 2020 Andrea Kamens. All Rights Reserved. </text>
</svg>
